  0
SECTION
  2
HEADER
  9
$ANGBASE
  50
0.0
  9
$ANGDIR
  70
  1
  9
$MEASUREMENT
  70
0
  0
ENDSEC
  0
SECTION
  2
TABLES
  0
TABLE
  2
LTYPE
  70
1
  0
LTYPE
  2
CONTINUOUS
  70
0
  3
Solid line
  72
65
  73
0
  40
0.0
  0
ENDTAB
  0
TABLE
  2
STYLE
  70
4
  0
STYLE
  2
KICAD
  70
0
  40
0
  41
1
  42
1
  50
0
  71
0
  3
isocp.shx
  0
STYLE
  2
KICADB
  70
0
  40
0
  41
1
  42
1
  50
0
  71
0
  3
isocp.shx
  0
STYLE
  2
KICADI
  70
0
  40
0
  41
1
  42
1
  50
15
  71
0
  3
isocp.shx
  0
STYLE
  2
KICADBI
  70
0
  40
0
  41
1
  42
1
  50
15
  71
0
  3
isocp.shx
  0
ENDTAB
  0
TABLE
  2
LAYER
  70
30
  0
LAYER
  2
BLACK
  70
0
  62
7
  6
CONTINUOUS
  0
LAYER
  2
GRAY1
  70
0
  62
251
  6
CONTINUOUS
  0
LAYER
  2
GRAY2
  70
0
  62
8
  6
CONTINUOUS
  0
LAYER
  2
GRAY3
  70
0
  62
9
  6
CONTINUOUS
  0
LAYER
  2
WHITE
  70
0
  62
7
  6
CONTINUOUS
  0
LAYER
  2
LYELLOW
  70
0
  62
51
  6
CONTINUOUS
  0
LAYER
  2
BLUE1
  70
0
  62
178
  6
CONTINUOUS
  0
LAYER
  2
GREEN1
  70
0
  62
98
  6
CONTINUOUS
  0
LAYER
  2
CYAN1
  70
0
  62
138
  6
CONTINUOUS
  0
LAYER
  2
RED1
  70
0
  62
18
  6
CONTINUOUS
  0
LAYER
  2
MAGENTA1
  70
0
  62
228
  6
CONTINUOUS
  0
LAYER
  2
BROWN1
  70
0
  62
58
  6
CONTINUOUS
  0
LAYER
  2
BLUE2
  70
0
  62
5
  6
CONTINUOUS
  0
LAYER
  2
GREEN2
  70
0
  62
3
  6
CONTINUOUS
  0
LAYER
  2
CYAN2
  70
0
  62
4
  6
CONTINUOUS
  0
LAYER
  2
RED2
  70
0
  62
1
  6
CONTINUOUS
  0
LAYER
  2
MAGENTA2
  70
0
  62
6
  6
CONTINUOUS
  0
LAYER
  2
BROWN2
  70
0
  62
54
  6
CONTINUOUS
  0
LAYER
  2
BLUE3
  70
0
  62
171
  6
CONTINUOUS
  0
LAYER
  2
GREEN3
  70
0
  62
91
  6
CONTINUOUS
  0
LAYER
  2
CYAN3
  70
0
  62
131
  6
CONTINUOUS
  0
LAYER
  2
RED3
  70
0
  62
11
  6
CONTINUOUS
  0
LAYER
  2
MAGENTA3
  70
0
  62
221
  6
CONTINUOUS
  0
LAYER
  2
YELLOW3
  70
0
  62
2
  6
CONTINUOUS
  0
LAYER
  2
BLUE4
  70
0
  62
5
  6
CONTINUOUS
  0
LAYER
  2
GREEN4
  70
0
  62
3
  6
CONTINUOUS
  0
LAYER
  2
CYAN4
  70
0
  62
4
  6
CONTINUOUS
  0
LAYER
  2
RED4
  70
0
  62
1
  6
CONTINUOUS
  0
LAYER
  2
MAGENTA4
  70
0
  62
6
  6
CONTINUOUS
  0
LAYER
  2
YELLOW4
  70
0
  62
2
  6
CONTINUOUS
  0
ENDTAB
  0
ENDSEC
  0
SECTION
  2
ENTITIES
0
LINE
8
Black
10
143.262
20
-106.098
11
143.269
21
-106.098
0
LINE
8
Black
10
143.269
20
-106.098
11
143.275
21
-106.1
0
LINE
8
Black
10
143.275
20
-106.1
11
143.282
21
-106.102
0
LINE
8
Black
10
143.282
20
-106.102
11
143.287
21
-106.105
0
LINE
8
Black
10
143.287
20
-106.105
11
143.294
21
-106.107
0
LINE
8
Black
10
143.294
20
-106.107
11
143.299
21
-106.111
0
LINE
8
Black
10
143.299
20
-106.111
11
143.304
21
-106.115
0
LINE
8
Black
10
143.304
20
-106.115
11
143.308
21
-106.12
0
LINE
8
Black
10
143.308
20
-106.12
11
143.313
21
-106.124
0
LINE
8
Black
10
143.313
20
-106.124
11
143.317
21
-106.129
0
LINE
8
Black
10
143.317
20
-106.129
11
143.321
21
-106.135
0
LINE
8
Black
10
143.321
20
-106.135
11
143.323
21
-106.141
0
LINE
8
Black
10
143.323
20
-106.141
11
143.326
21
-106.146
0
LINE
8
Black
10
143.326
20
-106.146
11
143.328
21
-106.153
0
LINE
8
Black
10
143.328
20
-106.153
11
143.33
21
-106.159
0
LINE
8
Black
10
143.33
20
-106.159
11
143.33
21
-106.166
0
LINE
8
Black
10
143.33
20
-106.166
11
143.331
21
-106.172
0
LINE
8
Black
10
143.331
20
-106.172
11
143.331
21
-125.857
0
LINE
8
Black
10
143.331
20
-125.857
11
143.33
21
-125.863
0
LINE
8
Black
10
143.33
20
-125.863
11
143.33
21
-125.87
0
LINE
8
Black
10
143.33
20
-125.87
11
143.328
21
-125.876
0
LINE
8
Black
10
143.328
20
-125.876
11
143.326
21
-125.883
0
LINE
8
Black
10
143.326
20
-125.883
11
143.323
21
-125.888
0
LINE
8
Black
10
143.323
20
-125.888
11
143.321
21
-125.895
0
LINE
8
Black
10
143.321
20
-125.895
11
143.317
21
-125.9
0
LINE
8
Black
10
143.317
20
-125.9
11
143.313
21
-125.905
0
LINE
8
Black
10
143.313
20
-125.905
11
143.308
21
-125.909
0
LINE
8
Black
10
143.308
20
-125.909
11
143.304
21
-125.914
0
LINE
8
Black
10
143.304
20
-125.914
11
143.299
21
-125.918
0
LINE
8
Black
10
143.299
20
-125.918
11
143.294
21
-125.922
0
LINE
8
Black
10
143.294
20
-125.922
11
143.287
21
-125.924
0
LINE
8
Black
10
143.287
20
-125.924
11
143.282
21
-125.927
0
LINE
8
Black
10
143.282
20
-125.927
11
143.275
21
-125.929
0
LINE
8
Black
10
143.275
20
-125.929
11
143.269
21
-125.931
0
LINE
8
Black
10
143.269
20
-125.931
11
143.262
21
-125.931
0
LINE
8
Black
10
143.262
20
-125.931
11
143.256
21
-125.932
0
LINE
8
Black
10
143.256
20
-125.932
11
132.08
21
-125.932
0
LINE
8
Black
10
132.08
20
-125.932
11
132.074
21
-125.931
0
LINE
8
Black
10
132.074
20
-125.931
11
132.067
21
-125.931
0
LINE
8
Black
10
132.067
20
-125.931
11
132.061
21
-125.929
0
LINE
8
Black
10
132.061
20
-125.929
11
132.054
21
-125.927
0
LINE
8
Black
10
132.054
20
-125.927
11
132.049
21
-125.924
0
LINE
8
Black
10
132.049
20
-125.924
11
132.043
21
-125.922
0
LINE
8
Black
10
132.043
20
-125.922
11
132.037
21
-125.918
0
LINE
8
Black
10
132.037
20
-125.918
11
132.032
21
-125.914
0
LINE
8
Black
10
132.032
20
-125.914
11
132.028
21
-125.909
0
LINE
8
Black
10
132.028
20
-125.909
11
132.023
21
-125.905
0
LINE
8
Black
10
132.023
20
-125.905
11
132.019
21
-125.9
0
LINE
8
Black
10
132.019
20
-125.9
11
132.015
21
-125.895
0
LINE
8
Black
10
132.015
20
-125.895
11
132.013
21
-125.888
0
LINE
8
Black
10
132.013
20
-125.888
11
132.01
21
-125.883
0
LINE
8
Black
10
132.01
20
-125.883
11
132.008
21
-125.876
0
LINE
8
Black
10
132.008
20
-125.876
11
132.006
21
-125.87
0
LINE
8
Black
10
132.006
20
-125.87
11
132.006
21
-125.863
0
LINE
8
Black
10
132.006
20
-125.863
11
132.005
21
-125.857
0
LINE
8
Black
10
132.005
20
-125.857
11
132.005
21
-106.172
0
LINE
8
Black
10
132.005
20
-106.172
11
132.006
21
-106.166
0
LINE
8
Black
10
132.006
20
-106.166
11
132.006
21
-106.159
0
LINE
8
Black
10
132.006
20
-106.159
11
132.008
21
-106.153
0
LINE
8
Black
10
132.008
20
-106.153
11
132.01
21
-106.146
0
LINE
8
Black
10
132.01
20
-106.146
11
132.013
21
-106.141
0
LINE
8
Black
10
132.013
20
-106.141
11
132.015
21
-106.135
0
LINE
8
Black
10
132.015
20
-106.135
11
132.019
21
-106.129
0
LINE
8
Black
10
132.019
20
-106.129
11
132.023
21
-106.124
0
LINE
8
Black
10
132.023
20
-106.124
11
132.028
21
-106.12
0
LINE
8
Black
10
132.028
20
-106.12
11
132.032
21
-106.115
0
LINE
8
Black
10
132.032
20
-106.115
11
132.037
21
-106.111
0
LINE
8
Black
10
132.037
20
-106.111
11
132.043
21
-106.107
0
LINE
8
Black
10
132.043
20
-106.107
11
132.049
21
-106.105
0
LINE
8
Black
10
132.049
20
-106.105
11
132.054
21
-106.102
0
LINE
8
Black
10
132.054
20
-106.102
11
132.061
21
-106.1
0
LINE
8
Black
10
132.061
20
-106.1
11
132.067
21
-106.098
0
LINE
8
Black
10
132.067
20
-106.098
11
132.074
21
-106.098
0
LINE
8
Black
10
132.074
20
-106.098
11
132.08
21
-106.097
0
LINE
8
Black
10
132.08
20
-106.097
11
143.256
21
-106.097
0
LINE
8
Black
10
143.256
20
-106.097
11
143.262
21
-106.098
0
LINE
8
Black
10
132.155
20
-106.247
11
132.155
21
-125.782
0
LINE
8
Black
10
132.155
20
-125.782
11
143.181
21
-125.782
0
LINE
8
Black
10
143.181
20
-125.782
11
143.181
21
-106.247
0
LINE
8
Black
10
143.181
20
-106.247
11
132.155
21
-106.247
0
LINE
8
Black
10
134.366
20
-120.268
11
134.869
21
-120.268
0
LINE
8
Black
10
134.869
20
-120.268
11
134.88
21
-120.27
0
LINE
8
Black
10
134.88
20
-120.27
11
134.891
21
-120.269
0
LINE
8
Black
10
134.891
20
-120.269
11
134.922
21
-120.277
0
LINE
8
Black
10
134.922
20
-120.277
11
134.955
21
-120.283
0
LINE
8
Black
10
134.955
20
-120.283
11
134.964
21
-120.289
0
LINE
8
Black
10
134.964
20
-120.289
11
134.975
21
-120.291
0
LINE
8
Black
10
134.975
20
-120.291
11
135.001
21
-120.31
0
LINE
8
Black
10
135.001
20
-120.31
11
135.03
21
-120.326
0
LINE
8
Black
10
135.03
20
-120.326
11
135.037
21
-120.335
0
LINE
8
Black
10
135.037
20
-120.335
11
135.046
21
-120.341
0
LINE
8
Black
10
135.046
20
-120.341
11
136.121
21
-121.416
0
LINE
8
Black
10
136.121
20
-121.416
11
139.065
21
-121.416
0
LINE
8
Black
10
139.065
20
-121.416
11
139.076
21
-121.418
0
LINE
8
Black
10
139.076
20
-121.418
11
139.087
21
-121.417
0
LINE
8
Black
10
139.087
20
-121.417
11
139.118
21
-121.425
0
LINE
8
Black
10
139.118
20
-121.425
11
139.151
21
-121.431
0
LINE
8
Black
10
139.151
20
-121.431
11
139.16
21
-121.437
0
LINE
8
Black
10
139.16
20
-121.437
11
139.171
21
-121.439
0
LINE
8
Black
10
139.171
20
-121.439
11
139.197
21
-121.458
0
LINE
8
Black
10
139.197
20
-121.458
11
139.226
21
-121.474
0
LINE
8
Black
10
139.226
20
-121.474
11
139.233
21
-121.483
0
LINE
8
Black
10
139.233
20
-121.483
11
139.242
21
-121.489
0
LINE
8
Black
10
139.242
20
-121.489
11
140.131
21
-122.378
0
LINE
8
Black
10
140.131
20
-122.378
11
140.137
21
-122.387
0
LINE
8
Black
10
140.137
20
-122.387
11
140.146
21
-122.394
0
LINE
8
Black
10
140.146
20
-122.394
11
140.162
21
-122.423
0
LINE
8
Black
10
140.162
20
-122.423
11
140.181
21
-122.449
0
LINE
8
Black
10
140.181
20
-122.449
11
140.183
21
-122.46
0
LINE
8
Black
10
140.183
20
-122.46
11
140.189
21
-122.469
0
LINE
8
Black
10
140.189
20
-122.469
11
140.195
21
-122.502
0
LINE
8
Black
10
140.195
20
-122.502
11
140.203
21
-122.533
0
LINE
8
Black
10
140.203
20
-122.533
11
140.202
21
-122.544
0
LINE
8
Black
10
140.202
20
-122.544
11
140.204
21
-122.555
0
LINE
8
Black
10
140.204
20
-122.555
11
140.204
21
-124.016
0
LINE
8
Black
10
140.204
20
-124.016
11
140.208
21
-124.016
0
LINE
8
Black
10
140.208
20
-124.016
11
140.208
21
-125.159
0
LINE
8
Black
10
140.208
20
-125.159
11
139.7
21
-125.159
0
LINE
8
Black
10
139.7
20
-125.159
11
139.7
21
-124.016
0
LINE
8
Black
10
139.7
20
-124.016
11
139.704
21
-124.016
0
LINE
8
Black
10
139.704
20
-124.016
11
139.704
21
-122.659
0
LINE
8
Black
10
139.704
20
-122.659
11
138.961
21
-121.916
0
LINE
8
Black
10
138.961
20
-121.916
11
136.017
21
-121.916
0
LINE
8
Black
10
136.017
20
-121.916
11
136.006
21
-121.914
0
LINE
8
Black
10
136.006
20
-121.914
11
135.995
21
-121.915
0
LINE
8
Black
10
135.995
20
-121.915
11
135.964
21
-121.907
0
LINE
8
Black
10
135.964
20
-121.907
11
135.931
21
-121.901
0
LINE
8
Black
10
135.931
20
-121.901
11
135.922
21
-121.895
0
LINE
8
Black
10
135.922
20
-121.895
11
135.911
21
-121.893
0
LINE
8
Black
10
135.911
20
-121.893
11
135.885
21
-121.874
0
LINE
8
Black
10
135.885
20
-121.874
11
135.856
21
-121.858
0
LINE
8
Black
10
135.856
20
-121.858
11
135.849
21
-121.849
0
LINE
8
Black
10
135.849
20
-121.849
11
135.84
21
-121.843
0
LINE
8
Black
10
135.84
20
-121.843
11
134.765
21
-120.768
0
LINE
8
Black
10
134.765
20
-120.768
11
134.366
21
-120.768
0
LINE
8
Black
10
134.366
20
-120.768
11
134.366
21
-121.003
0
LINE
8
Black
10
134.366
20
-121.003
11
133.096
21
-121.003
0
LINE
8
Black
10
133.096
20
-121.003
11
133.096
21
-120.033
0
LINE
8
Black
10
133.096
20
-120.033
11
134.366
21
-120.033
0
LINE
8
Black
10
134.366
20
-120.033
11
134.366
21
-120.268
0
LINE
8
Black
10
138.255
20
-123.005
11
138.436
21
-123.11
0
LINE
8
Black
10
138.436
20
-123.11
11
138.571
21
-123.27
0
LINE
8
Black
10
138.571
20
-123.27
11
138.642
21
-123.466
0
LINE
8
Black
10
138.642
20
-123.466
11
138.642
21
-123.676
0
LINE
8
Black
10
138.642
20
-123.676
11
138.571
21
-123.872
0
LINE
8
Black
10
138.571
20
-123.872
11
138.45
21
-124.016
0
LINE
8
Black
10
138.45
20
-124.016
11
138.938
21
-124.016
0
LINE
8
Black
10
138.938
20
-124.016
11
138.938
21
-124.353
0
LINE
8
Black
10
138.938
20
-124.353
11
138.987
21
-124.412
0
LINE
8
Black
10
138.987
20
-124.412
11
139.029
21
-124.526
0
LINE
8
Black
10
139.029
20
-124.526
11
139.029
21
-124.648
0
LINE
8
Black
10
139.029
20
-124.648
11
138.987
21
-124.762
0
LINE
8
Black
10
138.987
20
-124.762
11
138.938
21
-124.821
0
LINE
8
Black
10
138.938
20
-124.821
11
138.938
21
-125.159
0
LINE
8
Black
10
138.938
20
-125.159
11
138.43
21
-125.159
0
LINE
8
Black
10
138.43
20
-125.159
11
138.43
21
-124.937
0
LINE
8
Black
10
138.43
20
-124.937
11
137.668
21
-124.937
0
LINE
8
Black
10
137.668
20
-124.937
11
137.668
21
-125.159
0
LINE
8
Black
10
137.668
20
-125.159
11
137.16
21
-125.159
0
LINE
8
Black
10
137.16
20
-125.159
11
137.16
21
-124.822
0
LINE
8
Black
10
137.16
20
-124.822
11
137.146
21
-124.804
0
LINE
8
Black
10
137.146
20
-124.804
11
137.111
21
-124.762
0
LINE
8
Black
10
137.111
20
-124.762
11
137.109
21
-124.756
0
LINE
8
Black
10
137.109
20
-124.756
11
137.105
21
-124.751
0
LINE
8
Black
10
137.105
20
-124.751
11
137.088
21
-124.699
0
LINE
8
Black
10
137.088
20
-124.699
11
137.069
21
-124.648
0
LINE
8
Black
10
137.069
20
-124.648
11
137.069
21
-124.642
0
LINE
8
Black
10
137.069
20
-124.642
11
137.067
21
-124.636
0
LINE
8
Black
10
137.067
20
-124.636
11
137.069
21
-124.581
0
LINE
8
Black
10
137.069
20
-124.581
11
137.069
21
-124.526
0
LINE
8
Black
10
137.069
20
-124.526
11
137.071
21
-124.52
0
LINE
8
Black
10
137.071
20
-124.52
11
137.072
21
-124.514
0
LINE
8
Black
10
137.072
20
-124.514
11
137.092
21
-124.463
0
LINE
8
Black
10
137.092
20
-124.463
11
137.111
21
-124.412
0
LINE
8
Black
10
137.111
20
-124.412
11
137.115
21
-124.407
0
LINE
8
Black
10
137.115
20
-124.407
11
137.117
21
-124.402
0
LINE
8
Black
10
137.117
20
-124.402
11
137.16
21
-124.333
0
LINE
8
Black
10
137.16
20
-124.333
11
137.16
21
-124.016
0
LINE
8
Black
10
137.16
20
-124.016
11
137.358
21
-124.016
0
LINE
8
Black
10
137.358
20
-124.016
11
137.498
21
-123.792
0
LINE
8
Black
10
137.498
20
-123.792
11
137.456
21
-123.676
0
LINE
8
Black
10
137.456
20
-123.676
11
137.456
21
-123.466
0
LINE
8
Black
10
137.456
20
-123.466
11
137.527
21
-123.27
0
LINE
8
Black
10
137.527
20
-123.27
11
137.662
21
-123.11
0
LINE
8
Black
10
137.662
20
-123.11
11
137.843
21
-123.005
0
LINE
8
Black
10
137.843
20
-123.005
11
138.049
21
-122.969
0
LINE
8
Black
10
138.049
20
-122.969
11
138.255
21
-123.005
0
LINE
8
Black
10
138.255
20
-124.137
11
138.09
21
-124.166
0
LINE
8
Black
10
138.09
20
-124.166
11
138.045
21
-124.237
0
LINE
8
Black
10
138.045
20
-124.237
11
138.43
21
-124.237
0
LINE
8
Black
10
138.43
20
-124.237
11
138.43
21
-124.036
0
LINE
8
Black
10
138.43
20
-124.036
11
138.255
21
-124.137
0
LINE
8
Black
10
134.366
20
-122.283
11
133.981
21
-122.283
0
LINE
8
Black
10
133.981
20
-122.283
11
133.981
21
-123.34
0
LINE
8
Black
10
133.981
20
-123.34
11
134.978
21
-124.337
0
LINE
8
Black
10
134.978
20
-124.337
11
135.89
21
-124.337
0
LINE
8
Black
10
135.89
20
-124.337
11
135.89
21
-124.016
0
LINE
8
Black
10
135.89
20
-124.016
11
136.398
21
-124.016
0
LINE
8
Black
10
136.398
20
-124.016
11
136.398
21
-125.159
0
LINE
8
Black
10
136.398
20
-125.159
11
135.89
21
-125.159
0
LINE
8
Black
10
135.89
20
-125.159
11
135.89
21
-124.837
0
LINE
8
Black
10
135.89
20
-124.837
11
134.874
21
-124.837
0
LINE
8
Black
10
134.874
20
-124.837
11
134.863
21
-124.835
0
LINE
8
Black
10
134.863
20
-124.835
11
134.852
21
-124.836
0
LINE
8
Black
10
134.852
20
-124.836
11
134.821
21
-124.828
0
LINE
8
Black
10
134.821
20
-124.828
11
134.788
21
-124.822
0
LINE
8
Black
10
134.788
20
-124.822
11
134.779
21
-124.816
0
LINE
8
Black
10
134.779
20
-124.816
11
134.768
21
-124.814
0
LINE
8
Black
10
134.768
20
-124.814
11
134.742
21
-124.795
0
LINE
8
Black
10
134.742
20
-124.795
11
134.713
21
-124.779
0
LINE
8
Black
10
134.713
20
-124.779
11
134.706
21
-124.77
0
LINE
8
Black
10
134.706
20
-124.77
11
134.697
21
-124.764
0
LINE
8
Black
10
134.697
20
-124.764
11
133.554
21
-123.621
0
LINE
8
Black
10
133.554
20
-123.621
11
133.548
21
-123.612
0
LINE
8
Black
10
133.548
20
-123.612
11
133.539
21
-123.605
0
LINE
8
Black
10
133.539
20
-123.605
11
133.523
21
-123.576
0
LINE
8
Black
10
133.523
20
-123.576
11
133.504
21
-123.55
0
LINE
8
Black
10
133.504
20
-123.55
11
133.502
21
-123.539
0
LINE
8
Black
10
133.502
20
-123.539
11
133.496
21
-123.53
0
LINE
8
Black
10
133.496
20
-123.53
11
133.49
21
-123.497
0
LINE
8
Black
10
133.49
20
-123.497
11
133.482
21
-123.466
0
LINE
8
Black
10
133.482
20
-123.466
11
133.483
21
-123.455
0
LINE
8
Black
10
133.483
20
-123.455
11
133.481
21
-123.444
0
LINE
8
Black
10
133.481
20
-123.444
11
133.481
21
-122.283
0
LINE
8
Black
10
133.481
20
-122.283
11
133.096
21
-122.283
0
LINE
8
Black
10
133.096
20
-122.283
11
133.096
21
-121.313
0
LINE
8
Black
10
133.096
20
-121.313
11
134.366
21
-121.313
0
LINE
8
Black
10
134.366
20
-121.313
11
134.366
21
-122.283
0
LINE
8
Black
10
133.419
20
-112.825
11
133.319
21
-112.825
0
LINE
8
Black
10
133.319
20
-112.825
11
133.319
21
-117.584
0
LINE
8
Black
10
133.319
20
-117.584
11
133.622
21
-117.887
0
LINE
8
Black
10
133.622
20
-117.887
11
135.89
21
-117.887
0
LINE
8
Black
10
135.89
20
-117.887
11
135.89
21
-117.666
0
LINE
8
Black
10
135.89
20
-117.666
11
136.398
21
-117.666
0
LINE
8
Black
10
136.398
20
-117.666
11
136.398
21
-118
0
LINE
8
Black
10
136.398
20
-118
11
136.412
21
-118.012
0
LINE
8
Black
10
136.412
20
-118.012
11
136.427
21
-118.039
0
LINE
8
Black
10
136.427
20
-118.039
11
136.447
21
-118.062
0
LINE
8
Black
10
136.447
20
-118.062
11
136.458
21
-118.091
0
LINE
8
Black
10
136.458
20
-118.091
11
136.473
21
-118.117
0
LINE
8
Black
10
136.473
20
-118.117
11
136.478
21
-118.147
0
LINE
8
Black
10
136.478
20
-118.147
11
136.489
21
-118.176
0
LINE
8
Black
10
136.489
20
-118.176
11
136.489
21
-118.207
0
LINE
8
Black
10
136.489
20
-118.207
11
136.494
21
-118.237
0
LINE
8
Black
10
136.494
20
-118.237
11
136.494
21
-119.616
0
LINE
8
Black
10
136.494
20
-119.616
11
136.797
21
-119.919
0
LINE
8
Black
10
136.797
20
-119.919
11
139.301
21
-119.919
0
LINE
8
Black
10
139.301
20
-119.919
11
139.604
21
-119.616
0
LINE
8
Black
10
139.604
20
-119.616
11
139.604
21
-118.237
0
LINE
8
Black
10
139.604
20
-118.237
11
139.604
21
-115.984
0
LINE
8
Black
10
139.604
20
-115.984
11
139.625
21
-115.864
0
LINE
8
Black
10
139.625
20
-115.864
11
139.654
21
-115.814
0
LINE
8
Black
10
139.654
20
-115.814
11
139.654
21
-115.209
0
LINE
8
Black
10
139.654
20
-115.209
11
140.254
21
-115.209
0
LINE
8
Black
10
140.254
20
-115.209
11
140.254
21
-115.814
0
LINE
8
Black
10
140.254
20
-115.814
11
140.283
21
-115.864
0
LINE
8
Black
10
140.283
20
-115.864
11
140.304
21
-115.984
0
LINE
8
Black
10
140.304
20
-115.984
11
140.304
21
-117.887
0
LINE
8
Black
10
140.304
20
-117.887
11
140.87
21
-117.887
0
LINE
8
Black
10
140.87
20
-117.887
11
140.964
21
-117.776
0
LINE
8
Black
10
140.964
20
-117.776
11
141.145
21
-117.671
0
LINE
8
Black
10
141.145
20
-117.671
11
141.351
21
-117.635
0
LINE
8
Black
10
141.351
20
-117.635
11
141.557
21
-117.671
0
LINE
8
Black
10
141.557
20
-117.671
11
141.738
21
-117.776
0
LINE
8
Black
10
141.738
20
-117.776
11
141.873
21
-117.936
0
LINE
8
Black
10
141.873
20
-117.936
11
141.944
21
-118.132
0
LINE
8
Black
10
141.944
20
-118.132
11
141.944
21
-118.342
0
LINE
8
Black
10
141.944
20
-118.342
11
141.873
21
-118.538
0
LINE
8
Black
10
141.873
20
-118.538
11
141.738
21
-118.698
0
LINE
8
Black
10
141.738
20
-118.698
11
141.557
21
-118.803
0
LINE
8
Black
10
141.557
20
-118.803
11
141.351
21
-118.839
0
LINE
8
Black
10
141.351
20
-118.839
11
141.145
21
-118.803
0
LINE
8
Black
10
141.145
20
-118.803
11
140.964
21
-118.698
0
LINE
8
Black
10
140.964
20
-118.698
11
140.87
21
-118.587
0
LINE
8
Black
10
140.87
20
-118.587
11
140.304
21
-118.587
0
LINE
8
Black
10
140.304
20
-118.587
11
140.304
21
-119.761
0
LINE
8
Black
10
140.304
20
-119.761
11
140.301
21
-119.776
0
LINE
8
Black
10
140.301
20
-119.776
11
140.303
21
-119.792
0
LINE
8
Black
10
140.303
20
-119.792
11
140.291
21
-119.836
0
LINE
8
Black
10
140.291
20
-119.836
11
140.283
21
-119.881
0
LINE
8
Black
10
140.283
20
-119.881
11
140.275
21
-119.894
0
LINE
8
Black
10
140.275
20
-119.894
11
140.271
21
-119.909
0
LINE
8
Black
10
140.271
20
-119.909
11
140.245
21
-119.946
0
LINE
8
Black
10
140.245
20
-119.946
11
140.222
21
-119.986
0
LINE
8
Black
10
140.222
20
-119.986
11
140.21
21
-119.996
0
LINE
8
Black
10
140.21
20
-119.996
11
140.201
21
-120.008
0
LINE
8
Black
10
140.201
20
-120.008
11
139.693
21
-120.516
0
LINE
8
Black
10
139.693
20
-120.516
11
139.681
21
-120.525
0
LINE
8
Black
10
139.681
20
-120.525
11
139.671
21
-120.537
0
LINE
8
Black
10
139.671
20
-120.537
11
139.631
21
-120.56
0
LINE
8
Black
10
139.631
20
-120.56
11
139.594
21
-120.586
0
LINE
8
Black
10
139.594
20
-120.586
11
139.579
21
-120.59
0
LINE
8
Black
10
139.579
20
-120.59
11
139.566
21
-120.598
0
LINE
8
Black
10
139.566
20
-120.598
11
139.521
21
-120.606
0
LINE
8
Black
10
139.521
20
-120.606
11
139.477
21
-120.618
0
LINE
8
Black
10
139.477
20
-120.618
11
139.461
21
-120.616
0
LINE
8
Black
10
139.461
20
-120.616
11
139.446
21
-120.619
0
LINE
8
Black
10
139.446
20
-120.619
11
136.652
21
-120.619
0
LINE
8
Black
10
136.652
20
-120.619
11
136.637
21
-120.616
0
LINE
8
Black
10
136.637
20
-120.616
11
136.621
21
-120.618
0
LINE
8
Black
10
136.621
20
-120.618
11
136.577
21
-120.606
0
LINE
8
Black
10
136.577
20
-120.606
11
136.532
21
-120.598
0
LINE
8
Black
10
136.532
20
-120.598
11
136.519
21
-120.59
0
LINE
8
Black
10
136.519
20
-120.59
11
136.504
21
-120.586
0
LINE
8
Black
10
136.504
20
-120.586
11
136.467
21
-120.56
0
LINE
8
Black
10
136.467
20
-120.56
11
136.427
21
-120.537
0
LINE
8
Black
10
136.427
20
-120.537
11
136.417
21
-120.525
0
LINE
8
Black
10
136.417
20
-120.525
11
136.405
21
-120.516
0
LINE
8
Black
10
136.405
20
-120.516
11
135.897
21
-120.008
0
LINE
8
Black
10
135.897
20
-120.008
11
135.888
21
-119.996
0
LINE
8
Black
10
135.888
20
-119.996
11
135.876
21
-119.986
0
LINE
8
Black
10
135.876
20
-119.986
11
135.853
21
-119.946
0
LINE
8
Black
10
135.853
20
-119.946
11
135.827
21
-119.909
0
LINE
8
Black
10
135.827
20
-119.909
11
135.823
21
-119.894
0
LINE
8
Black
10
135.823
20
-119.894
11
135.815
21
-119.881
0
LINE
8
Black
10
135.815
20
-119.881
11
135.807
21
-119.836
0
LINE
8
Black
10
135.807
20
-119.836
11
135.795
21
-119.792
0
LINE
8
Black
10
135.795
20
-119.792
11
135.797
21
-119.776
0
LINE
8
Black
10
135.797
20
-119.776
11
135.794
21
-119.761
0
LINE
8
Black
10
135.794
20
-119.761
11
135.794
21
-118.587
0
LINE
8
Black
10
135.794
20
-118.587
11
133.477
21
-118.587
0
LINE
8
Black
10
133.477
20
-118.587
11
133.462
21
-118.584
0
LINE
8
Black
10
133.462
20
-118.584
11
133.446
21
-118.586
0
LINE
8
Black
10
133.446
20
-118.586
11
133.402
21
-118.574
0
LINE
8
Black
10
133.402
20
-118.574
11
133.357
21
-118.566
0
LINE
8
Black
10
133.357
20
-118.566
11
133.344
21
-118.558
0
LINE
8
Black
10
133.344
20
-118.558
11
133.329
21
-118.554
0
LINE
8
Black
10
133.329
20
-118.554
11
133.292
21
-118.528
0
LINE
8
Black
10
133.292
20
-118.528
11
133.252
21
-118.505
0
LINE
8
Black
10
133.252
20
-118.505
11
133.242
21
-118.493
0
LINE
8
Black
10
133.242
20
-118.493
11
133.23
21
-118.484
0
LINE
8
Black
10
133.23
20
-118.484
11
132.722
21
-117.976
0
LINE
8
Black
10
132.722
20
-117.976
11
132.713
21
-117.964
0
LINE
8
Black
10
132.713
20
-117.964
11
132.701
21
-117.954
0
LINE
8
Black
10
132.701
20
-117.954
11
132.678
21
-117.914
0
LINE
8
Black
10
132.678
20
-117.914
11
132.652
21
-117.877
0
LINE
8
Black
10
132.652
20
-117.877
11
132.648
21
-117.862
0
LINE
8
Black
10
132.648
20
-117.862
11
132.64
21
-117.849
0
LINE
8
Black
10
132.64
20
-117.849
11
132.632
21
-117.804
0
LINE
8
Black
10
132.632
20
-117.804
11
132.62
21
-117.76
0
LINE
8
Black
10
132.62
20
-117.76
11
132.622
21
-117.744
0
LINE
8
Black
10
132.622
20
-117.744
11
132.619
21
-117.729
0
LINE
8
Black
10
132.619
20
-117.729
11
132.619
21
-112.825
0
LINE
8
Black
10
132.619
20
-112.825
11
132.519
21
-112.825
0
LINE
8
Black
10
132.519
20
-112.825
11
132.519
21
-111.625
0
LINE
8
Black
10
132.519
20
-111.625
11
133.419
21
-111.625
0
LINE
8
Black
10
133.419
20
-111.625
11
133.419
21
-112.825
0
LINE
8
Black
10
138.984
20
-116.759
11
138.934
21
-116.759
0
LINE
8
Black
10
138.934
20
-116.759
11
138.934
21
-117.666
0
LINE
8
Black
10
138.934
20
-117.666
11
138.938
21
-117.666
0
LINE
8
Black
10
138.938
20
-117.666
11
138.938
21
-118.809
0
LINE
8
Black
10
138.938
20
-118.809
11
138.43
21
-118.809
0
LINE
8
Black
10
138.43
20
-118.809
11
138.43
21
-117.666
0
LINE
8
Black
10
138.43
20
-117.666
11
138.434
21
-117.666
0
LINE
8
Black
10
138.434
20
-117.666
11
138.434
21
-116.759
0
LINE
8
Black
10
138.434
20
-116.759
11
138.384
21
-116.759
0
LINE
8
Black
10
138.384
20
-116.759
11
138.384
21
-115.209
0
LINE
8
Black
10
138.384
20
-115.209
11
138.984
21
-115.209
0
LINE
8
Black
10
138.984
20
-115.209
11
138.984
21
-116.759
0
LINE
8
Black
10
137.714
20
-116.759
11
137.664
21
-116.759
0
LINE
8
Black
10
137.664
20
-116.759
11
137.664
21
-117.666
0
LINE
8
Black
10
137.664
20
-117.666
11
137.668
21
-117.666
0
LINE
8
Black
10
137.668
20
-117.666
11
137.668
21
-118.809
0
LINE
8
Black
10
137.668
20
-118.809
11
137.16
21
-118.809
0
LINE
8
Black
10
137.16
20
-118.809
11
137.16
21
-117.666
0
LINE
8
Black
10
137.16
20
-117.666
11
137.164
21
-117.666
0
LINE
8
Black
10
137.164
20
-117.666
11
137.164
21
-116.759
0
LINE
8
Black
10
137.164
20
-116.759
11
137.114
21
-116.759
0
LINE
8
Black
10
137.114
20
-116.759
11
137.114
21
-115.209
0
LINE
8
Black
10
137.114
20
-115.209
11
137.714
21
-115.209
0
LINE
8
Black
10
137.714
20
-115.209
11
137.714
21
-116.759
0
LINE
8
Black
10
136.444
20
-116.759
11
135.844
21
-116.759
0
LINE
8
Black
10
135.844
20
-116.759
11
135.844
21
-116.412
0
LINE
8
Black
10
135.844
20
-116.412
11
134.943
21
-116.412
0
LINE
8
Black
10
134.943
20
-116.412
11
134.943
21
-116.762
0
LINE
8
Black
10
134.943
20
-116.762
11
134.043
21
-116.762
0
LINE
8
Black
10
134.043
20
-116.762
11
134.043
21
-115.562
0
LINE
8
Black
10
134.043
20
-115.562
11
134.943
21
-115.562
0
LINE
8
Black
10
134.943
20
-115.562
11
134.943
21
-115.912
0
LINE
8
Black
10
134.943
20
-115.912
11
135.844
21
-115.912
0
LINE
8
Black
10
135.844
20
-115.912
11
135.844
21
-115.209
0
LINE
8
Black
10
135.844
20
-115.209
11
136.444
21
-115.209
0
LINE
8
Black
10
136.444
20
-115.209
11
136.444
21
-116.759
0
LINE
8
Black
10
138.984
20
-111.359
11
138.934
21
-111.359
0
LINE
8
Black
10
138.934
20
-111.359
11
138.934
21
-112.291
0
LINE
8
Black
10
138.934
20
-112.291
11
141.663
21
-115.02
0
LINE
8
Black
10
141.663
20
-115.02
11
141.663
21
-114.8
0
LINE
8
Black
10
141.663
20
-114.8
11
142.563
21
-114.8
0
LINE
8
Black
10
142.563
20
-114.8
11
142.563
21
-116
0
LINE
8
Black
10
142.563
20
-116
11
141.663
21
-116
0
LINE
8
Black
10
141.663
20
-116
11
141.663
21
-115.648
0
LINE
8
Black
10
141.663
20
-115.648
11
141.636
21
-115.641
0
LINE
8
Black
10
141.636
20
-115.641
11
141.603
21
-115.635
0
LINE
8
Black
10
141.603
20
-115.635
11
141.594
21
-115.629
0
LINE
8
Black
10
141.594
20
-115.629
11
141.583
21
-115.627
0
LINE
8
Black
10
141.583
20
-115.627
11
141.557
21
-115.608
0
LINE
8
Black
10
141.557
20
-115.608
11
141.528
21
-115.592
0
LINE
8
Black
10
141.528
20
-115.592
11
141.521
21
-115.583
0
LINE
8
Black
10
141.521
20
-115.583
11
141.512
21
-115.577
0
LINE
8
Black
10
141.512
20
-115.577
11
138.507
21
-112.572
0
LINE
8
Black
10
138.507
20
-112.572
11
138.501
21
-112.563
0
LINE
8
Black
10
138.501
20
-112.563
11
138.492
21
-112.556
0
LINE
8
Black
10
138.492
20
-112.556
11
138.476
21
-112.527
0
LINE
8
Black
10
138.476
20
-112.527
11
138.457
21
-112.501
0
LINE
8
Black
10
138.457
20
-112.501
11
138.455
21
-112.49
0
LINE
8
Black
10
138.455
20
-112.49
11
138.449
21
-112.481
0
LINE
8
Black
10
138.449
20
-112.481
11
138.443
21
-112.448
0
LINE
8
Black
10
138.443
20
-112.448
11
138.435
21
-112.417
0
LINE
8
Black
10
138.435
20
-112.417
11
138.436
21
-112.406
0
LINE
8
Black
10
138.436
20
-112.406
11
138.434
21
-112.395
0
LINE
8
Black
10
138.434
20
-112.395
11
138.434
21
-111.359
0
LINE
8
Black
10
138.434
20
-111.359
11
138.384
21
-111.359
0
LINE
8
Black
10
138.384
20
-111.359
11
138.384
21
-109.809
0
LINE
8
Black
10
138.384
20
-109.809
11
138.984
21
-109.809
0
LINE
8
Black
10
138.984
20
-109.809
11
138.984
21
-111.359
0
LINE
8
Black
10
136.444
20
-110.405
11
136.447
21
-110.409
0
LINE
8
Black
10
136.447
20
-110.409
11
136.489
21
-110.523
0
LINE
8
Black
10
136.489
20
-110.523
11
136.489
21
-110.645
0
LINE
8
Black
10
136.489
20
-110.645
11
136.447
21
-110.759
0
LINE
8
Black
10
136.447
20
-110.759
11
136.444
21
-110.763
0
LINE
8
Black
10
136.444
20
-110.763
11
136.444
21
-111.359
0
LINE
8
Black
10
136.444
20
-111.359
11
135.844
21
-111.359
0
LINE
8
Black
10
135.844
20
-111.359
11
135.844
21
-110.934
0
LINE
8
Black
10
135.844
20
-110.934
11
135.642
21
-110.934
0
LINE
8
Black
10
135.642
20
-110.934
11
135.548
21
-111.045
0
LINE
8
Black
10
135.548
20
-111.045
11
135.367
21
-111.15
0
LINE
8
Black
10
135.367
20
-111.15
11
135.161
21
-111.186
0
LINE
8
Black
10
135.161
20
-111.186
11
135.07
21
-111.17
0
LINE
8
Black
10
135.07
20
-111.17
11
134.843
21
-111.397
0
LINE
8
Black
10
134.843
20
-111.397
11
134.843
21
-113.362
0
LINE
8
Black
10
134.843
20
-113.362
11
134.943
21
-113.362
0
LINE
8
Black
10
134.943
20
-113.362
11
134.943
21
-114.562
0
LINE
8
Black
10
134.943
20
-114.562
11
134.043
21
-114.562
0
LINE
8
Black
10
134.043
20
-114.562
11
134.043
21
-113.362
0
LINE
8
Black
10
134.043
20
-113.362
11
134.143
21
-113.362
0
LINE
8
Black
10
134.143
20
-113.362
11
134.143
21
-111.252
0
LINE
8
Black
10
134.143
20
-111.252
11
134.146
21
-111.237
0
LINE
8
Black
10
134.146
20
-111.237
11
134.144
21
-111.221
0
LINE
8
Black
10
134.144
20
-111.221
11
134.156
21
-111.177
0
LINE
8
Black
10
134.156
20
-111.177
11
134.164
21
-111.132
0
LINE
8
Black
10
134.164
20
-111.132
11
134.172
21
-111.119
0
LINE
8
Black
10
134.172
20
-111.119
11
134.176
21
-111.104
0
LINE
8
Black
10
134.176
20
-111.104
11
134.202
21
-111.067
0
LINE
8
Black
10
134.202
20
-111.067
11
134.225
21
-111.027
0
LINE
8
Black
10
134.225
20
-111.027
11
134.237
21
-111.017
0
LINE
8
Black
10
134.237
20
-111.017
11
134.246
21
-111.005
0
LINE
8
Black
10
134.246
20
-111.005
11
134.568
21
-110.682
0
LINE
8
Black
10
134.568
20
-110.682
11
134.568
21
-110.479
0
LINE
8
Black
10
134.568
20
-110.479
11
134.639
21
-110.283
0
LINE
8
Black
10
134.639
20
-110.283
11
134.774
21
-110.123
0
LINE
8
Black
10
134.774
20
-110.123
11
134.955
21
-110.018
0
LINE
8
Black
10
134.955
20
-110.018
11
135.161
21
-109.982
0
LINE
8
Black
10
135.161
20
-109.982
11
135.367
21
-110.018
0
LINE
8
Black
10
135.367
20
-110.018
11
135.548
21
-110.123
0
LINE
8
Black
10
135.548
20
-110.123
11
135.642
21
-110.234
0
LINE
8
Black
10
135.642
20
-110.234
11
135.844
21
-110.234
0
LINE
8
Black
10
135.844
20
-110.234
11
135.844
21
-109.809
0
LINE
8
Black
10
135.844
20
-109.809
11
136.444
21
-109.809
0
LINE
8
Black
10
136.444
20
-109.809
11
136.444
21
-110.405
0
LINE
8
Black
10
142.713
20
-111.682
11
142.363
21
-111.682
0
LINE
8
Black
10
142.363
20
-111.682
11
142.363
21
-112.6
0
LINE
8
Black
10
142.363
20
-112.6
11
142.563
21
-112.6
0
LINE
8
Black
10
142.563
20
-112.6
11
142.563
21
-113.8
0
LINE
8
Black
10
142.563
20
-113.8
11
141.663
21
-113.8
0
LINE
8
Black
10
141.663
20
-113.8
11
141.663
21
-112.6
0
LINE
8
Black
10
141.663
20
-112.6
11
141.863
21
-112.6
0
LINE
8
Black
10
141.863
20
-112.6
11
141.863
21
-111.682
0
LINE
8
Black
10
141.863
20
-111.682
11
141.513
21
-111.682
0
LINE
8
Black
10
141.513
20
-111.682
11
141.513
21
-110.482
0
LINE
8
Black
10
141.513
20
-110.482
11
142.713
21
-110.482
0
LINE
8
Black
10
142.713
20
-110.482
11
142.713
21
-111.682
0
LINE
8
Black
10
135.364
20
-108.208
11
136.144
21
-108.208
0
LINE
8
Black
10
136.144
20
-108.208
11
136.155
21
-108.21
0
LINE
8
Black
10
136.155
20
-108.21
11
136.166
21
-108.209
0
LINE
8
Black
10
136.166
20
-108.209
11
136.197
21
-108.217
0
LINE
8
Black
10
136.197
20
-108.217
11
136.23
21
-108.223
0
LINE
8
Black
10
136.23
20
-108.223
11
136.239
21
-108.229
0
LINE
8
Black
10
136.239
20
-108.229
11
136.25
21
-108.231
0
LINE
8
Black
10
136.25
20
-108.231
11
136.276
21
-108.25
0
LINE
8
Black
10
136.276
20
-108.25
11
136.305
21
-108.266
0
LINE
8
Black
10
136.305
20
-108.266
11
136.312
21
-108.275
0
LINE
8
Black
10
136.312
20
-108.275
11
136.321
21
-108.281
0
LINE
8
Black
10
136.321
20
-108.281
11
137.591
21
-109.551
0
LINE
8
Black
10
137.591
20
-109.551
11
137.597
21
-109.56
0
LINE
8
Black
10
137.597
20
-109.56
11
137.606
21
-109.567
0
LINE
8
Black
10
137.606
20
-109.567
11
137.622
21
-109.596
0
LINE
8
Black
10
137.622
20
-109.596
11
137.641
21
-109.622
0
LINE
8
Black
10
137.641
20
-109.622
11
137.643
21
-109.633
0
LINE
8
Black
10
137.643
20
-109.633
11
137.649
21
-109.642
0
LINE
8
Black
10
137.649
20
-109.642
11
137.655
21
-109.675
0
LINE
8
Black
10
137.655
20
-109.675
11
137.663
21
-109.706
0
LINE
8
Black
10
137.663
20
-109.706
11
137.662
21
-109.717
0
LINE
8
Black
10
137.662
20
-109.717
11
137.664
21
-109.728
0
LINE
8
Black
10
137.664
20
-109.728
11
137.664
21
-109.809
0
LINE
8
Black
10
137.664
20
-109.809
11
137.714
21
-109.809
0
LINE
8
Black
10
137.714
20
-109.809
11
137.714
21
-111.359
0
LINE
8
Black
10
137.714
20
-111.359
11
137.114
21
-111.359
0
LINE
8
Black
10
137.114
20
-111.359
11
137.114
21
-109.809
0
LINE
8
Black
10
137.114
20
-109.809
11
137.141
21
-109.809
0
LINE
8
Black
10
137.141
20
-109.809
11
136.04
21
-108.708
0
LINE
8
Black
10
136.04
20
-108.708
11
135.364
21
-108.708
0
LINE
8
Black
10
135.364
20
-108.708
11
135.364
21
-108.712
0
LINE
8
Black
10
135.364
20
-108.712
11
134.394
21
-108.712
0
LINE
8
Black
10
134.394
20
-108.712
11
134.394
21
-107.442
0
LINE
8
Black
10
134.394
20
-107.442
11
135.364
21
-107.442
0
LINE
8
Black
10
135.364
20
-107.442
11
135.364
21
-108.208
0
LINE
8
Black
10
138.28
20
-107.95
11
138.045
21
-107.95
0
LINE
8
Black
10
138.045
20
-107.95
11
138.045
21
-108.481
0
LINE
8
Black
10
138.045
20
-108.481
11
138.153
21
-108.589
0
LINE
8
Black
10
138.153
20
-108.589
11
139.573
21
-108.589
0
LINE
8
Black
10
139.573
20
-108.589
11
139.58
21
-108.59
0
LINE
8
Black
10
139.58
20
-108.59
11
139.588
21
-108.589
0
LINE
8
Black
10
139.588
20
-108.589
11
139.623
21
-108.598
0
LINE
8
Black
10
139.623
20
-108.598
11
139.659
21
-108.604
0
LINE
8
Black
10
139.659
20
-108.604
11
139.665
21
-108.608
0
LINE
8
Black
10
139.665
20
-108.608
11
139.672
21
-108.61
0
LINE
8
Black
10
139.672
20
-108.61
11
139.702
21
-108.629
0
LINE
8
Black
10
139.702
20
-108.629
11
139.734
21
-108.647
0
LINE
8
Black
10
139.734
20
-108.647
11
139.739
21
-108.653
0
LINE
8
Black
10
139.739
20
-108.653
11
139.745
21
-108.657
0
LINE
8
Black
10
139.745
20
-108.657
11
139.766
21
-108.686
0
LINE
8
Black
10
139.766
20
-108.686
11
139.79
21
-108.714
0
LINE
8
Black
10
139.79
20
-108.714
11
139.792
21
-108.721
0
LINE
8
Black
10
139.792
20
-108.721
11
139.797
21
-108.727
0
LINE
8
Black
10
139.797
20
-108.727
11
140.178
21
-109.489
0
LINE
8
Black
10
140.178
20
-109.489
11
140.182
21
-109.503
0
LINE
8
Black
10
140.182
20
-109.503
11
140.189
21
-109.515
0
LINE
8
Black
10
140.189
20
-109.515
11
140.194
21
-109.544
0
LINE
8
Black
10
140.194
20
-109.544
11
140.202
21
-109.572
0
LINE
8
Black
10
140.202
20
-109.572
11
140.201
21
-109.587
0
LINE
8
Black
10
140.201
20
-109.587
11
140.204
21
-109.601
0
LINE
8
Black
10
140.204
20
-109.601
11
140.204
21
-109.809
0
LINE
8
Black
10
140.204
20
-109.809
11
140.254
21
-109.809
0
LINE
8
Black
10
140.254
20
-109.809
11
140.254
21
-111.359
0
LINE
8
Black
10
140.254
20
-111.359
11
139.654
21
-111.359
0
LINE
8
Black
10
139.654
20
-111.359
11
139.654
21
-109.809
0
LINE
8
Black
10
139.654
20
-109.809
11
139.704
21
-109.809
0
LINE
8
Black
10
139.704
20
-109.809
11
139.704
21
-109.66
0
LINE
8
Black
10
139.704
20
-109.66
11
139.418
21
-109.089
0
LINE
8
Black
10
139.418
20
-109.089
11
138.049
21
-109.089
0
LINE
8
Black
10
138.049
20
-109.089
11
138.038
21
-109.087
0
LINE
8
Black
10
138.038
20
-109.087
11
138.027
21
-109.088
0
LINE
8
Black
10
138.027
20
-109.088
11
137.996
21
-109.08
0
LINE
8
Black
10
137.996
20
-109.08
11
137.963
21
-109.074
0
LINE
8
Black
10
137.963
20
-109.074
11
137.954
21
-109.068
0
LINE
8
Black
10
137.954
20
-109.068
11
137.943
21
-109.066
0
LINE
8
Black
10
137.943
20
-109.066
11
137.917
21
-109.047
0
LINE
8
Black
10
137.917
20
-109.047
11
137.888
21
-109.031
0
LINE
8
Black
10
137.888
20
-109.031
11
137.881
21
-109.022
0
LINE
8
Black
10
137.881
20
-109.022
11
137.872
21
-109.016
0
LINE
8
Black
10
137.872
20
-109.016
11
137.618
21
-108.762
0
LINE
8
Black
10
137.618
20
-108.762
11
137.612
21
-108.753
0
LINE
8
Black
10
137.612
20
-108.753
11
137.603
21
-108.746
0
LINE
8
Black
10
137.603
20
-108.746
11
137.587
21
-108.717
0
LINE
8
Black
10
137.587
20
-108.717
11
137.568
21
-108.691
0
LINE
8
Black
10
137.568
20
-108.691
11
137.566
21
-108.68
0
LINE
8
Black
10
137.566
20
-108.68
11
137.56
21
-108.671
0
LINE
8
Black
10
137.56
20
-108.671
11
137.554
21
-108.638
0
LINE
8
Black
10
137.554
20
-108.638
11
137.546
21
-108.607
0
LINE
8
Black
10
137.546
20
-108.607
11
137.547
21
-108.596
0
LINE
8
Black
10
137.547
20
-108.596
11
137.545
21
-108.585
0
LINE
8
Black
10
137.545
20
-108.585
11
137.545
21
-107.95
0
LINE
8
Black
10
137.545
20
-107.95
11
137.31
21
-107.95
0
LINE
8
Black
10
137.31
20
-107.95
11
137.31
21
-106.68
0
LINE
8
Black
10
137.31
20
-106.68
11
138.28
21
-106.68
0
LINE
8
Black
10
138.28
20
-106.68
11
138.28
21
-107.95
0
LINE
8
Black
10
134.084
20
-108.712
11
133.318
21
-108.712
0
LINE
8
Black
10
133.318
20
-108.712
11
133.219
21
-108.811
0
LINE
8
Black
10
133.219
20
-108.811
11
133.219
21
-109.425
0
LINE
8
Black
10
133.219
20
-109.425
11
133.419
21
-109.425
0
LINE
8
Black
10
133.419
20
-109.425
11
133.419
21
-110.625
0
LINE
8
Black
10
133.419
20
-110.625
11
132.519
21
-110.625
0
LINE
8
Black
10
132.519
20
-110.625
11
132.519
21
-109.425
0
LINE
8
Black
10
132.519
20
-109.425
11
132.719
21
-109.425
0
LINE
8
Black
10
132.719
20
-109.425
11
132.719
21
-108.707
0
LINE
8
Black
10
132.719
20
-108.707
11
132.721
21
-108.696
0
LINE
8
Black
10
132.721
20
-108.696
11
132.72
21
-108.685
0
LINE
8
Black
10
132.72
20
-108.685
11
132.728
21
-108.654
0
LINE
8
Black
10
132.728
20
-108.654
11
132.734
21
-108.621
0
LINE
8
Black
10
132.734
20
-108.621
11
132.74
21
-108.612
0
LINE
8
Black
10
132.74
20
-108.612
11
132.742
21
-108.601
0
LINE
8
Black
10
132.742
20
-108.601
11
132.761
21
-108.575
0
LINE
8
Black
10
132.761
20
-108.575
11
132.777
21
-108.546
0
LINE
8
Black
10
132.777
20
-108.546
11
132.786
21
-108.539
0
LINE
8
Black
10
132.786
20
-108.539
11
132.792
21
-108.53
0
LINE
8
Black
10
132.792
20
-108.53
11
133.114
21
-108.208
0
LINE
8
Black
10
133.114
20
-108.208
11
133.114
21
-107.442
0
LINE
8
Black
10
133.114
20
-107.442
11
134.084
21
-107.442
0
LINE
8
Black
10
134.084
20
-107.442
11
134.084
21
-108.712
0
LINE
8
Black
10
140.82
20
-107.25
11
141.393
21
-107.699
0
LINE
8
Black
10
141.393
20
-107.699
11
141.393
21
-107.591
0
LINE
8
Black
10
141.393
20
-107.591
11
141.464
21
-107.395
0
LINE
8
Black
10
141.464
20
-107.395
11
141.599
21
-107.235
0
LINE
8
Black
10
141.599
20
-107.235
11
141.78
21
-107.13
0
LINE
8
Black
10
141.78
20
-107.13
11
141.986
21
-107.094
0
LINE
8
Black
10
141.986
20
-107.094
11
142.192
21
-107.13
0
LINE
8
Black
10
142.192
20
-107.13
11
142.373
21
-107.235
0
LINE
8
Black
10
142.373
20
-107.235
11
142.508
21
-107.395
0
LINE
8
Black
10
142.508
20
-107.395
11
142.579
21
-107.591
0
LINE
8
Black
10
142.579
20
-107.591
11
142.579
21
-107.801
0
LINE
8
Black
10
142.579
20
-107.801
11
142.508
21
-107.997
0
LINE
8
Black
10
142.508
20
-107.997
11
142.373
21
-108.157
0
LINE
8
Black
10
142.373
20
-108.157
11
142.192
21
-108.262
0
LINE
8
Black
10
142.192
20
-108.262
11
142.078
21
-108.282
0
LINE
8
Black
10
142.078
20
-108.282
11
142.713
21
-108.282
0
LINE
8
Black
10
142.713
20
-108.282
11
142.713
21
-109.482
0
LINE
8
Black
10
142.713
20
-109.482
11
141.513
21
-109.482
0
LINE
8
Black
10
141.513
20
-109.482
11
141.513
21
-108.777
0
LINE
8
Black
10
141.513
20
-108.777
11
141.076
21
-108.339
0
LINE
8
Black
10
141.076
20
-108.339
11
140.578
21
-107.95
0
LINE
8
Black
10
140.578
20
-107.95
11
139.85
21
-107.95
0
LINE
8
Black
10
139.85
20
-107.95
11
139.85
21
-106.68
0
LINE
8
Black
10
139.85
20
-106.68
11
140.82
21
-106.68
0
LINE
8
Black
10
140.82
20
-106.68
11
140.82
21
-107.25
0
LINE
8
Black
10
139.55
20
-107.95
11
138.58
21
-107.95
0
LINE
8
Black
10
138.58
20
-107.95
11
138.58
21
-106.68
0
LINE
8
Black
10
138.58
20
-106.68
11
139.55
21
-106.68
0
LINE
8
Black
10
139.55
20
-106.68
11
139.55
21
-107.95
0
CIRCLE
8
Black
10
138.049
20
-123.571
40
0.4
0
CIRCLE
8
Black
10
135.161
20
-110.584
40
0.4
0
CIRCLE
8
Black
10
141.986
20
-107.696
40
0.4
0
CIRCLE
8
Black
10
141.351
20
-118.237
40
0.4
  0
ENDSEC
  0
EOF
