  0
SECTION
  2
HEADER
  9
$ANGBASE
  50
0.0
  9
$ANGDIR
  70
  1
  9
$MEASUREMENT
  70
0
  0
ENDSEC
  0
SECTION
  2
TABLES
  0
TABLE
  2
LTYPE
  70
1
  0
LTYPE
  2
CONTINUOUS
  70
0
  3
Solid line
  72
65
  73
0
  40
0.0
  0
ENDTAB
  0
TABLE
  2
STYLE
  70
4
  0
STYLE
  2
KICAD
  70
0
  40
0
  41
1
  42
1
  50
0
  71
0
  3
isocp.shx
  0
STYLE
  2
KICADB
  70
0
  40
0
  41
1
  42
1
  50
0
  71
0
  3
isocp.shx
  0
STYLE
  2
KICADI
  70
0
  40
0
  41
1
  42
1
  50
15
  71
0
  3
isocp.shx
  0
STYLE
  2
KICADBI
  70
0
  40
0
  41
1
  42
1
  50
15
  71
0
  3
isocp.shx
  0
ENDTAB
  0
TABLE
  2
LAYER
  70
30
  0
LAYER
  2
BLACK
  70
0
  62
7
  6
CONTINUOUS
  0
LAYER
  2
GRAY1
  70
0
  62
251
  6
CONTINUOUS
  0
LAYER
  2
GRAY2
  70
0
  62
8
  6
CONTINUOUS
  0
LAYER
  2
GRAY3
  70
0
  62
9
  6
CONTINUOUS
  0
LAYER
  2
WHITE
  70
0
  62
7
  6
CONTINUOUS
  0
LAYER
  2
LYELLOW
  70
0
  62
51
  6
CONTINUOUS
  0
LAYER
  2
BLUE1
  70
0
  62
178
  6
CONTINUOUS
  0
LAYER
  2
GREEN1
  70
0
  62
98
  6
CONTINUOUS
  0
LAYER
  2
CYAN1
  70
0
  62
138
  6
CONTINUOUS
  0
LAYER
  2
RED1
  70
0
  62
18
  6
CONTINUOUS
  0
LAYER
  2
MAGENTA1
  70
0
  62
228
  6
CONTINUOUS
  0
LAYER
  2
BROWN1
  70
0
  62
58
  6
CONTINUOUS
  0
LAYER
  2
BLUE2
  70
0
  62
5
  6
CONTINUOUS
  0
LAYER
  2
GREEN2
  70
0
  62
3
  6
CONTINUOUS
  0
LAYER
  2
CYAN2
  70
0
  62
4
  6
CONTINUOUS
  0
LAYER
  2
RED2
  70
0
  62
1
  6
CONTINUOUS
  0
LAYER
  2
MAGENTA2
  70
0
  62
6
  6
CONTINUOUS
  0
LAYER
  2
BROWN2
  70
0
  62
54
  6
CONTINUOUS
  0
LAYER
  2
BLUE3
  70
0
  62
171
  6
CONTINUOUS
  0
LAYER
  2
GREEN3
  70
0
  62
91
  6
CONTINUOUS
  0
LAYER
  2
CYAN3
  70
0
  62
131
  6
CONTINUOUS
  0
LAYER
  2
RED3
  70
0
  62
11
  6
CONTINUOUS
  0
LAYER
  2
MAGENTA3
  70
0
  62
221
  6
CONTINUOUS
  0
LAYER
  2
YELLOW3
  70
0
  62
2
  6
CONTINUOUS
  0
LAYER
  2
BLUE4
  70
0
  62
5
  6
CONTINUOUS
  0
LAYER
  2
GREEN4
  70
0
  62
3
  6
CONTINUOUS
  0
LAYER
  2
CYAN4
  70
0
  62
4
  6
CONTINUOUS
  0
LAYER
  2
RED4
  70
0
  62
1
  6
CONTINUOUS
  0
LAYER
  2
MAGENTA4
  70
0
  62
6
  6
CONTINUOUS
  0
LAYER
  2
YELLOW4
  70
0
  62
2
  6
CONTINUOUS
  0
ENDTAB
  0
ENDSEC
  0
SECTION
  2
ENTITIES
0
LINE
8
Black
10
143.262
20
-106.098
11
143.269
21
-106.098
0
LINE
8
Black
10
143.269
20
-106.098
11
143.275
21
-106.1
0
LINE
8
Black
10
143.275
20
-106.1
11
143.282
21
-106.102
0
LINE
8
Black
10
143.282
20
-106.102
11
143.287
21
-106.105
0
LINE
8
Black
10
143.287
20
-106.105
11
143.294
21
-106.107
0
LINE
8
Black
10
143.294
20
-106.107
11
143.299
21
-106.111
0
LINE
8
Black
10
143.299
20
-106.111
11
143.304
21
-106.115
0
LINE
8
Black
10
143.304
20
-106.115
11
143.308
21
-106.12
0
LINE
8
Black
10
143.308
20
-106.12
11
143.313
21
-106.124
0
LINE
8
Black
10
143.313
20
-106.124
11
143.317
21
-106.129
0
LINE
8
Black
10
143.317
20
-106.129
11
143.321
21
-106.135
0
LINE
8
Black
10
143.321
20
-106.135
11
143.323
21
-106.141
0
LINE
8
Black
10
143.323
20
-106.141
11
143.326
21
-106.146
0
LINE
8
Black
10
143.326
20
-106.146
11
143.328
21
-106.153
0
LINE
8
Black
10
143.328
20
-106.153
11
143.33
21
-106.159
0
LINE
8
Black
10
143.33
20
-106.159
11
143.33
21
-106.166
0
LINE
8
Black
10
143.33
20
-106.166
11
143.331
21
-106.172
0
LINE
8
Black
10
143.331
20
-106.172
11
143.331
21
-127.127
0
LINE
8
Black
10
143.331
20
-127.127
11
143.33
21
-127.133
0
LINE
8
Black
10
143.33
20
-127.133
11
143.33
21
-127.14
0
LINE
8
Black
10
143.33
20
-127.14
11
143.328
21
-127.146
0
LINE
8
Black
10
143.328
20
-127.146
11
143.326
21
-127.153
0
LINE
8
Black
10
143.326
20
-127.153
11
143.323
21
-127.158
0
LINE
8
Black
10
143.323
20
-127.158
11
143.321
21
-127.165
0
LINE
8
Black
10
143.321
20
-127.165
11
143.317
21
-127.17
0
LINE
8
Black
10
143.317
20
-127.17
11
143.313
21
-127.175
0
LINE
8
Black
10
143.313
20
-127.175
11
143.308
21
-127.179
0
LINE
8
Black
10
143.308
20
-127.179
11
143.304
21
-127.184
0
LINE
8
Black
10
143.304
20
-127.184
11
143.299
21
-127.188
0
LINE
8
Black
10
143.299
20
-127.188
11
143.294
21
-127.192
0
LINE
8
Black
10
143.294
20
-127.192
11
143.287
21
-127.194
0
LINE
8
Black
10
143.287
20
-127.194
11
143.282
21
-127.197
0
LINE
8
Black
10
143.282
20
-127.197
11
143.275
21
-127.199
0
LINE
8
Black
10
143.275
20
-127.199
11
143.269
21
-127.201
0
LINE
8
Black
10
143.269
20
-127.201
11
143.262
21
-127.201
0
LINE
8
Black
10
143.262
20
-127.201
11
143.256
21
-127.202
0
LINE
8
Black
10
143.256
20
-127.202
11
131.826
21
-127.202
0
LINE
8
Black
10
131.826
20
-127.202
11
131.82
21
-127.201
0
LINE
8
Black
10
131.82
20
-127.201
11
131.813
21
-127.201
0
LINE
8
Black
10
131.813
20
-127.201
11
131.807
21
-127.199
0
LINE
8
Black
10
131.807
20
-127.199
11
131.8
21
-127.197
0
LINE
8
Black
10
131.8
20
-127.197
11
131.795
21
-127.194
0
LINE
8
Black
10
131.795
20
-127.194
11
131.789
21
-127.192
0
LINE
8
Black
10
131.789
20
-127.192
11
131.783
21
-127.188
0
LINE
8
Black
10
131.783
20
-127.188
11
131.778
21
-127.184
0
LINE
8
Black
10
131.778
20
-127.184
11
131.774
21
-127.179
0
LINE
8
Black
10
131.774
20
-127.179
11
131.769
21
-127.175
0
LINE
8
Black
10
131.769
20
-127.175
11
131.765
21
-127.17
0
LINE
8
Black
10
131.765
20
-127.17
11
131.761
21
-127.165
0
LINE
8
Black
10
131.761
20
-127.165
11
131.759
21
-127.158
0
LINE
8
Black
10
131.759
20
-127.158
11
131.756
21
-127.153
0
LINE
8
Black
10
131.756
20
-127.153
11
131.754
21
-127.146
0
LINE
8
Black
10
131.754
20
-127.146
11
131.752
21
-127.14
0
LINE
8
Black
10
131.752
20
-127.14
11
131.752
21
-127.133
0
LINE
8
Black
10
131.752
20
-127.133
11
131.751
21
-127.127
0
LINE
8
Black
10
131.751
20
-127.127
11
131.751
21
-106.172
0
LINE
8
Black
10
131.751
20
-106.172
11
131.752
21
-106.166
0
LINE
8
Black
10
131.752
20
-106.166
11
131.752
21
-106.159
0
LINE
8
Black
10
131.752
20
-106.159
11
131.754
21
-106.153
0
LINE
8
Black
10
131.754
20
-106.153
11
131.756
21
-106.146
0
LINE
8
Black
10
131.756
20
-106.146
11
131.759
21
-106.141
0
LINE
8
Black
10
131.759
20
-106.141
11
131.761
21
-106.135
0
LINE
8
Black
10
131.761
20
-106.135
11
131.765
21
-106.129
0
LINE
8
Black
10
131.765
20
-106.129
11
131.769
21
-106.124
0
LINE
8
Black
10
131.769
20
-106.124
11
131.774
21
-106.12
0
LINE
8
Black
10
131.774
20
-106.12
11
131.778
21
-106.115
0
LINE
8
Black
10
131.778
20
-106.115
11
131.783
21
-106.111
0
LINE
8
Black
10
131.783
20
-106.111
11
131.789
21
-106.107
0
LINE
8
Black
10
131.789
20
-106.107
11
131.795
21
-106.105
0
LINE
8
Black
10
131.795
20
-106.105
11
131.8
21
-106.102
0
LINE
8
Black
10
131.8
20
-106.102
11
131.807
21
-106.1
0
LINE
8
Black
10
131.807
20
-106.1
11
131.813
21
-106.098
0
LINE
8
Black
10
131.813
20
-106.098
11
131.82
21
-106.098
0
LINE
8
Black
10
131.82
20
-106.098
11
131.826
21
-106.097
0
LINE
8
Black
10
131.826
20
-106.097
11
143.256
21
-106.097
0
LINE
8
Black
10
143.256
20
-106.097
11
143.262
21
-106.098
0
LINE
8
Black
10
131.901
20
-106.247
11
131.901
21
-127.052
0
LINE
8
Black
10
131.901
20
-127.052
11
143.181
21
-127.052
0
LINE
8
Black
10
143.181
20
-127.052
11
143.181
21
-106.247
0
LINE
8
Black
10
143.181
20
-106.247
11
131.901
21
-106.247
  0
ENDSEC
  0
EOF
