  0
SECTION
  2
HEADER
  9
$ANGBASE
  50
0.0
  9
$ANGDIR
  70
  1
  9
$MEASUREMENT
  70
0
  0
ENDSEC
  0
SECTION
  2
TABLES
  0
TABLE
  2
LTYPE
  70
1
  0
LTYPE
  2
CONTINUOUS
  70
0
  3
Solid line
  72
65
  73
0
  40
0.0
  0
ENDTAB
  0
TABLE
  2
STYLE
  70
4
  0
STYLE
  2
KICAD
  70
0
  40
0
  41
1
  42
1
  50
0
  71
0
  3
isocp.shx
  0
STYLE
  2
KICADB
  70
0
  40
0
  41
1
  42
1
  50
0
  71
0
  3
isocp.shx
  0
STYLE
  2
KICADI
  70
0
  40
0
  41
1
  42
1
  50
15
  71
0
  3
isocp.shx
  0
STYLE
  2
KICADBI
  70
0
  40
0
  41
1
  42
1
  50
15
  71
0
  3
isocp.shx
  0
ENDTAB
  0
TABLE
  2
LAYER
  70
30
  0
LAYER
  2
BLACK
  70
0
  62
7
  6
CONTINUOUS
  0
LAYER
  2
GRAY1
  70
0
  62
251
  6
CONTINUOUS
  0
LAYER
  2
GRAY2
  70
0
  62
8
  6
CONTINUOUS
  0
LAYER
  2
GRAY3
  70
0
  62
9
  6
CONTINUOUS
  0
LAYER
  2
WHITE
  70
0
  62
7
  6
CONTINUOUS
  0
LAYER
  2
LYELLOW
  70
0
  62
51
  6
CONTINUOUS
  0
LAYER
  2
BLUE1
  70
0
  62
178
  6
CONTINUOUS
  0
LAYER
  2
GREEN1
  70
0
  62
98
  6
CONTINUOUS
  0
LAYER
  2
CYAN1
  70
0
  62
138
  6
CONTINUOUS
  0
LAYER
  2
RED1
  70
0
  62
18
  6
CONTINUOUS
  0
LAYER
  2
MAGENTA1
  70
0
  62
228
  6
CONTINUOUS
  0
LAYER
  2
BROWN1
  70
0
  62
58
  6
CONTINUOUS
  0
LAYER
  2
BLUE2
  70
0
  62
5
  6
CONTINUOUS
  0
LAYER
  2
GREEN2
  70
0
  62
3
  6
CONTINUOUS
  0
LAYER
  2
CYAN2
  70
0
  62
4
  6
CONTINUOUS
  0
LAYER
  2
RED2
  70
0
  62
1
  6
CONTINUOUS
  0
LAYER
  2
MAGENTA2
  70
0
  62
6
  6
CONTINUOUS
  0
LAYER
  2
BROWN2
  70
0
  62
54
  6
CONTINUOUS
  0
LAYER
  2
BLUE3
  70
0
  62
171
  6
CONTINUOUS
  0
LAYER
  2
GREEN3
  70
0
  62
91
  6
CONTINUOUS
  0
LAYER
  2
CYAN3
  70
0
  62
131
  6
CONTINUOUS
  0
LAYER
  2
RED3
  70
0
  62
11
  6
CONTINUOUS
  0
LAYER
  2
MAGENTA3
  70
0
  62
221
  6
CONTINUOUS
  0
LAYER
  2
YELLOW3
  70
0
  62
2
  6
CONTINUOUS
  0
LAYER
  2
BLUE4
  70
0
  62
5
  6
CONTINUOUS
  0
LAYER
  2
GREEN4
  70
0
  62
3
  6
CONTINUOUS
  0
LAYER
  2
CYAN4
  70
0
  62
4
  6
CONTINUOUS
  0
LAYER
  2
RED4
  70
0
  62
1
  6
CONTINUOUS
  0
LAYER
  2
MAGENTA4
  70
0
  62
6
  6
CONTINUOUS
  0
LAYER
  2
YELLOW4
  70
0
  62
2
  6
CONTINUOUS
  0
ENDTAB
  0
ENDSEC
  0
SECTION
  2
ENTITIES
0
LINE
8
Black
10
143.262
20
-106.098
11
143.269
21
-106.098
0
LINE
8
Black
10
143.269
20
-106.098
11
143.275
21
-106.1
0
LINE
8
Black
10
143.275
20
-106.1
11
143.282
21
-106.102
0
LINE
8
Black
10
143.282
20
-106.102
11
143.287
21
-106.105
0
LINE
8
Black
10
143.287
20
-106.105
11
143.294
21
-106.107
0
LINE
8
Black
10
143.294
20
-106.107
11
143.299
21
-106.111
0
LINE
8
Black
10
143.299
20
-106.111
11
143.304
21
-106.115
0
LINE
8
Black
10
143.304
20
-106.115
11
143.308
21
-106.12
0
LINE
8
Black
10
143.308
20
-106.12
11
143.313
21
-106.124
0
LINE
8
Black
10
143.313
20
-106.124
11
143.317
21
-106.129
0
LINE
8
Black
10
143.317
20
-106.129
11
143.321
21
-106.135
0
LINE
8
Black
10
143.321
20
-106.135
11
143.323
21
-106.141
0
LINE
8
Black
10
143.323
20
-106.141
11
143.326
21
-106.146
0
LINE
8
Black
10
143.326
20
-106.146
11
143.328
21
-106.153
0
LINE
8
Black
10
143.328
20
-106.153
11
143.33
21
-106.159
0
LINE
8
Black
10
143.33
20
-106.159
11
143.33
21
-106.166
0
LINE
8
Black
10
143.33
20
-106.166
11
143.331
21
-106.172
0
LINE
8
Black
10
143.331
20
-106.172
11
143.331
21
-127.127
0
LINE
8
Black
10
143.331
20
-127.127
11
143.33
21
-127.133
0
LINE
8
Black
10
143.33
20
-127.133
11
143.33
21
-127.14
0
LINE
8
Black
10
143.33
20
-127.14
11
143.328
21
-127.146
0
LINE
8
Black
10
143.328
20
-127.146
11
143.326
21
-127.153
0
LINE
8
Black
10
143.326
20
-127.153
11
143.323
21
-127.158
0
LINE
8
Black
10
143.323
20
-127.158
11
143.321
21
-127.165
0
LINE
8
Black
10
143.321
20
-127.165
11
143.317
21
-127.17
0
LINE
8
Black
10
143.317
20
-127.17
11
143.313
21
-127.175
0
LINE
8
Black
10
143.313
20
-127.175
11
143.308
21
-127.179
0
LINE
8
Black
10
143.308
20
-127.179
11
143.304
21
-127.184
0
LINE
8
Black
10
143.304
20
-127.184
11
143.299
21
-127.188
0
LINE
8
Black
10
143.299
20
-127.188
11
143.294
21
-127.192
0
LINE
8
Black
10
143.294
20
-127.192
11
143.287
21
-127.194
0
LINE
8
Black
10
143.287
20
-127.194
11
143.282
21
-127.197
0
LINE
8
Black
10
143.282
20
-127.197
11
143.275
21
-127.199
0
LINE
8
Black
10
143.275
20
-127.199
11
143.269
21
-127.201
0
LINE
8
Black
10
143.269
20
-127.201
11
143.262
21
-127.201
0
LINE
8
Black
10
143.262
20
-127.201
11
143.256
21
-127.202
0
LINE
8
Black
10
143.256
20
-127.202
11
132.08
21
-127.202
0
LINE
8
Black
10
132.08
20
-127.202
11
132.074
21
-127.201
0
LINE
8
Black
10
132.074
20
-127.201
11
132.067
21
-127.201
0
LINE
8
Black
10
132.067
20
-127.201
11
132.061
21
-127.199
0
LINE
8
Black
10
132.061
20
-127.199
11
132.054
21
-127.197
0
LINE
8
Black
10
132.054
20
-127.197
11
132.049
21
-127.194
0
LINE
8
Black
10
132.049
20
-127.194
11
132.043
21
-127.192
0
LINE
8
Black
10
132.043
20
-127.192
11
132.037
21
-127.188
0
LINE
8
Black
10
132.037
20
-127.188
11
132.032
21
-127.184
0
LINE
8
Black
10
132.032
20
-127.184
11
132.028
21
-127.179
0
LINE
8
Black
10
132.028
20
-127.179
11
132.023
21
-127.175
0
LINE
8
Black
10
132.023
20
-127.175
11
132.019
21
-127.17
0
LINE
8
Black
10
132.019
20
-127.17
11
132.015
21
-127.165
0
LINE
8
Black
10
132.015
20
-127.165
11
132.013
21
-127.158
0
LINE
8
Black
10
132.013
20
-127.158
11
132.01
21
-127.153
0
LINE
8
Black
10
132.01
20
-127.153
11
132.008
21
-127.146
0
LINE
8
Black
10
132.008
20
-127.146
11
132.006
21
-127.14
0
LINE
8
Black
10
132.006
20
-127.14
11
132.006
21
-127.133
0
LINE
8
Black
10
132.006
20
-127.133
11
132.005
21
-127.127
0
LINE
8
Black
10
132.005
20
-127.127
11
132.005
21
-106.172
0
LINE
8
Black
10
132.005
20
-106.172
11
132.006
21
-106.166
0
LINE
8
Black
10
132.006
20
-106.166
11
132.006
21
-106.159
0
LINE
8
Black
10
132.006
20
-106.159
11
132.008
21
-106.153
0
LINE
8
Black
10
132.008
20
-106.153
11
132.01
21
-106.146
0
LINE
8
Black
10
132.01
20
-106.146
11
132.013
21
-106.141
0
LINE
8
Black
10
132.013
20
-106.141
11
132.015
21
-106.135
0
LINE
8
Black
10
132.015
20
-106.135
11
132.019
21
-106.129
0
LINE
8
Black
10
132.019
20
-106.129
11
132.023
21
-106.124
0
LINE
8
Black
10
132.023
20
-106.124
11
132.028
21
-106.12
0
LINE
8
Black
10
132.028
20
-106.12
11
132.032
21
-106.115
0
LINE
8
Black
10
132.032
20
-106.115
11
132.037
21
-106.111
0
LINE
8
Black
10
132.037
20
-106.111
11
132.043
21
-106.107
0
LINE
8
Black
10
132.043
20
-106.107
11
132.049
21
-106.105
0
LINE
8
Black
10
132.049
20
-106.105
11
132.054
21
-106.102
0
LINE
8
Black
10
132.054
20
-106.102
11
132.061
21
-106.1
0
LINE
8
Black
10
132.061
20
-106.1
11
132.067
21
-106.098
0
LINE
8
Black
10
132.067
20
-106.098
11
132.074
21
-106.098
0
LINE
8
Black
10
132.074
20
-106.098
11
132.08
21
-106.097
0
LINE
8
Black
10
132.08
20
-106.097
11
143.256
21
-106.097
0
LINE
8
Black
10
143.256
20
-106.097
11
143.262
21
-106.098
0
LINE
8
Black
10
132.155
20
-106.247
11
132.155
21
-127.052
0
LINE
8
Black
10
132.155
20
-127.052
11
143.181
21
-127.052
0
LINE
8
Black
10
143.181
20
-127.052
11
143.181
21
-106.247
0
LINE
8
Black
10
143.181
20
-106.247
11
132.155
21
-106.247
0
LINE
8
Black
10
138.255
20
-123.005
11
138.436
21
-123.11
0
LINE
8
Black
10
138.436
20
-123.11
11
138.571
21
-123.27
0
LINE
8
Black
10
138.571
20
-123.27
11
138.642
21
-123.466
0
LINE
8
Black
10
138.642
20
-123.466
11
138.642
21
-123.676
0
LINE
8
Black
10
138.642
20
-123.676
11
138.571
21
-123.872
0
LINE
8
Black
10
138.571
20
-123.872
11
138.45
21
-124.016
0
LINE
8
Black
10
138.45
20
-124.016
11
138.938
21
-124.016
0
LINE
8
Black
10
138.938
20
-124.016
11
138.938
21
-124.353
0
LINE
8
Black
10
138.938
20
-124.353
11
138.987
21
-124.412
0
LINE
8
Black
10
138.987
20
-124.412
11
139.029
21
-124.526
0
LINE
8
Black
10
139.029
20
-124.526
11
139.029
21
-124.648
0
LINE
8
Black
10
139.029
20
-124.648
11
138.987
21
-124.762
0
LINE
8
Black
10
138.987
20
-124.762
11
138.938
21
-124.821
0
LINE
8
Black
10
138.938
20
-124.821
11
138.938
21
-125.159
0
LINE
8
Black
10
138.938
20
-125.159
11
138.43
21
-125.159
0
LINE
8
Black
10
138.43
20
-125.159
11
138.43
21
-124.937
0
LINE
8
Black
10
138.43
20
-124.937
11
137.764
21
-124.937
0
LINE
8
Black
10
137.764
20
-124.937
11
137.764
21
-125.839
0
LINE
8
Black
10
137.764
20
-125.839
11
138.067
21
-126.142
0
LINE
8
Black
10
138.067
20
-126.142
11
140.317
21
-126.142
0
LINE
8
Black
10
140.317
20
-126.142
11
141.132
21
-125.327
0
LINE
8
Black
10
141.132
20
-125.327
11
141.132
21
-124.706
0
LINE
8
Black
10
141.132
20
-124.706
11
142.332
21
-124.706
0
LINE
8
Black
10
142.332
20
-124.706
11
142.332
21
-125.906
0
LINE
8
Black
10
142.332
20
-125.906
11
141.543
21
-125.906
0
LINE
8
Black
10
141.543
20
-125.906
11
140.709
21
-126.739
0
LINE
8
Black
10
140.709
20
-126.739
11
140.697
21
-126.748
0
LINE
8
Black
10
140.697
20
-126.748
11
140.687
21
-126.76
0
LINE
8
Black
10
140.687
20
-126.76
11
140.647
21
-126.783
0
LINE
8
Black
10
140.647
20
-126.783
11
140.61
21
-126.809
0
LINE
8
Black
10
140.61
20
-126.809
11
140.595
21
-126.813
0
LINE
8
Black
10
140.595
20
-126.813
11
140.582
21
-126.821
0
LINE
8
Black
10
140.582
20
-126.821
11
140.537
21
-126.829
0
LINE
8
Black
10
140.537
20
-126.829
11
140.493
21
-126.841
0
LINE
8
Black
10
140.493
20
-126.841
11
140.477
21
-126.839
0
LINE
8
Black
10
140.477
20
-126.839
11
140.462
21
-126.842
0
LINE
8
Black
10
140.462
20
-126.842
11
137.922
21
-126.842
0
LINE
8
Black
10
137.922
20
-126.842
11
137.907
21
-126.839
0
LINE
8
Black
10
137.907
20
-126.839
11
137.891
21
-126.841
0
LINE
8
Black
10
137.891
20
-126.841
11
137.847
21
-126.829
0
LINE
8
Black
10
137.847
20
-126.829
11
137.802
21
-126.821
0
LINE
8
Black
10
137.802
20
-126.821
11
137.789
21
-126.813
0
LINE
8
Black
10
137.789
20
-126.813
11
137.774
21
-126.809
0
LINE
8
Black
10
137.774
20
-126.809
11
137.737
21
-126.783
0
LINE
8
Black
10
137.737
20
-126.783
11
137.697
21
-126.76
0
LINE
8
Black
10
137.697
20
-126.76
11
137.687
21
-126.748
0
LINE
8
Black
10
137.687
20
-126.748
11
137.675
21
-126.739
0
LINE
8
Black
10
137.675
20
-126.739
11
137.167
21
-126.231
0
LINE
8
Black
10
137.167
20
-126.231
11
137.158
21
-126.219
0
LINE
8
Black
10
137.158
20
-126.219
11
137.146
21
-126.209
0
LINE
8
Black
10
137.146
20
-126.209
11
137.123
21
-126.169
0
LINE
8
Black
10
137.123
20
-126.169
11
137.097
21
-126.132
0
LINE
8
Black
10
137.097
20
-126.132
11
137.093
21
-126.117
0
LINE
8
Black
10
137.093
20
-126.117
11
137.085
21
-126.104
0
LINE
8
Black
10
137.085
20
-126.104
11
137.077
21
-126.059
0
LINE
8
Black
10
137.077
20
-126.059
11
137.065
21
-126.015
0
LINE
8
Black
10
137.065
20
-126.015
11
137.067
21
-125.999
0
LINE
8
Black
10
137.067
20
-125.999
11
137.064
21
-125.984
0
LINE
8
Black
10
137.064
20
-125.984
11
137.064
21
-124.587
0
LINE
8
Black
10
137.064
20
-124.587
11
137.069
21
-124.557
0
LINE
8
Black
10
137.069
20
-124.557
11
137.069
21
-124.526
0
LINE
8
Black
10
137.069
20
-124.526
11
137.071
21
-124.52
0
LINE
8
Black
10
137.071
20
-124.52
11
137.072
21
-124.514
0
LINE
8
Black
10
137.072
20
-124.514
11
137.081
21
-124.491
0
LINE
8
Black
10
137.081
20
-124.491
11
137.085
21
-124.467
0
LINE
8
Black
10
137.085
20
-124.467
11
137.1
21
-124.441
0
LINE
8
Black
10
137.1
20
-124.441
11
137.111
21
-124.412
0
LINE
8
Black
10
137.111
20
-124.412
11
137.115
21
-124.407
0
LINE
8
Black
10
137.115
20
-124.407
11
137.117
21
-124.402
0
LINE
8
Black
10
137.117
20
-124.402
11
137.16
21
-124.333
0
LINE
8
Black
10
137.16
20
-124.333
11
137.16
21
-124.016
0
LINE
8
Black
10
137.16
20
-124.016
11
137.358
21
-124.016
0
LINE
8
Black
10
137.358
20
-124.016
11
137.498
21
-123.792
0
LINE
8
Black
10
137.498
20
-123.792
11
137.456
21
-123.676
0
LINE
8
Black
10
137.456
20
-123.676
11
137.456
21
-123.466
0
LINE
8
Black
10
137.456
20
-123.466
11
137.527
21
-123.27
0
LINE
8
Black
10
137.527
20
-123.27
11
137.662
21
-123.11
0
LINE
8
Black
10
137.662
20
-123.11
11
137.843
21
-123.005
0
LINE
8
Black
10
137.843
20
-123.005
11
138.049
21
-122.969
0
LINE
8
Black
10
138.049
20
-122.969
11
138.255
21
-123.005
0
LINE
8
Black
10
138.255
20
-124.137
11
138.09
21
-124.166
0
LINE
8
Black
10
138.09
20
-124.166
11
138.045
21
-124.237
0
LINE
8
Black
10
138.045
20
-124.237
11
138.43
21
-124.237
0
LINE
8
Black
10
138.43
20
-124.237
11
138.43
21
-124.036
0
LINE
8
Black
10
138.43
20
-124.036
11
138.255
21
-124.137
0
LINE
8
Black
10
134.366
20
-120.268
11
134.869
21
-120.268
0
LINE
8
Black
10
134.869
20
-120.268
11
134.88
21
-120.27
0
LINE
8
Black
10
134.88
20
-120.27
11
134.891
21
-120.269
0
LINE
8
Black
10
134.891
20
-120.269
11
134.922
21
-120.277
0
LINE
8
Black
10
134.922
20
-120.277
11
134.955
21
-120.283
0
LINE
8
Black
10
134.955
20
-120.283
11
134.964
21
-120.289
0
LINE
8
Black
10
134.964
20
-120.289
11
134.975
21
-120.291
0
LINE
8
Black
10
134.975
20
-120.291
11
135.001
21
-120.31
0
LINE
8
Black
10
135.001
20
-120.31
11
135.03
21
-120.326
0
LINE
8
Black
10
135.03
20
-120.326
11
135.037
21
-120.335
0
LINE
8
Black
10
135.037
20
-120.335
11
135.046
21
-120.341
0
LINE
8
Black
10
135.046
20
-120.341
11
136.121
21
-121.416
0
LINE
8
Black
10
136.121
20
-121.416
11
139.065
21
-121.416
0
LINE
8
Black
10
139.065
20
-121.416
11
139.076
21
-121.418
0
LINE
8
Black
10
139.076
20
-121.418
11
139.087
21
-121.417
0
LINE
8
Black
10
139.087
20
-121.417
11
139.118
21
-121.425
0
LINE
8
Black
10
139.118
20
-121.425
11
139.151
21
-121.431
0
LINE
8
Black
10
139.151
20
-121.431
11
139.16
21
-121.437
0
LINE
8
Black
10
139.16
20
-121.437
11
139.171
21
-121.439
0
LINE
8
Black
10
139.171
20
-121.439
11
139.197
21
-121.458
0
LINE
8
Black
10
139.197
20
-121.458
11
139.226
21
-121.474
0
LINE
8
Black
10
139.226
20
-121.474
11
139.233
21
-121.483
0
LINE
8
Black
10
139.233
20
-121.483
11
139.242
21
-121.489
0
LINE
8
Black
10
139.242
20
-121.489
11
140.131
21
-122.378
0
LINE
8
Black
10
140.131
20
-122.378
11
140.137
21
-122.387
0
LINE
8
Black
10
140.137
20
-122.387
11
140.146
21
-122.394
0
LINE
8
Black
10
140.146
20
-122.394
11
140.162
21
-122.423
0
LINE
8
Black
10
140.162
20
-122.423
11
140.181
21
-122.449
0
LINE
8
Black
10
140.181
20
-122.449
11
140.183
21
-122.46
0
LINE
8
Black
10
140.183
20
-122.46
11
140.189
21
-122.469
0
LINE
8
Black
10
140.189
20
-122.469
11
140.195
21
-122.502
0
LINE
8
Black
10
140.195
20
-122.502
11
140.203
21
-122.533
0
LINE
8
Black
10
140.203
20
-122.533
11
140.202
21
-122.544
0
LINE
8
Black
10
140.202
20
-122.544
11
140.204
21
-122.555
0
LINE
8
Black
10
140.204
20
-122.555
11
140.204
21
-124.016
0
LINE
8
Black
10
140.204
20
-124.016
11
140.208
21
-124.016
0
LINE
8
Black
10
140.208
20
-124.016
11
140.208
21
-125.159
0
LINE
8
Black
10
140.208
20
-125.159
11
139.7
21
-125.159
0
LINE
8
Black
10
139.7
20
-125.159
11
139.7
21
-124.016
0
LINE
8
Black
10
139.7
20
-124.016
11
139.704
21
-124.016
0
LINE
8
Black
10
139.704
20
-124.016
11
139.704
21
-122.659
0
LINE
8
Black
10
139.704
20
-122.659
11
138.961
21
-121.916
0
LINE
8
Black
10
138.961
20
-121.916
11
136.017
21
-121.916
0
LINE
8
Black
10
136.017
20
-121.916
11
136.006
21
-121.914
0
LINE
8
Black
10
136.006
20
-121.914
11
135.995
21
-121.915
0
LINE
8
Black
10
135.995
20
-121.915
11
135.964
21
-121.907
0
LINE
8
Black
10
135.964
20
-121.907
11
135.931
21
-121.901
0
LINE
8
Black
10
135.931
20
-121.901
11
135.922
21
-121.895
0
LINE
8
Black
10
135.922
20
-121.895
11
135.911
21
-121.893
0
LINE
8
Black
10
135.911
20
-121.893
11
135.885
21
-121.874
0
LINE
8
Black
10
135.885
20
-121.874
11
135.856
21
-121.858
0
LINE
8
Black
10
135.856
20
-121.858
11
135.849
21
-121.849
0
LINE
8
Black
10
135.849
20
-121.849
11
135.84
21
-121.843
0
LINE
8
Black
10
135.84
20
-121.843
11
134.765
21
-120.768
0
LINE
8
Black
10
134.765
20
-120.768
11
134.366
21
-120.768
0
LINE
8
Black
10
134.366
20
-120.768
11
134.366
21
-121.003
0
LINE
8
Black
10
134.366
20
-121.003
11
133.096
21
-121.003
0
LINE
8
Black
10
133.096
20
-121.003
11
133.096
21
-120.033
0
LINE
8
Black
10
133.096
20
-120.033
11
134.366
21
-120.033
0
LINE
8
Black
10
134.366
20
-120.033
11
134.366
21
-120.268
0
LINE
8
Black
10
134.366
20
-122.283
11
133.981
21
-122.283
0
LINE
8
Black
10
133.981
20
-122.283
11
133.981
21
-123.34
0
LINE
8
Black
10
133.981
20
-123.34
11
134.978
21
-124.337
0
LINE
8
Black
10
134.978
20
-124.337
11
135.89
21
-124.337
0
LINE
8
Black
10
135.89
20
-124.337
11
135.89
21
-124.016
0
LINE
8
Black
10
135.89
20
-124.016
11
136.398
21
-124.016
0
LINE
8
Black
10
136.398
20
-124.016
11
136.398
21
-125.159
0
LINE
8
Black
10
136.398
20
-125.159
11
135.89
21
-125.159
0
LINE
8
Black
10
135.89
20
-125.159
11
135.89
21
-124.837
0
LINE
8
Black
10
135.89
20
-124.837
11
134.874
21
-124.837
0
LINE
8
Black
10
134.874
20
-124.837
11
134.863
21
-124.835
0
LINE
8
Black
10
134.863
20
-124.835
11
134.852
21
-124.836
0
LINE
8
Black
10
134.852
20
-124.836
11
134.821
21
-124.828
0
LINE
8
Black
10
134.821
20
-124.828
11
134.788
21
-124.822
0
LINE
8
Black
10
134.788
20
-124.822
11
134.779
21
-124.816
0
LINE
8
Black
10
134.779
20
-124.816
11
134.768
21
-124.814
0
LINE
8
Black
10
134.768
20
-124.814
11
134.742
21
-124.795
0
LINE
8
Black
10
134.742
20
-124.795
11
134.713
21
-124.779
0
LINE
8
Black
10
134.713
20
-124.779
11
134.706
21
-124.77
0
LINE
8
Black
10
134.706
20
-124.77
11
134.697
21
-124.764
0
LINE
8
Black
10
134.697
20
-124.764
11
133.554
21
-123.621
0
LINE
8
Black
10
133.554
20
-123.621
11
133.548
21
-123.612
0
LINE
8
Black
10
133.548
20
-123.612
11
133.539
21
-123.605
0
LINE
8
Black
10
133.539
20
-123.605
11
133.523
21
-123.576
0
LINE
8
Black
10
133.523
20
-123.576
11
133.504
21
-123.55
0
LINE
8
Black
10
133.504
20
-123.55
11
133.502
21
-123.539
0
LINE
8
Black
10
133.502
20
-123.539
11
133.496
21
-123.53
0
LINE
8
Black
10
133.496
20
-123.53
11
133.49
21
-123.497
0
LINE
8
Black
10
133.49
20
-123.497
11
133.482
21
-123.466
0
LINE
8
Black
10
133.482
20
-123.466
11
133.483
21
-123.455
0
LINE
8
Black
10
133.483
20
-123.455
11
133.481
21
-123.444
0
LINE
8
Black
10
133.481
20
-123.444
11
133.481
21
-122.283
0
LINE
8
Black
10
133.481
20
-122.283
11
133.096
21
-122.283
0
LINE
8
Black
10
133.096
20
-122.283
11
133.096
21
-121.313
0
LINE
8
Black
10
133.096
20
-121.313
11
134.366
21
-121.313
0
LINE
8
Black
10
134.366
20
-121.313
11
134.366
21
-122.283
0
LINE
8
Black
10
142.436
20
-116.004
11
142.671
21
-116.239
0
LINE
8
Black
10
142.671
20
-116.239
11
142.677
21
-116.248
0
LINE
8
Black
10
142.677
20
-116.248
11
142.686
21
-116.255
0
LINE
8
Black
10
142.686
20
-116.255
11
142.702
21
-116.284
0
LINE
8
Black
10
142.702
20
-116.284
11
142.721
21
-116.31
0
LINE
8
Black
10
142.721
20
-116.31
11
142.723
21
-116.321
0
LINE
8
Black
10
142.723
20
-116.321
11
142.729
21
-116.33
0
LINE
8
Black
10
142.729
20
-116.33
11
142.735
21
-116.363
0
LINE
8
Black
10
142.735
20
-116.363
11
142.743
21
-116.394
0
LINE
8
Black
10
142.743
20
-116.394
11
142.742
21
-116.405
0
LINE
8
Black
10
142.742
20
-116.405
11
142.744
21
-116.416
0
LINE
8
Black
10
142.744
20
-116.416
11
142.744
21
-119.888
0
LINE
8
Black
10
142.744
20
-119.888
11
142.742
21
-119.899
0
LINE
8
Black
10
142.742
20
-119.899
11
142.743
21
-119.91
0
LINE
8
Black
10
142.743
20
-119.91
11
142.735
21
-119.941
0
LINE
8
Black
10
142.735
20
-119.941
11
142.729
21
-119.974
0
LINE
8
Black
10
142.729
20
-119.974
11
142.723
21
-119.983
0
LINE
8
Black
10
142.723
20
-119.983
11
142.721
21
-119.994
0
LINE
8
Black
10
142.721
20
-119.994
11
142.702
21
-120.02
0
LINE
8
Black
10
142.702
20
-120.02
11
142.686
21
-120.049
0
LINE
8
Black
10
142.686
20
-120.049
11
142.677
21
-120.056
0
LINE
8
Black
10
142.677
20
-120.056
11
142.671
21
-120.065
0
LINE
8
Black
10
142.671
20
-120.065
11
141.982
21
-120.754
0
LINE
8
Black
10
141.982
20
-120.754
11
141.982
21
-122.506
0
LINE
8
Black
10
141.982
20
-122.506
11
142.332
21
-122.506
0
LINE
8
Black
10
142.332
20
-122.506
11
142.332
21
-123.706
0
LINE
8
Black
10
142.332
20
-123.706
11
141.132
21
-123.706
0
LINE
8
Black
10
141.132
20
-123.706
11
141.132
21
-122.506
0
LINE
8
Black
10
141.132
20
-122.506
11
141.482
21
-122.506
0
LINE
8
Black
10
141.482
20
-122.506
11
141.482
21
-120.65
0
LINE
8
Black
10
141.482
20
-120.65
11
141.484
21
-120.639
0
LINE
8
Black
10
141.484
20
-120.639
11
141.483
21
-120.628
0
LINE
8
Black
10
141.483
20
-120.628
11
141.491
21
-120.597
0
LINE
8
Black
10
141.491
20
-120.597
11
141.497
21
-120.564
0
LINE
8
Black
10
141.497
20
-120.564
11
141.503
21
-120.555
0
LINE
8
Black
10
141.503
20
-120.555
11
141.505
21
-120.544
0
LINE
8
Black
10
141.505
20
-120.544
11
141.524
21
-120.518
0
LINE
8
Black
10
141.524
20
-120.518
11
141.54
21
-120.489
0
LINE
8
Black
10
141.54
20
-120.489
11
141.549
21
-120.482
0
LINE
8
Black
10
141.549
20
-120.482
11
141.555
21
-120.473
0
LINE
8
Black
10
141.555
20
-120.473
11
142.244
21
-119.784
0
LINE
8
Black
10
142.244
20
-119.784
11
142.244
21
-116.52
0
LINE
8
Black
10
142.244
20
-116.52
11
142.232
21
-116.508
0
LINE
8
Black
10
142.232
20
-116.508
11
141.536
21
-116.508
0
LINE
8
Black
10
141.536
20
-116.508
11
141.536
21
-115.308
0
LINE
8
Black
10
141.536
20
-115.308
11
142.436
21
-115.308
0
LINE
8
Black
10
142.436
20
-115.308
11
142.436
21
-116.004
0
LINE
8
Black
10
134.112
20
-109.71
11
133.355
21
-109.71
0
LINE
8
Black
10
133.355
20
-109.71
11
133.319
21
-109.746
0
LINE
8
Black
10
133.319
20
-109.746
11
133.319
21
-117.076
0
LINE
8
Black
10
133.319
20
-117.076
11
134.13
21
-117.887
0
LINE
8
Black
10
134.13
20
-117.887
11
135.89
21
-117.887
0
LINE
8
Black
10
135.89
20
-117.887
11
135.89
21
-117.666
0
LINE
8
Black
10
135.89
20
-117.666
11
136.398
21
-117.666
0
LINE
8
Black
10
136.398
20
-117.666
11
136.398
21
-118
0
LINE
8
Black
10
136.398
20
-118
11
136.412
21
-118.012
0
LINE
8
Black
10
136.412
20
-118.012
11
136.427
21
-118.039
0
LINE
8
Black
10
136.427
20
-118.039
11
136.447
21
-118.062
0
LINE
8
Black
10
136.447
20
-118.062
11
136.458
21
-118.091
0
LINE
8
Black
10
136.458
20
-118.091
11
136.473
21
-118.117
0
LINE
8
Black
10
136.473
20
-118.117
11
136.478
21
-118.147
0
LINE
8
Black
10
136.478
20
-118.147
11
136.489
21
-118.176
0
LINE
8
Black
10
136.489
20
-118.176
11
136.489
21
-118.207
0
LINE
8
Black
10
136.489
20
-118.207
11
136.494
21
-118.237
0
LINE
8
Black
10
136.494
20
-118.237
11
136.494
21
-119.616
0
LINE
8
Black
10
136.494
20
-119.616
11
136.797
21
-119.919
0
LINE
8
Black
10
136.797
20
-119.919
11
139.301
21
-119.919
0
LINE
8
Black
10
139.301
20
-119.919
11
139.604
21
-119.616
0
LINE
8
Black
10
139.604
20
-119.616
11
139.604
21
-118.237
0
LINE
8
Black
10
139.604
20
-118.237
11
139.604
21
-115.984
0
LINE
8
Black
10
139.604
20
-115.984
11
139.625
21
-115.864
0
LINE
8
Black
10
139.625
20
-115.864
11
139.654
21
-115.814
0
LINE
8
Black
10
139.654
20
-115.814
11
139.654
21
-115.209
0
LINE
8
Black
10
139.654
20
-115.209
11
140.254
21
-115.209
0
LINE
8
Black
10
140.254
20
-115.209
11
140.254
21
-115.814
0
LINE
8
Black
10
140.254
20
-115.814
11
140.283
21
-115.864
0
LINE
8
Black
10
140.283
20
-115.864
11
140.304
21
-115.984
0
LINE
8
Black
10
140.304
20
-115.984
11
140.304
21
-117.928
0
LINE
8
Black
10
140.304
20
-117.928
11
140.537
21
-117.957
0
LINE
8
Black
10
140.537
20
-117.957
11
140.583
21
-117.903
0
LINE
8
Black
10
140.583
20
-117.903
11
140.764
21
-117.798
0
LINE
8
Black
10
140.764
20
-117.798
11
140.97
21
-117.762
0
LINE
8
Black
10
140.97
20
-117.762
11
141.176
21
-117.798
0
LINE
8
Black
10
141.176
20
-117.798
11
141.357
21
-117.903
0
LINE
8
Black
10
141.357
20
-117.903
11
141.492
21
-118.063
0
LINE
8
Black
10
141.492
20
-118.063
11
141.563
21
-118.259
0
LINE
8
Black
10
141.563
20
-118.259
11
141.563
21
-118.469
0
LINE
8
Black
10
141.563
20
-118.469
11
141.492
21
-118.665
0
LINE
8
Black
10
141.492
20
-118.665
11
141.357
21
-118.825
0
LINE
8
Black
10
141.357
20
-118.825
11
141.176
21
-118.93
0
LINE
8
Black
10
141.176
20
-118.93
11
140.97
21
-118.966
0
LINE
8
Black
10
140.97
20
-118.966
11
140.764
21
-118.93
0
LINE
8
Black
10
140.764
20
-118.93
11
140.583
21
-118.825
0
LINE
8
Black
10
140.583
20
-118.825
11
140.448
21
-118.665
0
LINE
8
Black
10
140.448
20
-118.665
11
140.443
21
-118.651
0
LINE
8
Black
10
140.443
20
-118.651
11
140.304
21
-118.633
0
LINE
8
Black
10
140.304
20
-118.633
11
140.304
21
-119.761
0
LINE
8
Black
10
140.304
20
-119.761
11
140.301
21
-119.776
0
LINE
8
Black
10
140.301
20
-119.776
11
140.303
21
-119.792
0
LINE
8
Black
10
140.303
20
-119.792
11
140.291
21
-119.836
0
LINE
8
Black
10
140.291
20
-119.836
11
140.283
21
-119.881
0
LINE
8
Black
10
140.283
20
-119.881
11
140.275
21
-119.894
0
LINE
8
Black
10
140.275
20
-119.894
11
140.271
21
-119.909
0
LINE
8
Black
10
140.271
20
-119.909
11
140.245
21
-119.946
0
LINE
8
Black
10
140.245
20
-119.946
11
140.222
21
-119.986
0
LINE
8
Black
10
140.222
20
-119.986
11
140.21
21
-119.996
0
LINE
8
Black
10
140.21
20
-119.996
11
140.201
21
-120.008
0
LINE
8
Black
10
140.201
20
-120.008
11
139.693
21
-120.516
0
LINE
8
Black
10
139.693
20
-120.516
11
139.681
21
-120.525
0
LINE
8
Black
10
139.681
20
-120.525
11
139.671
21
-120.537
0
LINE
8
Black
10
139.671
20
-120.537
11
139.631
21
-120.56
0
LINE
8
Black
10
139.631
20
-120.56
11
139.594
21
-120.586
0
LINE
8
Black
10
139.594
20
-120.586
11
139.579
21
-120.59
0
LINE
8
Black
10
139.579
20
-120.59
11
139.566
21
-120.598
0
LINE
8
Black
10
139.566
20
-120.598
11
139.521
21
-120.606
0
LINE
8
Black
10
139.521
20
-120.606
11
139.477
21
-120.618
0
LINE
8
Black
10
139.477
20
-120.618
11
139.461
21
-120.616
0
LINE
8
Black
10
139.461
20
-120.616
11
139.446
21
-120.619
0
LINE
8
Black
10
139.446
20
-120.619
11
136.652
21
-120.619
0
LINE
8
Black
10
136.652
20
-120.619
11
136.637
21
-120.616
0
LINE
8
Black
10
136.637
20
-120.616
11
136.621
21
-120.618
0
LINE
8
Black
10
136.621
20
-120.618
11
136.577
21
-120.606
0
LINE
8
Black
10
136.577
20
-120.606
11
136.532
21
-120.598
0
LINE
8
Black
10
136.532
20
-120.598
11
136.519
21
-120.59
0
LINE
8
Black
10
136.519
20
-120.59
11
136.504
21
-120.586
0
LINE
8
Black
10
136.504
20
-120.586
11
136.467
21
-120.56
0
LINE
8
Black
10
136.467
20
-120.56
11
136.427
21
-120.537
0
LINE
8
Black
10
136.427
20
-120.537
11
136.417
21
-120.525
0
LINE
8
Black
10
136.417
20
-120.525
11
136.405
21
-120.516
0
LINE
8
Black
10
136.405
20
-120.516
11
135.897
21
-120.008
0
LINE
8
Black
10
135.897
20
-120.008
11
135.888
21
-119.996
0
LINE
8
Black
10
135.888
20
-119.996
11
135.876
21
-119.986
0
LINE
8
Black
10
135.876
20
-119.986
11
135.853
21
-119.946
0
LINE
8
Black
10
135.853
20
-119.946
11
135.827
21
-119.909
0
LINE
8
Black
10
135.827
20
-119.909
11
135.823
21
-119.894
0
LINE
8
Black
10
135.823
20
-119.894
11
135.815
21
-119.881
0
LINE
8
Black
10
135.815
20
-119.881
11
135.807
21
-119.836
0
LINE
8
Black
10
135.807
20
-119.836
11
135.795
21
-119.792
0
LINE
8
Black
10
135.795
20
-119.792
11
135.797
21
-119.776
0
LINE
8
Black
10
135.797
20
-119.776
11
135.794
21
-119.761
0
LINE
8
Black
10
135.794
20
-119.761
11
135.794
21
-118.587
0
LINE
8
Black
10
135.794
20
-118.587
11
133.985
21
-118.587
0
LINE
8
Black
10
133.985
20
-118.587
11
133.97
21
-118.584
0
LINE
8
Black
10
133.97
20
-118.584
11
133.954
21
-118.586
0
LINE
8
Black
10
133.954
20
-118.586
11
133.91
21
-118.574
0
LINE
8
Black
10
133.91
20
-118.574
11
133.865
21
-118.566
0
LINE
8
Black
10
133.865
20
-118.566
11
133.852
21
-118.558
0
LINE
8
Black
10
133.852
20
-118.558
11
133.837
21
-118.554
0
LINE
8
Black
10
133.837
20
-118.554
11
133.8
21
-118.528
0
LINE
8
Black
10
133.8
20
-118.528
11
133.76
21
-118.505
0
LINE
8
Black
10
133.76
20
-118.505
11
133.75
21
-118.493
0
LINE
8
Black
10
133.75
20
-118.493
11
133.738
21
-118.484
0
LINE
8
Black
10
133.738
20
-118.484
11
132.722
21
-117.468
0
LINE
8
Black
10
132.722
20
-117.468
11
132.713
21
-117.456
0
LINE
8
Black
10
132.713
20
-117.456
11
132.701
21
-117.446
0
LINE
8
Black
10
132.701
20
-117.446
11
132.678
21
-117.406
0
LINE
8
Black
10
132.678
20
-117.406
11
132.652
21
-117.369
0
LINE
8
Black
10
132.652
20
-117.369
11
132.648
21
-117.354
0
LINE
8
Black
10
132.648
20
-117.354
11
132.64
21
-117.341
0
LINE
8
Black
10
132.64
20
-117.341
11
132.632
21
-117.296
0
LINE
8
Black
10
132.632
20
-117.296
11
132.62
21
-117.252
0
LINE
8
Black
10
132.62
20
-117.252
11
132.622
21
-117.236
0
LINE
8
Black
10
132.622
20
-117.236
11
132.619
21
-117.221
0
LINE
8
Black
10
132.619
20
-117.221
11
132.619
21
-109.601
0
LINE
8
Black
10
132.619
20
-109.601
11
132.622
21
-109.586
0
LINE
8
Black
10
132.622
20
-109.586
11
132.62
21
-109.57
0
LINE
8
Black
10
132.62
20
-109.57
11
132.632
21
-109.526
0
LINE
8
Black
10
132.632
20
-109.526
11
132.64
21
-109.481
0
LINE
8
Black
10
132.64
20
-109.481
11
132.648
21
-109.468
0
LINE
8
Black
10
132.648
20
-109.468
11
132.652
21
-109.453
0
LINE
8
Black
10
132.652
20
-109.453
11
132.678
21
-109.416
0
LINE
8
Black
10
132.678
20
-109.416
11
132.701
21
-109.376
0
LINE
8
Black
10
132.701
20
-109.376
11
132.713
21
-109.366
0
LINE
8
Black
10
132.713
20
-109.366
11
132.722
21
-109.354
0
LINE
8
Black
10
132.722
20
-109.354
11
132.842
21
-109.233
0
LINE
8
Black
10
132.842
20
-109.233
11
132.842
21
-108.74
0
LINE
8
Black
10
132.842
20
-108.74
11
134.112
21
-108.74
0
LINE
8
Black
10
134.112
20
-108.74
11
134.112
21
-109.71
0
LINE
8
Black
10
138.984
20
-116.759
11
138.934
21
-116.759
0
LINE
8
Black
10
138.934
20
-116.759
11
138.934
21
-117.666
0
LINE
8
Black
10
138.934
20
-117.666
11
138.938
21
-117.666
0
LINE
8
Black
10
138.938
20
-117.666
11
138.938
21
-118.809
0
LINE
8
Black
10
138.938
20
-118.809
11
138.43
21
-118.809
0
LINE
8
Black
10
138.43
20
-118.809
11
138.43
21
-117.666
0
LINE
8
Black
10
138.43
20
-117.666
11
138.434
21
-117.666
0
LINE
8
Black
10
138.434
20
-117.666
11
138.434
21
-116.759
0
LINE
8
Black
10
138.434
20
-116.759
11
138.384
21
-116.759
0
LINE
8
Black
10
138.384
20
-116.759
11
138.384
21
-115.209
0
LINE
8
Black
10
138.384
20
-115.209
11
138.984
21
-115.209
0
LINE
8
Black
10
138.984
20
-115.209
11
138.984
21
-116.759
0
LINE
8
Black
10
137.714
20
-116.759
11
137.664
21
-116.759
0
LINE
8
Black
10
137.664
20
-116.759
11
137.664
21
-117.666
0
LINE
8
Black
10
137.664
20
-117.666
11
137.668
21
-117.666
0
LINE
8
Black
10
137.668
20
-117.666
11
137.668
21
-118.809
0
LINE
8
Black
10
137.668
20
-118.809
11
137.16
21
-118.809
0
LINE
8
Black
10
137.16
20
-118.809
11
137.16
21
-117.666
0
LINE
8
Black
10
137.16
20
-117.666
11
137.164
21
-117.666
0
LINE
8
Black
10
137.164
20
-117.666
11
137.164
21
-116.759
0
LINE
8
Black
10
137.164
20
-116.759
11
137.114
21
-116.759
0
LINE
8
Black
10
137.114
20
-116.759
11
137.114
21
-115.209
0
LINE
8
Black
10
137.114
20
-115.209
11
137.714
21
-115.209
0
LINE
8
Black
10
137.714
20
-115.209
11
137.714
21
-116.759
0
LINE
8
Black
10
136.444
20
-116.759
11
135.844
21
-116.759
0
LINE
8
Black
10
135.844
20
-116.759
11
135.844
21
-116.412
0
LINE
8
Black
10
135.844
20
-116.412
11
134.943
21
-116.412
0
LINE
8
Black
10
134.943
20
-116.412
11
134.943
21
-116.762
0
LINE
8
Black
10
134.943
20
-116.762
11
134.043
21
-116.762
0
LINE
8
Black
10
134.043
20
-116.762
11
134.043
21
-115.562
0
LINE
8
Black
10
134.043
20
-115.562
11
134.943
21
-115.562
0
LINE
8
Black
10
134.943
20
-115.562
11
134.943
21
-115.912
0
LINE
8
Black
10
134.943
20
-115.912
11
135.844
21
-115.912
0
LINE
8
Black
10
135.844
20
-115.912
11
135.844
21
-115.209
0
LINE
8
Black
10
135.844
20
-115.209
11
136.444
21
-115.209
0
LINE
8
Black
10
136.444
20
-115.209
11
136.444
21
-116.759
0
LINE
8
Black
10
136.444
20
-110.405
11
136.447
21
-110.409
0
LINE
8
Black
10
136.447
20
-110.409
11
136.489
21
-110.523
0
LINE
8
Black
10
136.489
20
-110.523
11
136.489
21
-110.645
0
LINE
8
Black
10
136.489
20
-110.645
11
136.447
21
-110.759
0
LINE
8
Black
10
136.447
20
-110.759
11
136.444
21
-110.763
0
LINE
8
Black
10
136.444
20
-110.763
11
136.444
21
-111.359
0
LINE
8
Black
10
136.444
20
-111.359
11
135.844
21
-111.359
0
LINE
8
Black
10
135.844
20
-111.359
11
135.844
21
-110.934
0
LINE
8
Black
10
135.844
20
-110.934
11
135.642
21
-110.934
0
LINE
8
Black
10
135.642
20
-110.934
11
135.548
21
-111.045
0
LINE
8
Black
10
135.548
20
-111.045
11
135.367
21
-111.15
0
LINE
8
Black
10
135.367
20
-111.15
11
135.161
21
-111.186
0
LINE
8
Black
10
135.161
20
-111.186
11
135.07
21
-111.17
0
LINE
8
Black
10
135.07
20
-111.17
11
134.843
21
-111.397
0
LINE
8
Black
10
134.843
20
-111.397
11
134.843
21
-113.362
0
LINE
8
Black
10
134.843
20
-113.362
11
134.943
21
-113.362
0
LINE
8
Black
10
134.943
20
-113.362
11
134.943
21
-114.562
0
LINE
8
Black
10
134.943
20
-114.562
11
134.043
21
-114.562
0
LINE
8
Black
10
134.043
20
-114.562
11
134.043
21
-113.362
0
LINE
8
Black
10
134.043
20
-113.362
11
134.143
21
-113.362
0
LINE
8
Black
10
134.143
20
-113.362
11
134.143
21
-111.252
0
LINE
8
Black
10
134.143
20
-111.252
11
134.146
21
-111.237
0
LINE
8
Black
10
134.146
20
-111.237
11
134.144
21
-111.221
0
LINE
8
Black
10
134.144
20
-111.221
11
134.156
21
-111.177
0
LINE
8
Black
10
134.156
20
-111.177
11
134.164
21
-111.132
0
LINE
8
Black
10
134.164
20
-111.132
11
134.172
21
-111.119
0
LINE
8
Black
10
134.172
20
-111.119
11
134.176
21
-111.104
0
LINE
8
Black
10
134.176
20
-111.104
11
134.202
21
-111.067
0
LINE
8
Black
10
134.202
20
-111.067
11
134.225
21
-111.027
0
LINE
8
Black
10
134.225
20
-111.027
11
134.237
21
-111.017
0
LINE
8
Black
10
134.237
20
-111.017
11
134.246
21
-111.005
0
LINE
8
Black
10
134.246
20
-111.005
11
134.568
21
-110.682
0
LINE
8
Black
10
134.568
20
-110.682
11
134.568
21
-110.479
0
LINE
8
Black
10
134.568
20
-110.479
11
134.639
21
-110.283
0
LINE
8
Black
10
134.639
20
-110.283
11
134.774
21
-110.123
0
LINE
8
Black
10
134.774
20
-110.123
11
134.955
21
-110.018
0
LINE
8
Black
10
134.955
20
-110.018
11
135.161
21
-109.982
0
LINE
8
Black
10
135.161
20
-109.982
11
135.367
21
-110.018
0
LINE
8
Black
10
135.367
20
-110.018
11
135.548
21
-110.123
0
LINE
8
Black
10
135.548
20
-110.123
11
135.642
21
-110.234
0
LINE
8
Black
10
135.642
20
-110.234
11
135.844
21
-110.234
0
LINE
8
Black
10
135.844
20
-110.234
11
135.844
21
-109.809
0
LINE
8
Black
10
135.844
20
-109.809
11
136.444
21
-109.809
0
LINE
8
Black
10
136.444
20
-109.809
11
136.444
21
-110.405
0
LINE
8
Black
10
141.069
20
-108.458
11
140.099
21
-108.458
0
LINE
8
Black
10
140.099
20
-108.458
11
140.099
21
-108.073
0
LINE
8
Black
10
140.099
20
-108.073
11
139.423
21
-108.073
0
LINE
8
Black
10
139.423
20
-108.073
11
138.934
21
-108.562
0
LINE
8
Black
10
138.934
20
-108.562
11
138.934
21
-109.809
0
LINE
8
Black
10
138.934
20
-109.809
11
138.984
21
-109.809
0
LINE
8
Black
10
138.984
20
-109.809
11
138.984
21
-111.359
0
LINE
8
Black
10
138.984
20
-111.359
11
138.934
21
-111.359
0
LINE
8
Black
10
138.934
20
-111.359
11
138.934
21
-112.164
0
LINE
8
Black
10
138.934
20
-112.164
11
140.228
21
-113.458
0
LINE
8
Black
10
140.228
20
-113.458
11
141.536
21
-113.458
0
LINE
8
Black
10
141.536
20
-113.458
11
141.536
21
-113.108
0
LINE
8
Black
10
141.536
20
-113.108
11
142.436
21
-113.108
0
LINE
8
Black
10
142.436
20
-113.108
11
142.436
21
-114.308
0
LINE
8
Black
10
142.436
20
-114.308
11
141.536
21
-114.308
0
LINE
8
Black
10
141.536
20
-114.308
11
141.536
21
-113.958
0
LINE
8
Black
10
141.536
20
-113.958
11
140.124
21
-113.958
0
LINE
8
Black
10
140.124
20
-113.958
11
140.113
21
-113.956
0
LINE
8
Black
10
140.113
20
-113.956
11
140.102
21
-113.957
0
LINE
8
Black
10
140.102
20
-113.957
11
140.071
21
-113.949
0
LINE
8
Black
10
140.071
20
-113.949
11
140.038
21
-113.943
0
LINE
8
Black
10
140.038
20
-113.943
11
140.029
21
-113.937
0
LINE
8
Black
10
140.029
20
-113.937
11
140.018
21
-113.935
0
LINE
8
Black
10
140.018
20
-113.935
11
139.992
21
-113.916
0
LINE
8
Black
10
139.992
20
-113.916
11
139.963
21
-113.9
0
LINE
8
Black
10
139.963
20
-113.9
11
139.956
21
-113.891
0
LINE
8
Black
10
139.956
20
-113.891
11
139.947
21
-113.885
0
LINE
8
Black
10
139.947
20
-113.885
11
138.507
21
-112.445
0
LINE
8
Black
10
138.507
20
-112.445
11
138.501
21
-112.436
0
LINE
8
Black
10
138.501
20
-112.436
11
138.492
21
-112.429
0
LINE
8
Black
10
138.492
20
-112.429
11
138.476
21
-112.4
0
LINE
8
Black
10
138.476
20
-112.4
11
138.457
21
-112.374
0
LINE
8
Black
10
138.457
20
-112.374
11
138.455
21
-112.363
0
LINE
8
Black
10
138.455
20
-112.363
11
138.449
21
-112.354
0
LINE
8
Black
10
138.449
20
-112.354
11
138.443
21
-112.321
0
LINE
8
Black
10
138.443
20
-112.321
11
138.435
21
-112.29
0
LINE
8
Black
10
138.435
20
-112.29
11
138.436
21
-112.279
0
LINE
8
Black
10
138.436
20
-112.279
11
138.434
21
-112.268
0
LINE
8
Black
10
138.434
20
-112.268
11
138.434
21
-111.359
0
LINE
8
Black
10
138.434
20
-111.359
11
138.384
21
-111.359
0
LINE
8
Black
10
138.384
20
-111.359
11
138.384
21
-109.809
0
LINE
8
Black
10
138.384
20
-109.809
11
138.434
21
-109.809
0
LINE
8
Black
10
138.434
20
-109.809
11
138.434
21
-108.458
0
LINE
8
Black
10
138.434
20
-108.458
11
138.436
21
-108.447
0
LINE
8
Black
10
138.436
20
-108.447
11
138.435
21
-108.436
0
LINE
8
Black
10
138.435
20
-108.436
11
138.443
21
-108.405
0
LINE
8
Black
10
138.443
20
-108.405
11
138.449
21
-108.372
0
LINE
8
Black
10
138.449
20
-108.372
11
138.455
21
-108.363
0
LINE
8
Black
10
138.455
20
-108.363
11
138.457
21
-108.352
0
LINE
8
Black
10
138.457
20
-108.352
11
138.476
21
-108.326
0
LINE
8
Black
10
138.476
20
-108.326
11
138.492
21
-108.297
0
LINE
8
Black
10
138.492
20
-108.297
11
138.501
21
-108.29
0
LINE
8
Black
10
138.501
20
-108.29
11
138.507
21
-108.281
0
LINE
8
Black
10
138.507
20
-108.281
11
139.142
21
-107.646
0
LINE
8
Black
10
139.142
20
-107.646
11
139.151
21
-107.64
0
LINE
8
Black
10
139.151
20
-107.64
11
139.158
21
-107.631
0
LINE
8
Black
10
139.158
20
-107.631
11
139.187
21
-107.615
0
LINE
8
Black
10
139.187
20
-107.615
11
139.213
21
-107.596
0
LINE
8
Black
10
139.213
20
-107.596
11
139.224
21
-107.594
0
LINE
8
Black
10
139.224
20
-107.594
11
139.233
21
-107.588
0
LINE
8
Black
10
139.233
20
-107.588
11
139.266
21
-107.582
0
LINE
8
Black
10
139.266
20
-107.582
11
139.297
21
-107.574
0
LINE
8
Black
10
139.297
20
-107.574
11
139.308
21
-107.575
0
LINE
8
Black
10
139.308
20
-107.575
11
139.319
21
-107.573
0
LINE
8
Black
10
139.319
20
-107.573
11
140.099
21
-107.573
0
LINE
8
Black
10
140.099
20
-107.573
11
140.099
21
-107.188
0
LINE
8
Black
10
140.099
20
-107.188
11
141.069
21
-107.188
0
LINE
8
Black
10
141.069
20
-107.188
11
141.069
21
-108.458
0
LINE
8
Black
10
142.349
20
-108.458
11
142.114
21
-108.458
0
LINE
8
Black
10
142.114
20
-108.458
11
142.114
21
-109.723
0
LINE
8
Black
10
142.114
20
-109.723
11
142.112
21
-109.734
0
LINE
8
Black
10
142.112
20
-109.734
11
142.113
21
-109.745
0
LINE
8
Black
10
142.113
20
-109.745
11
142.105
21
-109.776
0
LINE
8
Black
10
142.105
20
-109.776
11
142.099
21
-109.809
0
LINE
8
Black
10
142.099
20
-109.809
11
142.093
21
-109.818
0
LINE
8
Black
10
142.093
20
-109.818
11
142.091
21
-109.829
0
LINE
8
Black
10
142.091
20
-109.829
11
142.072
21
-109.855
0
LINE
8
Black
10
142.072
20
-109.855
11
142.056
21
-109.884
0
LINE
8
Black
10
142.056
20
-109.884
11
142.047
21
-109.891
0
LINE
8
Black
10
142.047
20
-109.891
11
142.041
21
-109.9
0
LINE
8
Black
10
142.041
20
-109.9
11
141.18
21
-110.761
0
LINE
8
Black
10
141.18
20
-110.761
11
141.171
21
-110.767
0
LINE
8
Black
10
141.171
20
-110.767
11
141.164
21
-110.776
0
LINE
8
Black
10
141.164
20
-110.776
11
141.135
21
-110.792
0
LINE
8
Black
10
141.135
20
-110.792
11
141.109
21
-110.811
0
LINE
8
Black
10
141.109
20
-110.811
11
141.098
21
-110.813
0
LINE
8
Black
10
141.098
20
-110.813
11
141.089
21
-110.819
0
LINE
8
Black
10
141.089
20
-110.819
11
141.056
21
-110.825
0
LINE
8
Black
10
141.056
20
-110.825
11
141.025
21
-110.833
0
LINE
8
Black
10
141.025
20
-110.833
11
141.014
21
-110.832
0
LINE
8
Black
10
141.014
20
-110.832
11
141.003
21
-110.834
0
LINE
8
Black
10
141.003
20
-110.834
11
140.254
21
-110.834
0
LINE
8
Black
10
140.254
20
-110.834
11
140.254
21
-111.359
0
LINE
8
Black
10
140.254
20
-111.359
11
139.654
21
-111.359
0
LINE
8
Black
10
139.654
20
-111.359
11
139.654
21
-109.809
0
LINE
8
Black
10
139.654
20
-109.809
11
140.254
21
-109.809
0
LINE
8
Black
10
140.254
20
-109.809
11
140.254
21
-110.334
0
LINE
8
Black
10
140.254
20
-110.334
11
140.899
21
-110.334
0
LINE
8
Black
10
140.899
20
-110.334
11
141.614
21
-109.619
0
LINE
8
Black
10
141.614
20
-109.619
11
141.614
21
-108.458
0
LINE
8
Black
10
141.614
20
-108.458
11
141.379
21
-108.458
0
LINE
8
Black
10
141.379
20
-108.458
11
141.379
21
-107.188
0
LINE
8
Black
10
141.379
20
-107.188
11
142.349
21
-107.188
0
LINE
8
Black
10
142.349
20
-107.188
11
142.349
21
-108.458
0
LINE
8
Black
10
137.971
20
-108.019
11
137.621
21
-108.019
0
LINE
8
Black
10
137.621
20
-108.019
11
137.621
21
-109.809
0
LINE
8
Black
10
137.621
20
-109.809
11
137.714
21
-109.809
0
LINE
8
Black
10
137.714
20
-109.809
11
137.714
21
-111.359
0
LINE
8
Black
10
137.714
20
-111.359
11
137.114
21
-111.359
0
LINE
8
Black
10
137.114
20
-111.359
11
137.114
21
-109.809
0
LINE
8
Black
10
137.114
20
-109.809
11
137.121
21
-109.809
0
LINE
8
Black
10
137.121
20
-109.809
11
137.121
21
-108.019
0
LINE
8
Black
10
137.121
20
-108.019
11
136.771
21
-108.019
0
LINE
8
Black
10
136.771
20
-108.019
11
136.771
21
-107.119
0
LINE
8
Black
10
136.771
20
-107.119
11
137.971
21
-107.119
0
LINE
8
Black
10
137.971
20
-107.119
11
137.971
21
-108.019
0
LINE
8
Black
10
135.771
20
-108.019
11
134.571
21
-108.019
0
LINE
8
Black
10
134.571
20
-108.019
11
134.571
21
-107.819
0
LINE
8
Black
10
134.571
20
-107.819
11
134.112
21
-107.819
0
LINE
8
Black
10
134.112
20
-107.819
11
134.112
21
-108.43
0
LINE
8
Black
10
134.112
20
-108.43
11
132.842
21
-108.43
0
LINE
8
Black
10
132.842
20
-108.43
11
132.842
21
-107.46
0
LINE
8
Black
10
132.842
20
-107.46
11
133.608
21
-107.46
0
LINE
8
Black
10
133.608
20
-107.46
11
133.676
21
-107.392
0
LINE
8
Black
10
133.676
20
-107.392
11
133.685
21
-107.386
0
LINE
8
Black
10
133.685
20
-107.386
11
133.692
21
-107.377
0
LINE
8
Black
10
133.692
20
-107.377
11
133.721
21
-107.361
0
LINE
8
Black
10
133.721
20
-107.361
11
133.747
21
-107.342
0
LINE
8
Black
10
133.747
20
-107.342
11
133.758
21
-107.34
0
LINE
8
Black
10
133.758
20
-107.34
11
133.767
21
-107.334
0
LINE
8
Black
10
133.767
20
-107.334
11
133.8
21
-107.328
0
LINE
8
Black
10
133.8
20
-107.328
11
133.831
21
-107.32
0
LINE
8
Black
10
133.831
20
-107.32
11
133.842
21
-107.321
0
LINE
8
Black
10
133.842
20
-107.321
11
133.853
21
-107.319
0
LINE
8
Black
10
133.853
20
-107.319
11
134.571
21
-107.319
0
LINE
8
Black
10
134.571
20
-107.319
11
134.571
21
-107.119
0
LINE
8
Black
10
134.571
20
-107.119
11
135.771
21
-107.119
0
LINE
8
Black
10
135.771
20
-107.119
11
135.771
21
-108.019
0
CIRCLE
8
Black
10
138.049
20
-123.571
40
0.4
0
CIRCLE
8
Black
10
135.161
20
-110.584
40
0.4
0
CIRCLE
8
Black
10
140.97
20
-118.364
40
0.4
  0
ENDSEC
  0
EOF
