  0
SECTION
  2
HEADER
  9
$ANGBASE
  50
0.0
  9
$ANGDIR
  70
  1
  9
$MEASUREMENT
  70
0
  0
ENDSEC
  0
SECTION
  2
TABLES
  0
TABLE
  2
LTYPE
  70
1
  0
LTYPE
  2
CONTINUOUS
  70
0
  3
Solid line
  72
65
  73
0
  40
0.0
  0
ENDTAB
  0
TABLE
  2
STYLE
  70
4
  0
STYLE
  2
KICAD
  70
0
  40
0
  41
1
  42
1
  50
0
  71
0
  3
isocp.shx
  0
STYLE
  2
KICADB
  70
0
  40
0
  41
1
  42
1
  50
0
  71
0
  3
isocp.shx
  0
STYLE
  2
KICADI
  70
0
  40
0
  41
1
  42
1
  50
15
  71
0
  3
isocp.shx
  0
STYLE
  2
KICADBI
  70
0
  40
0
  41
1
  42
1
  50
15
  71
0
  3
isocp.shx
  0
ENDTAB
  0
TABLE
  2
LAYER
  70
30
  0
LAYER
  2
BLACK
  70
0
  62
7
  6
CONTINUOUS
  0
LAYER
  2
GRAY1
  70
0
  62
251
  6
CONTINUOUS
  0
LAYER
  2
GRAY2
  70
0
  62
8
  6
CONTINUOUS
  0
LAYER
  2
GRAY3
  70
0
  62
9
  6
CONTINUOUS
  0
LAYER
  2
WHITE
  70
0
  62
7
  6
CONTINUOUS
  0
LAYER
  2
LYELLOW
  70
0
  62
51
  6
CONTINUOUS
  0
LAYER
  2
BLUE1
  70
0
  62
178
  6
CONTINUOUS
  0
LAYER
  2
GREEN1
  70
0
  62
98
  6
CONTINUOUS
  0
LAYER
  2
CYAN1
  70
0
  62
138
  6
CONTINUOUS
  0
LAYER
  2
RED1
  70
0
  62
18
  6
CONTINUOUS
  0
LAYER
  2
MAGENTA1
  70
0
  62
228
  6
CONTINUOUS
  0
LAYER
  2
BROWN1
  70
0
  62
58
  6
CONTINUOUS
  0
LAYER
  2
BLUE2
  70
0
  62
5
  6
CONTINUOUS
  0
LAYER
  2
GREEN2
  70
0
  62
3
  6
CONTINUOUS
  0
LAYER
  2
CYAN2
  70
0
  62
4
  6
CONTINUOUS
  0
LAYER
  2
RED2
  70
0
  62
1
  6
CONTINUOUS
  0
LAYER
  2
MAGENTA2
  70
0
  62
6
  6
CONTINUOUS
  0
LAYER
  2
BROWN2
  70
0
  62
54
  6
CONTINUOUS
  0
LAYER
  2
BLUE3
  70
0
  62
171
  6
CONTINUOUS
  0
LAYER
  2
GREEN3
  70
0
  62
91
  6
CONTINUOUS
  0
LAYER
  2
CYAN3
  70
0
  62
131
  6
CONTINUOUS
  0
LAYER
  2
RED3
  70
0
  62
11
  6
CONTINUOUS
  0
LAYER
  2
MAGENTA3
  70
0
  62
221
  6
CONTINUOUS
  0
LAYER
  2
YELLOW3
  70
0
  62
2
  6
CONTINUOUS
  0
LAYER
  2
BLUE4
  70
0
  62
5
  6
CONTINUOUS
  0
LAYER
  2
GREEN4
  70
0
  62
3
  6
CONTINUOUS
  0
LAYER
  2
CYAN4
  70
0
  62
4
  6
CONTINUOUS
  0
LAYER
  2
RED4
  70
0
  62
1
  6
CONTINUOUS
  0
LAYER
  2
MAGENTA4
  70
0
  62
6
  6
CONTINUOUS
  0
LAYER
  2
YELLOW4
  70
0
  62
2
  6
CONTINUOUS
  0
ENDTAB
  0
ENDSEC
  0
SECTION
  2
ENTITIES
0
LINE
8
Black
10
143.262
20
-106.098
11
143.269
21
-106.098
0
LINE
8
Black
10
143.269
20
-106.098
11
143.275
21
-106.1
0
LINE
8
Black
10
143.275
20
-106.1
11
143.282
21
-106.102
0
LINE
8
Black
10
143.282
20
-106.102
11
143.287
21
-106.105
0
LINE
8
Black
10
143.287
20
-106.105
11
143.294
21
-106.107
0
LINE
8
Black
10
143.294
20
-106.107
11
143.299
21
-106.111
0
LINE
8
Black
10
143.299
20
-106.111
11
143.304
21
-106.115
0
LINE
8
Black
10
143.304
20
-106.115
11
143.308
21
-106.12
0
LINE
8
Black
10
143.308
20
-106.12
11
143.313
21
-106.124
0
LINE
8
Black
10
143.313
20
-106.124
11
143.317
21
-106.129
0
LINE
8
Black
10
143.317
20
-106.129
11
143.321
21
-106.135
0
LINE
8
Black
10
143.321
20
-106.135
11
143.323
21
-106.141
0
LINE
8
Black
10
143.323
20
-106.141
11
143.326
21
-106.146
0
LINE
8
Black
10
143.326
20
-106.146
11
143.328
21
-106.153
0
LINE
8
Black
10
143.328
20
-106.153
11
143.33
21
-106.159
0
LINE
8
Black
10
143.33
20
-106.159
11
143.33
21
-106.166
0
LINE
8
Black
10
143.33
20
-106.166
11
143.331
21
-106.172
0
LINE
8
Black
10
143.331
20
-106.172
11
143.331
21
-125.857
0
LINE
8
Black
10
143.331
20
-125.857
11
143.33
21
-125.863
0
LINE
8
Black
10
143.33
20
-125.863
11
143.33
21
-125.87
0
LINE
8
Black
10
143.33
20
-125.87
11
143.328
21
-125.876
0
LINE
8
Black
10
143.328
20
-125.876
11
143.326
21
-125.883
0
LINE
8
Black
10
143.326
20
-125.883
11
143.323
21
-125.888
0
LINE
8
Black
10
143.323
20
-125.888
11
143.321
21
-125.895
0
LINE
8
Black
10
143.321
20
-125.895
11
143.317
21
-125.9
0
LINE
8
Black
10
143.317
20
-125.9
11
143.313
21
-125.905
0
LINE
8
Black
10
143.313
20
-125.905
11
143.308
21
-125.909
0
LINE
8
Black
10
143.308
20
-125.909
11
143.304
21
-125.914
0
LINE
8
Black
10
143.304
20
-125.914
11
143.299
21
-125.918
0
LINE
8
Black
10
143.299
20
-125.918
11
143.294
21
-125.922
0
LINE
8
Black
10
143.294
20
-125.922
11
143.287
21
-125.924
0
LINE
8
Black
10
143.287
20
-125.924
11
143.282
21
-125.927
0
LINE
8
Black
10
143.282
20
-125.927
11
143.275
21
-125.929
0
LINE
8
Black
10
143.275
20
-125.929
11
143.269
21
-125.931
0
LINE
8
Black
10
143.269
20
-125.931
11
143.262
21
-125.931
0
LINE
8
Black
10
143.262
20
-125.931
11
143.256
21
-125.932
0
LINE
8
Black
10
143.256
20
-125.932
11
132.08
21
-125.932
0
LINE
8
Black
10
132.08
20
-125.932
11
132.074
21
-125.931
0
LINE
8
Black
10
132.074
20
-125.931
11
132.067
21
-125.931
0
LINE
8
Black
10
132.067
20
-125.931
11
132.061
21
-125.929
0
LINE
8
Black
10
132.061
20
-125.929
11
132.054
21
-125.927
0
LINE
8
Black
10
132.054
20
-125.927
11
132.049
21
-125.924
0
LINE
8
Black
10
132.049
20
-125.924
11
132.043
21
-125.922
0
LINE
8
Black
10
132.043
20
-125.922
11
132.037
21
-125.918
0
LINE
8
Black
10
132.037
20
-125.918
11
132.032
21
-125.914
0
LINE
8
Black
10
132.032
20
-125.914
11
132.028
21
-125.909
0
LINE
8
Black
10
132.028
20
-125.909
11
132.023
21
-125.905
0
LINE
8
Black
10
132.023
20
-125.905
11
132.019
21
-125.9
0
LINE
8
Black
10
132.019
20
-125.9
11
132.015
21
-125.895
0
LINE
8
Black
10
132.015
20
-125.895
11
132.013
21
-125.888
0
LINE
8
Black
10
132.013
20
-125.888
11
132.01
21
-125.883
0
LINE
8
Black
10
132.01
20
-125.883
11
132.008
21
-125.876
0
LINE
8
Black
10
132.008
20
-125.876
11
132.006
21
-125.87
0
LINE
8
Black
10
132.006
20
-125.87
11
132.006
21
-125.863
0
LINE
8
Black
10
132.006
20
-125.863
11
132.005
21
-125.857
0
LINE
8
Black
10
132.005
20
-125.857
11
132.005
21
-106.172
0
LINE
8
Black
10
132.005
20
-106.172
11
132.006
21
-106.166
0
LINE
8
Black
10
132.006
20
-106.166
11
132.006
21
-106.159
0
LINE
8
Black
10
132.006
20
-106.159
11
132.008
21
-106.153
0
LINE
8
Black
10
132.008
20
-106.153
11
132.01
21
-106.146
0
LINE
8
Black
10
132.01
20
-106.146
11
132.013
21
-106.141
0
LINE
8
Black
10
132.013
20
-106.141
11
132.015
21
-106.135
0
LINE
8
Black
10
132.015
20
-106.135
11
132.019
21
-106.129
0
LINE
8
Black
10
132.019
20
-106.129
11
132.023
21
-106.124
0
LINE
8
Black
10
132.023
20
-106.124
11
132.028
21
-106.12
0
LINE
8
Black
10
132.028
20
-106.12
11
132.032
21
-106.115
0
LINE
8
Black
10
132.032
20
-106.115
11
132.037
21
-106.111
0
LINE
8
Black
10
132.037
20
-106.111
11
132.043
21
-106.107
0
LINE
8
Black
10
132.043
20
-106.107
11
132.049
21
-106.105
0
LINE
8
Black
10
132.049
20
-106.105
11
132.054
21
-106.102
0
LINE
8
Black
10
132.054
20
-106.102
11
132.061
21
-106.1
0
LINE
8
Black
10
132.061
20
-106.1
11
132.067
21
-106.098
0
LINE
8
Black
10
132.067
20
-106.098
11
132.074
21
-106.098
0
LINE
8
Black
10
132.074
20
-106.098
11
132.08
21
-106.097
0
LINE
8
Black
10
132.08
20
-106.097
11
143.256
21
-106.097
0
LINE
8
Black
10
143.256
20
-106.097
11
143.262
21
-106.098
0
LINE
8
Black
10
132.155
20
-106.247
11
132.155
21
-125.782
0
LINE
8
Black
10
132.155
20
-125.782
11
143.181
21
-125.782
0
LINE
8
Black
10
143.181
20
-125.782
11
143.181
21
-106.247
0
LINE
8
Black
10
143.181
20
-106.247
11
132.155
21
-106.247
0
LINE
8
Black
10
139.221
20
-106.757
11
139.231
21
-106.757
0
LINE
8
Black
10
139.231
20
-106.757
11
139.243
21
-106.761
0
LINE
8
Black
10
139.243
20
-106.761
11
139.255
21
-106.763
0
LINE
8
Black
10
139.255
20
-106.763
11
139.263
21
-106.768
0
LINE
8
Black
10
139.263
20
-106.768
11
139.273
21
-106.771
0
LINE
8
Black
10
139.273
20
-106.771
11
139.282
21
-106.779
0
LINE
8
Black
10
139.282
20
-106.779
11
139.293
21
-106.785
0
LINE
8
Black
10
139.293
20
-106.785
11
139.299
21
-106.792
0
LINE
8
Black
10
139.299
20
-106.792
11
139.307
21
-106.798
0
LINE
8
Black
10
139.307
20
-106.798
11
139.313
21
-106.809
0
LINE
8
Black
10
139.313
20
-106.809
11
139.321
21
-106.819
0
LINE
8
Black
10
139.321
20
-106.819
11
139.325
21
-106.828
0
LINE
8
Black
10
139.325
20
-106.828
11
139.33
21
-106.836
0
LINE
8
Black
10
139.33
20
-106.836
11
139.332
21
-106.848
0
LINE
8
Black
10
139.332
20
-106.848
11
139.336
21
-106.86
0
LINE
8
Black
10
139.336
20
-106.86
11
139.336
21
-106.87
0
LINE
8
Black
10
139.336
20
-106.87
11
139.338
21
-106.879
0
LINE
8
Black
10
139.338
20
-106.879
11
139.443
21
-112.138
0
LINE
8
Black
10
139.443
20
-112.138
11
139.442
21
-112.151
0
LINE
8
Black
10
139.442
20
-112.151
11
139.442
21
-112.163
0
LINE
8
Black
10
139.442
20
-112.163
11
139.438
21
-112.172
0
LINE
8
Black
10
139.438
20
-112.172
11
139.437
21
-112.182
0
LINE
8
Black
10
139.437
20
-112.182
11
139.431
21
-112.193
0
LINE
8
Black
10
139.431
20
-112.193
11
139.426
21
-112.205
0
LINE
8
Black
10
139.426
20
-112.205
11
139.42
21
-112.212
0
LINE
8
Black
10
139.42
20
-112.212
11
139.415
21
-112.221
0
LINE
8
Black
10
139.415
20
-112.221
11
139.406
21
-112.229
0
LINE
8
Black
10
139.406
20
-112.229
11
139.398
21
-112.238
0
LINE
8
Black
10
139.398
20
-112.238
11
139.39
21
-112.243
0
LINE
8
Black
10
139.39
20
-112.243
11
139.382
21
-112.25
0
LINE
8
Black
10
139.382
20
-112.25
11
139.371
21
-112.254
0
LINE
8
Black
10
139.371
20
-112.254
11
139.36
21
-112.26
0
LINE
8
Black
10
139.36
20
-112.26
11
139.35
21
-112.262
0
LINE
8
Black
10
139.35
20
-112.262
11
139.341
21
-112.266
0
LINE
8
Black
10
139.341
20
-112.266
11
139.329
21
-112.266
0
LINE
8
Black
10
139.329
20
-112.266
11
139.316
21
-112.268
0
LINE
8
Black
10
139.316
20
-112.268
11
135.395
21
-112.268
0
LINE
8
Black
10
135.395
20
-112.268
11
135.384
21
-112.27
0
LINE
8
Black
10
135.384
20
-112.27
11
135.382
21
-112.28
0
LINE
8
Black
10
135.382
20
-112.28
11
135.382
21
-121.018
0
LINE
8
Black
10
135.382
20
-121.018
11
135.384
21
-121.029
0
LINE
8
Black
10
135.384
20
-121.029
11
135.394
21
-121.031
0
LINE
8
Black
10
135.394
20
-121.031
11
142.546
21
-121.031
0
LINE
8
Black
10
142.546
20
-121.031
11
142.557
21
-121.033
0
LINE
8
Black
10
142.557
20
-121.033
11
142.568
21
-121.033
0
LINE
8
Black
10
142.568
20
-121.033
11
142.578
21
-121.037
0
LINE
8
Black
10
142.578
20
-121.037
11
142.589
21
-121.039
0
LINE
8
Black
10
142.589
20
-121.039
11
142.599
21
-121.044
0
LINE
8
Black
10
142.599
20
-121.044
11
142.61
21
-121.048
0
LINE
8
Black
10
142.61
20
-121.048
11
142.618
21
-121.055
0
LINE
8
Black
10
142.618
20
-121.055
11
142.628
21
-121.061
0
LINE
8
Black
10
142.628
20
-121.061
11
142.635
21
-121.069
0
LINE
8
Black
10
142.635
20
-121.069
11
142.643
21
-121.076
0
LINE
8
Black
10
142.643
20
-121.076
11
142.649
21
-121.086
0
LINE
8
Black
10
142.649
20
-121.086
11
142.656
21
-121.095
0
LINE
8
Black
10
142.656
20
-121.095
11
142.66
21
-121.105
0
LINE
8
Black
10
142.66
20
-121.105
11
142.665
21
-121.115
0
LINE
8
Black
10
142.665
20
-121.115
11
142.667
21
-121.126
0
LINE
8
Black
10
142.667
20
-121.126
11
142.671
21
-121.136
0
LINE
8
Black
10
142.671
20
-121.136
11
142.671
21
-121.147
0
LINE
8
Black
10
142.671
20
-121.147
11
142.673
21
-121.158
0
LINE
8
Black
10
142.673
20
-121.158
11
142.673
21
-125.147
0
LINE
8
Black
10
142.673
20
-125.147
11
142.671
21
-125.158
0
LINE
8
Black
10
142.671
20
-125.158
11
142.671
21
-125.169
0
LINE
8
Black
10
142.671
20
-125.169
11
142.667
21
-125.179
0
LINE
8
Black
10
142.667
20
-125.179
11
142.665
21
-125.19
0
LINE
8
Black
10
142.665
20
-125.19
11
142.66
21
-125.2
0
LINE
8
Black
10
142.66
20
-125.2
11
142.656
21
-125.211
0
LINE
8
Black
10
142.656
20
-125.211
11
142.649
21
-125.219
0
LINE
8
Black
10
142.649
20
-125.219
11
142.643
21
-125.229
0
LINE
8
Black
10
142.643
20
-125.229
11
142.635
21
-125.236
0
LINE
8
Black
10
142.635
20
-125.236
11
142.628
21
-125.244
0
LINE
8
Black
10
142.628
20
-125.244
11
142.618
21
-125.25
0
LINE
8
Black
10
142.618
20
-125.25
11
142.61
21
-125.257
0
LINE
8
Black
10
142.61
20
-125.257
11
142.599
21
-125.261
0
LINE
8
Black
10
142.599
20
-125.261
11
142.589
21
-125.266
0
LINE
8
Black
10
142.589
20
-125.266
11
142.578
21
-125.268
0
LINE
8
Black
10
142.578
20
-125.268
11
142.568
21
-125.272
0
LINE
8
Black
10
142.568
20
-125.272
11
142.557
21
-125.272
0
LINE
8
Black
10
142.557
20
-125.272
11
142.546
21
-125.274
0
LINE
8
Black
10
142.546
20
-125.274
11
132.79
21
-125.274
0
LINE
8
Black
10
132.79
20
-125.274
11
132.779
21
-125.272
0
LINE
8
Black
10
132.779
20
-125.272
11
132.768
21
-125.272
0
LINE
8
Black
10
132.768
20
-125.272
11
132.758
21
-125.268
0
LINE
8
Black
10
132.758
20
-125.268
11
132.747
21
-125.266
0
LINE
8
Black
10
132.747
20
-125.266
11
132.737
21
-125.261
0
LINE
8
Black
10
132.737
20
-125.261
11
132.727
21
-125.257
0
LINE
8
Black
10
132.727
20
-125.257
11
132.718
21
-125.25
0
LINE
8
Black
10
132.718
20
-125.25
11
132.708
21
-125.244
0
LINE
8
Black
10
132.708
20
-125.244
11
132.701
21
-125.236
0
LINE
8
Black
10
132.701
20
-125.236
11
132.693
21
-125.229
0
LINE
8
Black
10
132.693
20
-125.229
11
132.687
21
-125.219
0
LINE
8
Black
10
132.687
20
-125.219
11
132.68
21
-125.211
0
LINE
8
Black
10
132.68
20
-125.211
11
132.676
21
-125.2
0
LINE
8
Black
10
132.676
20
-125.2
11
132.671
21
-125.19
0
LINE
8
Black
10
132.671
20
-125.19
11
132.669
21
-125.179
0
LINE
8
Black
10
132.669
20
-125.179
11
132.665
21
-125.169
0
LINE
8
Black
10
132.665
20
-125.169
11
132.665
21
-125.158
0
LINE
8
Black
10
132.665
20
-125.158
11
132.663
21
-125.147
0
LINE
8
Black
10
132.663
20
-125.147
11
132.663
21
-106.882
0
LINE
8
Black
10
132.663
20
-106.882
11
132.665
21
-106.871
0
LINE
8
Black
10
132.665
20
-106.871
11
132.665
21
-106.86
0
LINE
8
Black
10
132.665
20
-106.86
11
132.669
21
-106.85
0
LINE
8
Black
10
132.669
20
-106.85
11
132.671
21
-106.839
0
LINE
8
Black
10
132.671
20
-106.839
11
132.676
21
-106.829
0
LINE
8
Black
10
132.676
20
-106.829
11
132.68
21
-106.819
0
LINE
8
Black
10
132.68
20
-106.819
11
132.687
21
-106.81
0
LINE
8
Black
10
132.687
20
-106.81
11
132.693
21
-106.8
0
LINE
8
Black
10
132.693
20
-106.8
11
132.701
21
-106.793
0
LINE
8
Black
10
132.701
20
-106.793
11
132.708
21
-106.785
0
LINE
8
Black
10
132.708
20
-106.785
11
132.718
21
-106.779
0
LINE
8
Black
10
132.718
20
-106.779
11
132.727
21
-106.772
0
LINE
8
Black
10
132.727
20
-106.772
11
132.737
21
-106.768
0
LINE
8
Black
10
132.737
20
-106.768
11
132.747
21
-106.763
0
LINE
8
Black
10
132.747
20
-106.763
11
132.758
21
-106.761
0
LINE
8
Black
10
132.758
20
-106.761
11
132.768
21
-106.757
0
LINE
8
Black
10
132.768
20
-106.757
11
132.779
21
-106.757
0
LINE
8
Black
10
132.779
20
-106.757
11
132.79
21
-106.755
0
LINE
8
Black
10
132.79
20
-106.755
11
139.211
21
-106.755
0
LINE
8
Black
10
139.211
20
-106.755
11
139.221
21
-106.757
0
LINE
8
Black
10
142.557
20
-106.757
11
142.568
21
-106.757
0
LINE
8
Black
10
142.568
20
-106.757
11
142.578
21
-106.761
0
LINE
8
Black
10
142.578
20
-106.761
11
142.589
21
-106.763
0
LINE
8
Black
10
142.589
20
-106.763
11
142.599
21
-106.768
0
LINE
8
Black
10
142.599
20
-106.768
11
142.61
21
-106.772
0
LINE
8
Black
10
142.61
20
-106.772
11
142.618
21
-106.779
0
LINE
8
Black
10
142.618
20
-106.779
11
142.628
21
-106.785
0
LINE
8
Black
10
142.628
20
-106.785
11
142.635
21
-106.793
0
LINE
8
Black
10
142.635
20
-106.793
11
142.643
21
-106.8
0
LINE
8
Black
10
142.643
20
-106.8
11
142.649
21
-106.81
0
LINE
8
Black
10
142.649
20
-106.81
11
142.656
21
-106.819
0
LINE
8
Black
10
142.656
20
-106.819
11
142.66
21
-106.829
0
LINE
8
Black
10
142.66
20
-106.829
11
142.665
21
-106.839
0
LINE
8
Black
10
142.665
20
-106.839
11
142.667
21
-106.85
0
LINE
8
Black
10
142.667
20
-106.85
11
142.671
21
-106.86
0
LINE
8
Black
10
142.671
20
-106.86
11
142.671
21
-106.871
0
LINE
8
Black
10
142.671
20
-106.871
11
142.673
21
-106.882
0
LINE
8
Black
10
142.673
20
-106.882
11
142.673
21
-120.015
0
LINE
8
Black
10
142.673
20
-120.015
11
142.671
21
-120.026
0
LINE
8
Black
10
142.671
20
-120.026
11
142.671
21
-120.037
0
LINE
8
Black
10
142.671
20
-120.037
11
142.667
21
-120.047
0
LINE
8
Black
10
142.667
20
-120.047
11
142.665
21
-120.058
0
LINE
8
Black
10
142.665
20
-120.058
11
142.66
21
-120.068
0
LINE
8
Black
10
142.66
20
-120.068
11
142.656
21
-120.079
0
LINE
8
Black
10
142.656
20
-120.079
11
142.649
21
-120.087
0
LINE
8
Black
10
142.649
20
-120.087
11
142.643
21
-120.097
0
LINE
8
Black
10
142.643
20
-120.097
11
142.635
21
-120.104
0
LINE
8
Black
10
142.635
20
-120.104
11
142.628
21
-120.112
0
LINE
8
Black
10
142.628
20
-120.112
11
142.618
21
-120.118
0
LINE
8
Black
10
142.618
20
-120.118
11
142.61
21
-120.125
0
LINE
8
Black
10
142.61
20
-120.125
11
142.599
21
-120.129
0
LINE
8
Black
10
142.599
20
-120.129
11
142.589
21
-120.134
0
LINE
8
Black
10
142.589
20
-120.134
11
142.578
21
-120.136
0
LINE
8
Black
10
142.578
20
-120.136
11
142.568
21
-120.14
0
LINE
8
Black
10
142.568
20
-120.14
11
142.557
21
-120.14
0
LINE
8
Black
10
142.557
20
-120.14
11
142.546
21
-120.142
0
LINE
8
Black
10
142.546
20
-120.142
11
136.525
21
-120.142
0
LINE
8
Black
10
136.525
20
-120.142
11
136.514
21
-120.14
0
LINE
8
Black
10
136.514
20
-120.14
11
136.503
21
-120.14
0
LINE
8
Black
10
136.503
20
-120.14
11
136.493
21
-120.136
0
LINE
8
Black
10
136.493
20
-120.136
11
136.482
21
-120.134
0
LINE
8
Black
10
136.482
20
-120.134
11
136.472
21
-120.129
0
LINE
8
Black
10
136.472
20
-120.129
11
136.462
21
-120.125
0
LINE
8
Black
10
136.462
20
-120.125
11
136.453
21
-120.118
0
LINE
8
Black
10
136.453
20
-120.118
11
136.443
21
-120.112
0
LINE
8
Black
10
136.443
20
-120.112
11
136.436
21
-120.104
0
LINE
8
Black
10
136.436
20
-120.104
11
136.428
21
-120.097
0
LINE
8
Black
10
136.428
20
-120.097
11
136.422
21
-120.087
0
LINE
8
Black
10
136.422
20
-120.087
11
136.415
21
-120.079
0
LINE
8
Black
10
136.415
20
-120.079
11
136.411
21
-120.068
0
LINE
8
Black
10
136.411
20
-120.068
11
136.406
21
-120.058
0
LINE
8
Black
10
136.406
20
-120.058
11
136.404
21
-120.047
0
LINE
8
Black
10
136.404
20
-120.047
11
136.4
21
-120.037
0
LINE
8
Black
10
136.4
20
-120.037
11
136.4
21
-120.026
0
LINE
8
Black
10
136.4
20
-120.026
11
136.398
21
-120.015
0
LINE
8
Black
10
136.398
20
-120.015
11
136.398
21
-113.157
0
LINE
8
Black
10
136.398
20
-113.157
11
136.4
21
-113.146
0
LINE
8
Black
10
136.4
20
-113.146
11
136.4
21
-113.135
0
LINE
8
Black
10
136.4
20
-113.135
11
136.404
21
-113.125
0
LINE
8
Black
10
136.404
20
-113.125
11
136.406
21
-113.114
0
LINE
8
Black
10
136.406
20
-113.114
11
136.411
21
-113.104
0
LINE
8
Black
10
136.411
20
-113.104
11
136.415
21
-113.094
0
LINE
8
Black
10
136.415
20
-113.094
11
136.422
21
-113.085
0
LINE
8
Black
10
136.422
20
-113.085
11
136.428
21
-113.075
0
LINE
8
Black
10
136.428
20
-113.075
11
136.436
21
-113.068
0
LINE
8
Black
10
136.436
20
-113.068
11
136.443
21
-113.06
0
LINE
8
Black
10
136.443
20
-113.06
11
136.453
21
-113.054
0
LINE
8
Black
10
136.453
20
-113.054
11
136.462
21
-113.047
0
LINE
8
Black
10
136.462
20
-113.047
11
136.472
21
-113.043
0
LINE
8
Black
10
136.472
20
-113.043
11
136.482
21
-113.038
0
LINE
8
Black
10
136.482
20
-113.038
11
136.493
21
-113.036
0
LINE
8
Black
10
136.493
20
-113.036
11
136.503
21
-113.032
0
LINE
8
Black
10
136.503
20
-113.032
11
136.514
21
-113.032
0
LINE
8
Black
10
136.514
20
-113.032
11
136.525
21
-113.03
0
LINE
8
Black
10
136.525
20
-113.03
11
140.322
21
-113.03
0
LINE
8
Black
10
140.322
20
-113.03
11
140.333
21
-113.028
0
LINE
8
Black
10
140.333
20
-113.028
11
140.335
21
-113.018
0
LINE
8
Black
10
140.335
20
-113.018
11
140.335
21
-106.882
0
LINE
8
Black
10
140.335
20
-106.882
11
140.337
21
-106.871
0
LINE
8
Black
10
140.337
20
-106.871
11
140.337
21
-106.86
0
LINE
8
Black
10
140.337
20
-106.86
11
140.341
21
-106.85
0
LINE
8
Black
10
140.341
20
-106.85
11
140.343
21
-106.839
0
LINE
8
Black
10
140.343
20
-106.839
11
140.348
21
-106.829
0
LINE
8
Black
10
140.348
20
-106.829
11
140.352
21
-106.819
0
LINE
8
Black
10
140.352
20
-106.819
11
140.359
21
-106.81
0
LINE
8
Black
10
140.359
20
-106.81
11
140.365
21
-106.8
0
LINE
8
Black
10
140.365
20
-106.8
11
140.373
21
-106.793
0
LINE
8
Black
10
140.373
20
-106.793
11
140.38
21
-106.785
0
LINE
8
Black
10
140.38
20
-106.785
11
140.39
21
-106.779
0
LINE
8
Black
10
140.39
20
-106.779
11
140.399
21
-106.772
0
LINE
8
Black
10
140.399
20
-106.772
11
140.409
21
-106.768
0
LINE
8
Black
10
140.409
20
-106.768
11
140.419
21
-106.763
0
LINE
8
Black
10
140.419
20
-106.763
11
140.43
21
-106.761
0
LINE
8
Black
10
140.43
20
-106.761
11
140.44
21
-106.757
0
LINE
8
Black
10
140.44
20
-106.757
11
140.451
21
-106.757
0
LINE
8
Black
10
140.451
20
-106.757
11
140.462
21
-106.755
0
LINE
8
Black
10
140.462
20
-106.755
11
142.546
21
-106.755
0
LINE
8
Black
10
142.546
20
-106.755
11
142.557
21
-106.757
0
CIRCLE
8
Black
10
138.049
20
-123.571
40
0.4
0
CIRCLE
8
Black
10
135.161
20
-110.584
40
0.4
0
CIRCLE
8
Black
10
141.986
20
-107.696
40
0.4
0
CIRCLE
8
Black
10
141.351
20
-118.237
40
0.4
  0
ENDSEC
  0
EOF
