  0
SECTION
  2
HEADER
  9
$ANGBASE
  50
0.0
  9
$ANGDIR
  70
  1
  9
$MEASUREMENT
  70
0
  0
ENDSEC
  0
SECTION
  2
TABLES
  0
TABLE
  2
LTYPE
  70
1
  0
LTYPE
  2
CONTINUOUS
  70
0
  3
Solid line
  72
65
  73
0
  40
0.0
  0
ENDTAB
  0
TABLE
  2
STYLE
  70
4
  0
STYLE
  2
KICAD
  70
0
  40
0
  41
1
  42
1
  50
0
  71
0
  3
isocp.shx
  0
STYLE
  2
KICADB
  70
0
  40
0
  41
1
  42
1
  50
0
  71
0
  3
isocp.shx
  0
STYLE
  2
KICADI
  70
0
  40
0
  41
1
  42
1
  50
15
  71
0
  3
isocp.shx
  0
STYLE
  2
KICADBI
  70
0
  40
0
  41
1
  42
1
  50
15
  71
0
  3
isocp.shx
  0
ENDTAB
  0
TABLE
  2
LAYER
  70
30
  0
LAYER
  2
BLACK
  70
0
  62
7
  6
CONTINUOUS
  0
LAYER
  2
GRAY1
  70
0
  62
251
  6
CONTINUOUS
  0
LAYER
  2
GRAY2
  70
0
  62
8
  6
CONTINUOUS
  0
LAYER
  2
GRAY3
  70
0
  62
9
  6
CONTINUOUS
  0
LAYER
  2
WHITE
  70
0
  62
7
  6
CONTINUOUS
  0
LAYER
  2
LYELLOW
  70
0
  62
51
  6
CONTINUOUS
  0
LAYER
  2
BLUE1
  70
0
  62
178
  6
CONTINUOUS
  0
LAYER
  2
GREEN1
  70
0
  62
98
  6
CONTINUOUS
  0
LAYER
  2
CYAN1
  70
0
  62
138
  6
CONTINUOUS
  0
LAYER
  2
RED1
  70
0
  62
18
  6
CONTINUOUS
  0
LAYER
  2
MAGENTA1
  70
0
  62
228
  6
CONTINUOUS
  0
LAYER
  2
BROWN1
  70
0
  62
58
  6
CONTINUOUS
  0
LAYER
  2
BLUE2
  70
0
  62
5
  6
CONTINUOUS
  0
LAYER
  2
GREEN2
  70
0
  62
3
  6
CONTINUOUS
  0
LAYER
  2
CYAN2
  70
0
  62
4
  6
CONTINUOUS
  0
LAYER
  2
RED2
  70
0
  62
1
  6
CONTINUOUS
  0
LAYER
  2
MAGENTA2
  70
0
  62
6
  6
CONTINUOUS
  0
LAYER
  2
BROWN2
  70
0
  62
54
  6
CONTINUOUS
  0
LAYER
  2
BLUE3
  70
0
  62
171
  6
CONTINUOUS
  0
LAYER
  2
GREEN3
  70
0
  62
91
  6
CONTINUOUS
  0
LAYER
  2
CYAN3
  70
0
  62
131
  6
CONTINUOUS
  0
LAYER
  2
RED3
  70
0
  62
11
  6
CONTINUOUS
  0
LAYER
  2
MAGENTA3
  70
0
  62
221
  6
CONTINUOUS
  0
LAYER
  2
YELLOW3
  70
0
  62
2
  6
CONTINUOUS
  0
LAYER
  2
BLUE4
  70
0
  62
5
  6
CONTINUOUS
  0
LAYER
  2
GREEN4
  70
0
  62
3
  6
CONTINUOUS
  0
LAYER
  2
CYAN4
  70
0
  62
4
  6
CONTINUOUS
  0
LAYER
  2
RED4
  70
0
  62
1
  6
CONTINUOUS
  0
LAYER
  2
MAGENTA4
  70
0
  62
6
  6
CONTINUOUS
  0
LAYER
  2
YELLOW4
  70
0
  62
2
  6
CONTINUOUS
  0
ENDTAB
  0
ENDSEC
  0
SECTION
  2
ENTITIES
0
LINE
8
Black
10
143.262
20
-106.098
11
143.269
21
-106.098
0
LINE
8
Black
10
143.269
20
-106.098
11
143.275
21
-106.1
0
LINE
8
Black
10
143.275
20
-106.1
11
143.282
21
-106.102
0
LINE
8
Black
10
143.282
20
-106.102
11
143.287
21
-106.105
0
LINE
8
Black
10
143.287
20
-106.105
11
143.294
21
-106.107
0
LINE
8
Black
10
143.294
20
-106.107
11
143.299
21
-106.111
0
LINE
8
Black
10
143.299
20
-106.111
11
143.304
21
-106.115
0
LINE
8
Black
10
143.304
20
-106.115
11
143.308
21
-106.12
0
LINE
8
Black
10
143.308
20
-106.12
11
143.313
21
-106.124
0
LINE
8
Black
10
143.313
20
-106.124
11
143.317
21
-106.129
0
LINE
8
Black
10
143.317
20
-106.129
11
143.321
21
-106.135
0
LINE
8
Black
10
143.321
20
-106.135
11
143.323
21
-106.141
0
LINE
8
Black
10
143.323
20
-106.141
11
143.326
21
-106.146
0
LINE
8
Black
10
143.326
20
-106.146
11
143.328
21
-106.153
0
LINE
8
Black
10
143.328
20
-106.153
11
143.33
21
-106.159
0
LINE
8
Black
10
143.33
20
-106.159
11
143.33
21
-106.166
0
LINE
8
Black
10
143.33
20
-106.166
11
143.331
21
-106.172
0
LINE
8
Black
10
143.331
20
-106.172
11
143.331
21
-127.127
0
LINE
8
Black
10
143.331
20
-127.127
11
143.33
21
-127.133
0
LINE
8
Black
10
143.33
20
-127.133
11
143.33
21
-127.14
0
LINE
8
Black
10
143.33
20
-127.14
11
143.328
21
-127.146
0
LINE
8
Black
10
143.328
20
-127.146
11
143.326
21
-127.153
0
LINE
8
Black
10
143.326
20
-127.153
11
143.323
21
-127.158
0
LINE
8
Black
10
143.323
20
-127.158
11
143.321
21
-127.165
0
LINE
8
Black
10
143.321
20
-127.165
11
143.317
21
-127.17
0
LINE
8
Black
10
143.317
20
-127.17
11
143.313
21
-127.175
0
LINE
8
Black
10
143.313
20
-127.175
11
143.308
21
-127.179
0
LINE
8
Black
10
143.308
20
-127.179
11
143.304
21
-127.184
0
LINE
8
Black
10
143.304
20
-127.184
11
143.299
21
-127.188
0
LINE
8
Black
10
143.299
20
-127.188
11
143.294
21
-127.192
0
LINE
8
Black
10
143.294
20
-127.192
11
143.287
21
-127.194
0
LINE
8
Black
10
143.287
20
-127.194
11
143.282
21
-127.197
0
LINE
8
Black
10
143.282
20
-127.197
11
143.275
21
-127.199
0
LINE
8
Black
10
143.275
20
-127.199
11
143.269
21
-127.201
0
LINE
8
Black
10
143.269
20
-127.201
11
143.262
21
-127.201
0
LINE
8
Black
10
143.262
20
-127.201
11
143.256
21
-127.202
0
LINE
8
Black
10
143.256
20
-127.202
11
131.826
21
-127.202
0
LINE
8
Black
10
131.826
20
-127.202
11
131.82
21
-127.201
0
LINE
8
Black
10
131.82
20
-127.201
11
131.813
21
-127.201
0
LINE
8
Black
10
131.813
20
-127.201
11
131.807
21
-127.199
0
LINE
8
Black
10
131.807
20
-127.199
11
131.8
21
-127.197
0
LINE
8
Black
10
131.8
20
-127.197
11
131.795
21
-127.194
0
LINE
8
Black
10
131.795
20
-127.194
11
131.789
21
-127.192
0
LINE
8
Black
10
131.789
20
-127.192
11
131.783
21
-127.188
0
LINE
8
Black
10
131.783
20
-127.188
11
131.778
21
-127.184
0
LINE
8
Black
10
131.778
20
-127.184
11
131.774
21
-127.179
0
LINE
8
Black
10
131.774
20
-127.179
11
131.769
21
-127.175
0
LINE
8
Black
10
131.769
20
-127.175
11
131.765
21
-127.17
0
LINE
8
Black
10
131.765
20
-127.17
11
131.761
21
-127.165
0
LINE
8
Black
10
131.761
20
-127.165
11
131.759
21
-127.158
0
LINE
8
Black
10
131.759
20
-127.158
11
131.756
21
-127.153
0
LINE
8
Black
10
131.756
20
-127.153
11
131.754
21
-127.146
0
LINE
8
Black
10
131.754
20
-127.146
11
131.752
21
-127.14
0
LINE
8
Black
10
131.752
20
-127.14
11
131.752
21
-127.133
0
LINE
8
Black
10
131.752
20
-127.133
11
131.751
21
-127.127
0
LINE
8
Black
10
131.751
20
-127.127
11
131.751
21
-106.172
0
LINE
8
Black
10
131.751
20
-106.172
11
131.752
21
-106.166
0
LINE
8
Black
10
131.752
20
-106.166
11
131.752
21
-106.159
0
LINE
8
Black
10
131.752
20
-106.159
11
131.754
21
-106.153
0
LINE
8
Black
10
131.754
20
-106.153
11
131.756
21
-106.146
0
LINE
8
Black
10
131.756
20
-106.146
11
131.759
21
-106.141
0
LINE
8
Black
10
131.759
20
-106.141
11
131.761
21
-106.135
0
LINE
8
Black
10
131.761
20
-106.135
11
131.765
21
-106.129
0
LINE
8
Black
10
131.765
20
-106.129
11
131.769
21
-106.124
0
LINE
8
Black
10
131.769
20
-106.124
11
131.774
21
-106.12
0
LINE
8
Black
10
131.774
20
-106.12
11
131.778
21
-106.115
0
LINE
8
Black
10
131.778
20
-106.115
11
131.783
21
-106.111
0
LINE
8
Black
10
131.783
20
-106.111
11
131.789
21
-106.107
0
LINE
8
Black
10
131.789
20
-106.107
11
131.795
21
-106.105
0
LINE
8
Black
10
131.795
20
-106.105
11
131.8
21
-106.102
0
LINE
8
Black
10
131.8
20
-106.102
11
131.807
21
-106.1
0
LINE
8
Black
10
131.807
20
-106.1
11
131.813
21
-106.098
0
LINE
8
Black
10
131.813
20
-106.098
11
131.82
21
-106.098
0
LINE
8
Black
10
131.82
20
-106.098
11
131.826
21
-106.097
0
LINE
8
Black
10
131.826
20
-106.097
11
143.256
21
-106.097
0
LINE
8
Black
10
143.256
20
-106.097
11
143.262
21
-106.098
0
LINE
8
Black
10
131.901
20
-106.247
11
131.901
21
-127.052
0
LINE
8
Black
10
131.901
20
-127.052
11
143.181
21
-127.052
0
LINE
8
Black
10
143.181
20
-127.052
11
143.181
21
-106.247
0
LINE
8
Black
10
143.181
20
-106.247
11
131.901
21
-106.247
0
LINE
8
Black
10
138.003
20
-123.591
11
138.603
21
-123.591
0
LINE
8
Black
10
138.603
20
-123.591
11
138.603
21
-124.187
0
LINE
8
Black
10
138.603
20
-124.187
11
138.606
21
-124.191
0
LINE
8
Black
10
138.606
20
-124.191
11
138.622
21
-124.234
0
LINE
8
Black
10
138.622
20
-124.234
11
138.641
21
-124.275
0
LINE
8
Black
10
138.641
20
-124.275
11
138.642
21
-124.291
0
LINE
8
Black
10
138.642
20
-124.291
11
138.648
21
-124.305
0
LINE
8
Black
10
138.648
20
-124.305
11
138.648
21
-124.351
0
LINE
8
Black
10
138.648
20
-124.351
11
138.652
21
-124.397
0
LINE
8
Black
10
138.652
20
-124.397
11
138.648
21
-124.411
0
LINE
8
Black
10
138.648
20
-124.411
11
138.648
21
-124.427
0
LINE
8
Black
10
138.648
20
-124.427
11
138.632
21
-124.47
0
LINE
8
Black
10
138.632
20
-124.47
11
138.62
21
-124.514
0
LINE
8
Black
10
138.62
20
-124.514
11
138.611
21
-124.527
0
LINE
8
Black
10
138.611
20
-124.527
11
138.606
21
-124.541
0
LINE
8
Black
10
138.606
20
-124.541
11
138.603
21
-124.545
0
LINE
8
Black
10
138.603
20
-124.545
11
138.603
21
-125.141
0
LINE
8
Black
10
138.603
20
-125.141
11
138.282
21
-125.141
0
LINE
8
Black
10
138.282
20
-125.141
11
138.36
21
-125.354
0
LINE
8
Black
10
138.36
20
-125.354
11
138.36
21
-125.598
0
LINE
8
Black
10
138.36
20
-125.598
11
138.34
21
-125.653
0
LINE
8
Black
10
138.34
20
-125.653
11
138.829
21
-126.142
0
LINE
8
Black
10
138.829
20
-126.142
11
140.401
21
-126.142
0
LINE
8
Black
10
140.401
20
-126.142
11
141.132
21
-125.411
0
LINE
8
Black
10
141.132
20
-125.411
11
141.132
21
-124.706
0
LINE
8
Black
10
141.132
20
-124.706
11
142.332
21
-124.706
0
LINE
8
Black
10
142.332
20
-124.706
11
142.332
21
-125.906
0
LINE
8
Black
10
142.332
20
-125.906
11
141.627
21
-125.906
0
LINE
8
Black
10
141.627
20
-125.906
11
140.793
21
-126.739
0
LINE
8
Black
10
140.793
20
-126.739
11
140.781
21
-126.748
0
LINE
8
Black
10
140.781
20
-126.748
11
140.771
21
-126.76
0
LINE
8
Black
10
140.771
20
-126.76
11
140.731
21
-126.783
0
LINE
8
Black
10
140.731
20
-126.783
11
140.694
21
-126.809
0
LINE
8
Black
10
140.694
20
-126.809
11
140.679
21
-126.813
0
LINE
8
Black
10
140.679
20
-126.813
11
140.666
21
-126.821
0
LINE
8
Black
10
140.666
20
-126.821
11
140.621
21
-126.829
0
LINE
8
Black
10
140.621
20
-126.829
11
140.577
21
-126.841
0
LINE
8
Black
10
140.577
20
-126.841
11
140.561
21
-126.839
0
LINE
8
Black
10
140.561
20
-126.839
11
140.546
21
-126.842
0
LINE
8
Black
10
140.546
20
-126.842
11
138.684
21
-126.842
0
LINE
8
Black
10
138.684
20
-126.842
11
138.669
21
-126.839
0
LINE
8
Black
10
138.669
20
-126.839
11
138.653
21
-126.841
0
LINE
8
Black
10
138.653
20
-126.841
11
138.609
21
-126.829
0
LINE
8
Black
10
138.609
20
-126.829
11
138.564
21
-126.821
0
LINE
8
Black
10
138.564
20
-126.821
11
138.551
21
-126.813
0
LINE
8
Black
10
138.551
20
-126.813
11
138.536
21
-126.809
0
LINE
8
Black
10
138.536
20
-126.809
11
138.499
21
-126.783
0
LINE
8
Black
10
138.499
20
-126.783
11
138.459
21
-126.76
0
LINE
8
Black
10
138.459
20
-126.76
11
138.449
21
-126.748
0
LINE
8
Black
10
138.449
20
-126.748
11
138.437
21
-126.739
0
LINE
8
Black
10
138.437
20
-126.739
11
137.845
21
-126.148
0
LINE
8
Black
10
137.845
20
-126.148
11
137.668
21
-126.179
0
LINE
8
Black
10
137.668
20
-126.179
11
137.428
21
-126.136
0
LINE
8
Black
10
137.428
20
-126.136
11
137.216
21
-126.014
0
LINE
8
Black
10
137.216
20
-126.014
11
137.059
21
-125.827
0
LINE
8
Black
10
137.059
20
-125.827
11
136.976
21
-125.598
0
LINE
8
Black
10
136.976
20
-125.598
11
136.976
21
-125.354
0
LINE
8
Black
10
136.976
20
-125.354
11
137.054
21
-125.141
0
LINE
8
Black
10
137.054
20
-125.141
11
136.733
21
-125.141
0
LINE
8
Black
10
136.733
20
-125.141
11
136.733
21
-124.545
0
LINE
8
Black
10
136.733
20
-124.545
11
136.73
21
-124.541
0
LINE
8
Black
10
136.73
20
-124.541
11
136.688
21
-124.427
0
LINE
8
Black
10
136.688
20
-124.427
11
136.688
21
-124.305
0
LINE
8
Black
10
136.688
20
-124.305
11
136.73
21
-124.191
0
LINE
8
Black
10
136.73
20
-124.191
11
136.733
21
-124.187
0
LINE
8
Black
10
136.733
20
-124.187
11
136.733
21
-123.591
0
LINE
8
Black
10
136.733
20
-123.591
11
137.333
21
-123.591
0
LINE
8
Black
10
137.333
20
-123.591
11
137.333
21
-124.016
0
LINE
8
Black
10
137.333
20
-124.016
11
137.668
21
-124.016
0
LINE
8
Black
10
137.668
20
-124.016
11
138.003
21
-124.016
0
LINE
8
Black
10
138.003
20
-124.016
11
138.003
21
-123.591
0
LINE
8
Black
10
136.063
20
-125.141
11
135.69
21
-125.141
0
LINE
8
Black
10
135.69
20
-125.141
11
135.464
21
-125.367
0
LINE
8
Black
10
135.464
20
-125.367
11
135.455
21
-125.373
0
LINE
8
Black
10
135.455
20
-125.373
11
135.448
21
-125.382
0
LINE
8
Black
10
135.448
20
-125.382
11
135.419
21
-125.398
0
LINE
8
Black
10
135.419
20
-125.398
11
135.393
21
-125.417
0
LINE
8
Black
10
135.393
20
-125.417
11
135.382
21
-125.419
0
LINE
8
Black
10
135.382
20
-125.419
11
135.373
21
-125.425
0
LINE
8
Black
10
135.373
20
-125.425
11
135.34
21
-125.431
0
LINE
8
Black
10
135.34
20
-125.431
11
135.309
21
-125.439
0
LINE
8
Black
10
135.309
20
-125.439
11
135.298
21
-125.438
0
LINE
8
Black
10
135.298
20
-125.438
11
135.287
21
-125.44
0
LINE
8
Black
10
135.287
20
-125.44
11
134.6
21
-125.44
0
LINE
8
Black
10
134.6
20
-125.44
11
134.6
21
-126.19
0
LINE
8
Black
10
134.6
20
-126.19
11
132.1
21
-126.19
0
LINE
8
Black
10
132.1
20
-126.19
11
132.1
21
-124.19
0
LINE
8
Black
10
132.1
20
-124.19
11
134.6
21
-124.19
0
LINE
8
Black
10
134.6
20
-124.19
11
134.6
21
-124.94
0
LINE
8
Black
10
134.6
20
-124.94
11
135.183
21
-124.94
0
LINE
8
Black
10
135.183
20
-124.94
11
135.463
21
-124.66
0
LINE
8
Black
10
135.463
20
-124.66
11
135.463
21
-123.591
0
LINE
8
Black
10
135.463
20
-123.591
11
136.063
21
-123.591
0
LINE
8
Black
10
136.063
20
-123.591
11
136.063
21
-125.141
0
LINE
8
Black
10
134.6
20
-121.038
11
135.613
21
-122.051
0
LINE
8
Black
10
135.613
20
-122.051
11
138.811
21
-122.051
0
LINE
8
Black
10
138.811
20
-122.051
11
138.822
21
-122.053
0
LINE
8
Black
10
138.822
20
-122.053
11
138.833
21
-122.052
0
LINE
8
Black
10
138.833
20
-122.052
11
138.864
21
-122.06
0
LINE
8
Black
10
138.864
20
-122.06
11
138.897
21
-122.066
0
LINE
8
Black
10
138.897
20
-122.066
11
138.906
21
-122.072
0
LINE
8
Black
10
138.906
20
-122.072
11
138.917
21
-122.074
0
LINE
8
Black
10
138.917
20
-122.074
11
138.943
21
-122.093
0
LINE
8
Black
10
138.943
20
-122.093
11
138.972
21
-122.109
0
LINE
8
Black
10
138.972
20
-122.109
11
138.979
21
-122.118
0
LINE
8
Black
10
138.979
20
-122.118
11
138.988
21
-122.124
0
LINE
8
Black
10
138.988
20
-122.124
11
139.75
21
-122.886
0
LINE
8
Black
10
139.75
20
-122.886
11
139.756
21
-122.895
0
LINE
8
Black
10
139.756
20
-122.895
11
139.765
21
-122.902
0
LINE
8
Black
10
139.765
20
-122.902
11
139.781
21
-122.931
0
LINE
8
Black
10
139.781
20
-122.931
11
139.8
21
-122.957
0
LINE
8
Black
10
139.8
20
-122.957
11
139.802
21
-122.968
0
LINE
8
Black
10
139.802
20
-122.968
11
139.808
21
-122.977
0
LINE
8
Black
10
139.808
20
-122.977
11
139.814
21
-123.01
0
LINE
8
Black
10
139.814
20
-123.01
11
139.822
21
-123.041
0
LINE
8
Black
10
139.822
20
-123.041
11
139.821
21
-123.052
0
LINE
8
Black
10
139.821
20
-123.052
11
139.823
21
-123.063
0
LINE
8
Black
10
139.823
20
-123.063
11
139.823
21
-123.591
0
LINE
8
Black
10
139.823
20
-123.591
11
139.873
21
-123.591
0
LINE
8
Black
10
139.873
20
-123.591
11
139.873
21
-125.141
0
LINE
8
Black
10
139.873
20
-125.141
11
139.273
21
-125.141
0
LINE
8
Black
10
139.273
20
-125.141
11
139.273
21
-123.591
0
LINE
8
Black
10
139.273
20
-123.591
11
139.323
21
-123.591
0
LINE
8
Black
10
139.323
20
-123.591
11
139.323
21
-123.167
0
LINE
8
Black
10
139.323
20
-123.167
11
138.707
21
-122.551
0
LINE
8
Black
10
138.707
20
-122.551
11
135.509
21
-122.551
0
LINE
8
Black
10
135.509
20
-122.551
11
135.498
21
-122.549
0
LINE
8
Black
10
135.498
20
-122.549
11
135.487
21
-122.55
0
LINE
8
Black
10
135.487
20
-122.55
11
135.456
21
-122.542
0
LINE
8
Black
10
135.456
20
-122.542
11
135.423
21
-122.536
0
LINE
8
Black
10
135.423
20
-122.536
11
135.414
21
-122.53
0
LINE
8
Black
10
135.414
20
-122.53
11
135.403
21
-122.528
0
LINE
8
Black
10
135.403
20
-122.528
11
135.377
21
-122.509
0
LINE
8
Black
10
135.377
20
-122.509
11
135.348
21
-122.493
0
LINE
8
Black
10
135.348
20
-122.493
11
135.341
21
-122.484
0
LINE
8
Black
10
135.341
20
-122.484
11
135.332
21
-122.478
0
LINE
8
Black
10
135.332
20
-122.478
11
134.6
21
-121.746
0
LINE
8
Black
10
134.6
20
-121.746
11
134.6
21
-122.19
0
LINE
8
Black
10
134.6
20
-122.19
11
132.1
21
-122.19
0
LINE
8
Black
10
132.1
20
-122.19
11
132.1
21
-120.19
0
LINE
8
Black
10
132.1
20
-120.19
11
134.6
21
-120.19
0
LINE
8
Black
10
134.6
20
-120.19
11
134.6
21
-121.038
0
LINE
8
Black
10
142.436
20
-116.004
11
142.671
21
-116.239
0
LINE
8
Black
10
142.671
20
-116.239
11
142.677
21
-116.248
0
LINE
8
Black
10
142.677
20
-116.248
11
142.686
21
-116.255
0
LINE
8
Black
10
142.686
20
-116.255
11
142.702
21
-116.284
0
LINE
8
Black
10
142.702
20
-116.284
11
142.721
21
-116.31
0
LINE
8
Black
10
142.721
20
-116.31
11
142.723
21
-116.321
0
LINE
8
Black
10
142.723
20
-116.321
11
142.729
21
-116.33
0
LINE
8
Black
10
142.729
20
-116.33
11
142.735
21
-116.363
0
LINE
8
Black
10
142.735
20
-116.363
11
142.743
21
-116.394
0
LINE
8
Black
10
142.743
20
-116.394
11
142.742
21
-116.405
0
LINE
8
Black
10
142.742
20
-116.405
11
142.744
21
-116.416
0
LINE
8
Black
10
142.744
20
-116.416
11
142.744
21
-119.888
0
LINE
8
Black
10
142.744
20
-119.888
11
142.742
21
-119.899
0
LINE
8
Black
10
142.742
20
-119.899
11
142.743
21
-119.91
0
LINE
8
Black
10
142.743
20
-119.91
11
142.735
21
-119.941
0
LINE
8
Black
10
142.735
20
-119.941
11
142.729
21
-119.974
0
LINE
8
Black
10
142.729
20
-119.974
11
142.723
21
-119.983
0
LINE
8
Black
10
142.723
20
-119.983
11
142.721
21
-119.994
0
LINE
8
Black
10
142.721
20
-119.994
11
142.702
21
-120.02
0
LINE
8
Black
10
142.702
20
-120.02
11
142.686
21
-120.049
0
LINE
8
Black
10
142.686
20
-120.049
11
142.677
21
-120.056
0
LINE
8
Black
10
142.677
20
-120.056
11
142.671
21
-120.065
0
LINE
8
Black
10
142.671
20
-120.065
11
141.982
21
-120.754
0
LINE
8
Black
10
141.982
20
-120.754
11
141.982
21
-122.506
0
LINE
8
Black
10
141.982
20
-122.506
11
142.332
21
-122.506
0
LINE
8
Black
10
142.332
20
-122.506
11
142.332
21
-123.706
0
LINE
8
Black
10
142.332
20
-123.706
11
141.132
21
-123.706
0
LINE
8
Black
10
141.132
20
-123.706
11
141.132
21
-122.506
0
LINE
8
Black
10
141.132
20
-122.506
11
141.482
21
-122.506
0
LINE
8
Black
10
141.482
20
-122.506
11
141.482
21
-120.65
0
LINE
8
Black
10
141.482
20
-120.65
11
141.484
21
-120.639
0
LINE
8
Black
10
141.484
20
-120.639
11
141.483
21
-120.628
0
LINE
8
Black
10
141.483
20
-120.628
11
141.491
21
-120.597
0
LINE
8
Black
10
141.491
20
-120.597
11
141.497
21
-120.564
0
LINE
8
Black
10
141.497
20
-120.564
11
141.503
21
-120.555
0
LINE
8
Black
10
141.503
20
-120.555
11
141.505
21
-120.544
0
LINE
8
Black
10
141.505
20
-120.544
11
141.524
21
-120.518
0
LINE
8
Black
10
141.524
20
-120.518
11
141.54
21
-120.489
0
LINE
8
Black
10
141.54
20
-120.489
11
141.549
21
-120.482
0
LINE
8
Black
10
141.549
20
-120.482
11
141.555
21
-120.473
0
LINE
8
Black
10
141.555
20
-120.473
11
142.244
21
-119.784
0
LINE
8
Black
10
142.244
20
-119.784
11
142.244
21
-116.52
0
LINE
8
Black
10
142.244
20
-116.52
11
142.232
21
-116.508
0
LINE
8
Black
10
142.232
20
-116.508
11
141.536
21
-116.508
0
LINE
8
Black
10
141.536
20
-116.508
11
141.536
21
-115.308
0
LINE
8
Black
10
141.536
20
-115.308
11
142.436
21
-115.308
0
LINE
8
Black
10
142.436
20
-115.308
11
142.436
21
-116.004
0
LINE
8
Black
10
133.467
20
-110.585
11
133.446
21
-110.585
0
LINE
8
Black
10
133.446
20
-110.585
11
133.446
21
-117.711
0
LINE
8
Black
10
133.446
20
-117.711
11
134.351
21
-118.616
0
LINE
8
Black
10
134.351
20
-118.616
11
135.463
21
-118.616
0
LINE
8
Black
10
135.463
20
-118.616
11
135.463
21
-118.191
0
LINE
8
Black
10
135.463
20
-118.191
11
136.063
21
-118.191
0
LINE
8
Black
10
136.063
20
-118.191
11
136.063
21
-118.787
0
LINE
8
Black
10
136.063
20
-118.787
11
136.066
21
-118.791
0
LINE
8
Black
10
136.066
20
-118.791
11
136.077
21
-118.82
0
LINE
8
Black
10
136.077
20
-118.82
11
136.092
21
-118.846
0
LINE
8
Black
10
136.092
20
-118.846
11
136.097
21
-118.876
0
LINE
8
Black
10
136.097
20
-118.876
11
136.108
21
-118.905
0
LINE
8
Black
10
136.108
20
-118.905
11
136.108
21
-118.936
0
LINE
8
Black
10
136.108
20
-118.936
11
136.113
21
-118.966
0
LINE
8
Black
10
136.113
20
-118.966
11
136.113
21
-119.87
0
LINE
8
Black
10
136.113
20
-119.87
11
136.543
21
-120.3
0
LINE
8
Black
10
136.543
20
-120.3
11
139.047
21
-120.3
0
LINE
8
Black
10
139.047
20
-120.3
11
139.223
21
-120.124
0
LINE
8
Black
10
139.223
20
-120.124
11
139.223
21
-118.966
0
LINE
8
Black
10
139.223
20
-118.966
11
139.226
21
-118.951
0
LINE
8
Black
10
139.226
20
-118.951
11
139.224
21
-118.935
0
LINE
8
Black
10
139.224
20
-118.935
11
139.236
21
-118.891
0
LINE
8
Black
10
139.236
20
-118.891
11
139.244
21
-118.846
0
LINE
8
Black
10
139.244
20
-118.846
11
139.252
21
-118.833
0
LINE
8
Black
10
139.252
20
-118.833
11
139.256
21
-118.818
0
LINE
8
Black
10
139.256
20
-118.818
11
139.273
21
-118.794
0
LINE
8
Black
10
139.273
20
-118.794
11
139.273
21
-118.191
0
LINE
8
Black
10
139.273
20
-118.191
11
139.477
21
-118.191
0
LINE
8
Black
10
139.477
20
-118.191
11
139.477
21
-116.459
0
LINE
8
Black
10
139.477
20
-116.459
11
139.498
21
-116.339
0
LINE
8
Black
10
139.498
20
-116.339
11
139.559
21
-116.234
0
LINE
8
Black
10
139.559
20
-116.234
11
139.573
21
-116.222
0
LINE
8
Black
10
139.573
20
-116.222
11
139.573
21
-115.888
0
LINE
8
Black
10
139.573
20
-115.888
11
140.081
21
-115.888
0
LINE
8
Black
10
140.081
20
-115.888
11
140.081
21
-116.222
0
LINE
8
Black
10
140.081
20
-116.222
11
140.095
21
-116.234
0
LINE
8
Black
10
140.095
20
-116.234
11
140.156
21
-116.339
0
LINE
8
Black
10
140.156
20
-116.339
11
140.177
21
-116.459
0
LINE
8
Black
10
140.177
20
-116.459
11
140.177
21
-116.568
0
LINE
8
Black
10
140.177
20
-116.568
11
140.793
21
-117.184
0
LINE
8
Black
10
140.793
20
-117.184
11
140.97
21
-117.153
0
LINE
8
Black
10
140.97
20
-117.153
11
141.21
21
-117.196
0
LINE
8
Black
10
141.21
20
-117.196
11
141.422
21
-117.318
0
LINE
8
Black
10
141.422
20
-117.318
11
141.579
21
-117.505
0
LINE
8
Black
10
141.579
20
-117.505
11
141.662
21
-117.734
0
LINE
8
Black
10
141.662
20
-117.734
11
141.662
21
-117.978
0
LINE
8
Black
10
141.662
20
-117.978
11
141.579
21
-118.207
0
LINE
8
Black
10
141.579
20
-118.207
11
141.422
21
-118.394
0
LINE
8
Black
10
141.422
20
-118.394
11
141.21
21
-118.516
0
LINE
8
Black
10
141.21
20
-118.516
11
140.97
21
-118.559
0
LINE
8
Black
10
140.97
20
-118.559
11
140.73
21
-118.516
0
LINE
8
Black
10
140.73
20
-118.516
11
140.518
21
-118.394
0
LINE
8
Black
10
140.518
20
-118.394
11
140.361
21
-118.207
0
LINE
8
Black
10
140.361
20
-118.207
11
140.278
21
-117.978
0
LINE
8
Black
10
140.278
20
-117.978
11
140.278
21
-117.734
0
LINE
8
Black
10
140.278
20
-117.734
11
140.298
21
-117.679
0
LINE
8
Black
10
140.298
20
-117.679
11
140.177
21
-117.558
0
LINE
8
Black
10
140.177
20
-117.558
11
140.177
21
-118.712
0
LINE
8
Black
10
140.177
20
-118.712
11
140.174
21
-118.727
0
LINE
8
Black
10
140.174
20
-118.727
11
140.176
21
-118.743
0
LINE
8
Black
10
140.176
20
-118.743
11
140.164
21
-118.787
0
LINE
8
Black
10
140.164
20
-118.787
11
140.156
21
-118.832
0
LINE
8
Black
10
140.156
20
-118.832
11
140.148
21
-118.845
0
LINE
8
Black
10
140.148
20
-118.845
11
140.144
21
-118.86
0
LINE
8
Black
10
140.144
20
-118.86
11
140.118
21
-118.897
0
LINE
8
Black
10
140.118
20
-118.897
11
140.095
21
-118.937
0
LINE
8
Black
10
140.095
20
-118.937
11
140.083
21
-118.947
0
LINE
8
Black
10
140.083
20
-118.947
11
140.074
21
-118.959
0
LINE
8
Black
10
140.074
20
-118.959
11
139.923
21
-119.111
0
LINE
8
Black
10
139.923
20
-119.111
11
139.923
21
-120.269
0
LINE
8
Black
10
139.923
20
-120.269
11
139.92
21
-120.284
0
LINE
8
Black
10
139.92
20
-120.284
11
139.922
21
-120.3
0
LINE
8
Black
10
139.922
20
-120.3
11
139.91
21
-120.344
0
LINE
8
Black
10
139.91
20
-120.344
11
139.902
21
-120.389
0
LINE
8
Black
10
139.902
20
-120.389
11
139.894
21
-120.402
0
LINE
8
Black
10
139.894
20
-120.402
11
139.89
21
-120.417
0
LINE
8
Black
10
139.89
20
-120.417
11
139.864
21
-120.454
0
LINE
8
Black
10
139.864
20
-120.454
11
139.841
21
-120.494
0
LINE
8
Black
10
139.841
20
-120.494
11
139.829
21
-120.504
0
LINE
8
Black
10
139.829
20
-120.504
11
139.82
21
-120.516
0
LINE
8
Black
10
139.82
20
-120.516
11
139.439
21
-120.897
0
LINE
8
Black
10
139.439
20
-120.897
11
139.427
21
-120.906
0
LINE
8
Black
10
139.427
20
-120.906
11
139.417
21
-120.918
0
LINE
8
Black
10
139.417
20
-120.918
11
139.377
21
-120.941
0
LINE
8
Black
10
139.377
20
-120.941
11
139.34
21
-120.967
0
LINE
8
Black
10
139.34
20
-120.967
11
139.325
21
-120.971
0
LINE
8
Black
10
139.325
20
-120.971
11
139.312
21
-120.979
0
LINE
8
Black
10
139.312
20
-120.979
11
139.267
21
-120.987
0
LINE
8
Black
10
139.267
20
-120.987
11
139.223
21
-120.999
0
LINE
8
Black
10
139.223
20
-120.999
11
139.207
21
-120.997
0
LINE
8
Black
10
139.207
20
-120.997
11
139.192
21
-121
0
LINE
8
Black
10
139.192
20
-121
11
136.398
21
-121
0
LINE
8
Black
10
136.398
20
-121
11
136.383
21
-120.997
0
LINE
8
Black
10
136.383
20
-120.997
11
136.367
21
-120.999
0
LINE
8
Black
10
136.367
20
-120.999
11
136.323
21
-120.987
0
LINE
8
Black
10
136.323
20
-120.987
11
136.278
21
-120.979
0
LINE
8
Black
10
136.278
20
-120.979
11
136.265
21
-120.971
0
LINE
8
Black
10
136.265
20
-120.971
11
136.25
21
-120.967
0
LINE
8
Black
10
136.25
20
-120.967
11
136.213
21
-120.941
0
LINE
8
Black
10
136.213
20
-120.941
11
136.173
21
-120.918
0
LINE
8
Black
10
136.173
20
-120.918
11
136.163
21
-120.906
0
LINE
8
Black
10
136.163
20
-120.906
11
136.151
21
-120.897
0
LINE
8
Black
10
136.151
20
-120.897
11
135.516
21
-120.262
0
LINE
8
Black
10
135.516
20
-120.262
11
135.507
21
-120.25
0
LINE
8
Black
10
135.507
20
-120.25
11
135.495
21
-120.24
0
LINE
8
Black
10
135.495
20
-120.24
11
135.472
21
-120.2
0
LINE
8
Black
10
135.472
20
-120.2
11
135.446
21
-120.163
0
LINE
8
Black
10
135.446
20
-120.163
11
135.442
21
-120.148
0
LINE
8
Black
10
135.442
20
-120.148
11
135.434
21
-120.135
0
LINE
8
Black
10
135.434
20
-120.135
11
135.426
21
-120.09
0
LINE
8
Black
10
135.426
20
-120.09
11
135.414
21
-120.046
0
LINE
8
Black
10
135.414
20
-120.046
11
135.416
21
-120.03
0
LINE
8
Black
10
135.416
20
-120.03
11
135.413
21
-120.015
0
LINE
8
Black
10
135.413
20
-120.015
11
135.413
21
-119.316
0
LINE
8
Black
10
135.413
20
-119.316
11
134.206
21
-119.316
0
LINE
8
Black
10
134.206
20
-119.316
11
134.191
21
-119.313
0
LINE
8
Black
10
134.191
20
-119.313
11
134.175
21
-119.315
0
LINE
8
Black
10
134.175
20
-119.315
11
134.131
21
-119.303
0
LINE
8
Black
10
134.131
20
-119.303
11
134.086
21
-119.295
0
LINE
8
Black
10
134.086
20
-119.295
11
134.073
21
-119.287
0
LINE
8
Black
10
134.073
20
-119.287
11
134.058
21
-119.283
0
LINE
8
Black
10
134.058
20
-119.283
11
134.021
21
-119.257
0
LINE
8
Black
10
134.021
20
-119.257
11
133.981
21
-119.234
0
LINE
8
Black
10
133.981
20
-119.234
11
133.971
21
-119.222
0
LINE
8
Black
10
133.971
20
-119.222
11
133.959
21
-119.213
0
LINE
8
Black
10
133.959
20
-119.213
11
132.849
21
-118.103
0
LINE
8
Black
10
132.849
20
-118.103
11
132.84
21
-118.091
0
LINE
8
Black
10
132.84
20
-118.091
11
132.828
21
-118.081
0
LINE
8
Black
10
132.828
20
-118.081
11
132.805
21
-118.041
0
LINE
8
Black
10
132.805
20
-118.041
11
132.779
21
-118.004
0
LINE
8
Black
10
132.779
20
-118.004
11
132.775
21
-117.989
0
LINE
8
Black
10
132.775
20
-117.989
11
132.767
21
-117.976
0
LINE
8
Black
10
132.767
20
-117.976
11
132.759
21
-117.931
0
LINE
8
Black
10
132.759
20
-117.931
11
132.747
21
-117.887
0
LINE
8
Black
10
132.747
20
-117.887
11
132.749
21
-117.871
0
LINE
8
Black
10
132.749
20
-117.871
11
132.746
21
-117.856
0
LINE
8
Black
10
132.746
20
-117.856
11
132.746
21
-110.585
0
LINE
8
Black
10
132.746
20
-110.585
11
132.217
21
-110.585
0
LINE
8
Black
10
132.217
20
-110.585
11
132.217
21
-109.085
0
LINE
8
Black
10
132.217
20
-109.085
11
133.467
21
-109.085
0
LINE
8
Black
10
133.467
20
-109.085
11
133.467
21
-110.585
0
LINE
8
Black
10
138.811
20
-117.031
11
138.807
21
-117.031
0
LINE
8
Black
10
138.807
20
-117.031
11
138.807
21
-117.475
0
LINE
8
Black
10
138.807
20
-117.475
11
138.805
21
-117.486
0
LINE
8
Black
10
138.805
20
-117.486
11
138.806
21
-117.497
0
LINE
8
Black
10
138.806
20
-117.497
11
138.798
21
-117.528
0
LINE
8
Black
10
138.798
20
-117.528
11
138.792
21
-117.561
0
LINE
8
Black
10
138.792
20
-117.561
11
138.786
21
-117.57
0
LINE
8
Black
10
138.786
20
-117.57
11
138.784
21
-117.581
0
LINE
8
Black
10
138.784
20
-117.581
11
138.765
21
-117.607
0
LINE
8
Black
10
138.765
20
-117.607
11
138.749
21
-117.636
0
LINE
8
Black
10
138.749
20
-117.636
11
138.74
21
-117.643
0
LINE
8
Black
10
138.74
20
-117.643
11
138.734
21
-117.652
0
LINE
8
Black
10
138.734
20
-117.652
11
138.553
21
-117.833
0
LINE
8
Black
10
138.553
20
-117.833
11
138.553
21
-118.191
0
LINE
8
Black
10
138.553
20
-118.191
11
138.603
21
-118.191
0
LINE
8
Black
10
138.603
20
-118.191
11
138.603
21
-119.741
0
LINE
8
Black
10
138.603
20
-119.741
11
138.003
21
-119.741
0
LINE
8
Black
10
138.003
20
-119.741
11
138.003
21
-118.191
0
LINE
8
Black
10
138.003
20
-118.191
11
138.053
21
-118.191
0
LINE
8
Black
10
138.053
20
-118.191
11
138.053
21
-117.729
0
LINE
8
Black
10
138.053
20
-117.729
11
138.055
21
-117.718
0
LINE
8
Black
10
138.055
20
-117.718
11
138.054
21
-117.707
0
LINE
8
Black
10
138.054
20
-117.707
11
138.062
21
-117.676
0
LINE
8
Black
10
138.062
20
-117.676
11
138.068
21
-117.643
0
LINE
8
Black
10
138.068
20
-117.643
11
138.074
21
-117.634
0
LINE
8
Black
10
138.074
20
-117.634
11
138.076
21
-117.623
0
LINE
8
Black
10
138.076
20
-117.623
11
138.095
21
-117.597
0
LINE
8
Black
10
138.095
20
-117.597
11
138.111
21
-117.568
0
LINE
8
Black
10
138.111
20
-117.568
11
138.12
21
-117.561
0
LINE
8
Black
10
138.12
20
-117.561
11
138.126
21
-117.552
0
LINE
8
Black
10
138.126
20
-117.552
11
138.307
21
-117.371
0
LINE
8
Black
10
138.307
20
-117.371
11
138.307
21
-117.031
0
LINE
8
Black
10
138.307
20
-117.031
11
138.303
21
-117.031
0
LINE
8
Black
10
138.303
20
-117.031
11
138.303
21
-115.888
0
LINE
8
Black
10
138.303
20
-115.888
11
138.811
21
-115.888
0
LINE
8
Black
10
138.811
20
-115.888
11
138.811
21
-117.031
0
LINE
8
Black
10
137.541
20
-117.031
11
137.537
21
-117.031
0
LINE
8
Black
10
137.537
20
-117.031
11
137.537
21
-117.475
0
LINE
8
Black
10
137.537
20
-117.475
11
137.535
21
-117.486
0
LINE
8
Black
10
137.535
20
-117.486
11
137.536
21
-117.497
0
LINE
8
Black
10
137.536
20
-117.497
11
137.528
21
-117.528
0
LINE
8
Black
10
137.528
20
-117.528
11
137.522
21
-117.561
0
LINE
8
Black
10
137.522
20
-117.561
11
137.516
21
-117.57
0
LINE
8
Black
10
137.516
20
-117.57
11
137.514
21
-117.581
0
LINE
8
Black
10
137.514
20
-117.581
11
137.495
21
-117.607
0
LINE
8
Black
10
137.495
20
-117.607
11
137.479
21
-117.636
0
LINE
8
Black
10
137.479
20
-117.636
11
137.47
21
-117.643
0
LINE
8
Black
10
137.47
20
-117.643
11
137.464
21
-117.652
0
LINE
8
Black
10
137.464
20
-117.652
11
137.283
21
-117.833
0
LINE
8
Black
10
137.283
20
-117.833
11
137.283
21
-118.191
0
LINE
8
Black
10
137.283
20
-118.191
11
137.333
21
-118.191
0
LINE
8
Black
10
137.333
20
-118.191
11
137.333
21
-119.741
0
LINE
8
Black
10
137.333
20
-119.741
11
136.733
21
-119.741
0
LINE
8
Black
10
136.733
20
-119.741
11
136.733
21
-118.191
0
LINE
8
Black
10
136.733
20
-118.191
11
136.783
21
-118.191
0
LINE
8
Black
10
136.783
20
-118.191
11
136.783
21
-117.729
0
LINE
8
Black
10
136.783
20
-117.729
11
136.785
21
-117.718
0
LINE
8
Black
10
136.785
20
-117.718
11
136.784
21
-117.707
0
LINE
8
Black
10
136.784
20
-117.707
11
136.792
21
-117.676
0
LINE
8
Black
10
136.792
20
-117.676
11
136.798
21
-117.643
0
LINE
8
Black
10
136.798
20
-117.643
11
136.804
21
-117.634
0
LINE
8
Black
10
136.804
20
-117.634
11
136.806
21
-117.623
0
LINE
8
Black
10
136.806
20
-117.623
11
136.825
21
-117.597
0
LINE
8
Black
10
136.825
20
-117.597
11
136.841
21
-117.568
0
LINE
8
Black
10
136.841
20
-117.568
11
136.85
21
-117.561
0
LINE
8
Black
10
136.85
20
-117.561
11
136.856
21
-117.552
0
LINE
8
Black
10
136.856
20
-117.552
11
137.037
21
-117.371
0
LINE
8
Black
10
137.037
20
-117.371
11
137.037
21
-117.031
0
LINE
8
Black
10
137.037
20
-117.031
11
137.033
21
-117.031
0
LINE
8
Black
10
137.033
20
-117.031
11
137.033
21
-115.888
0
LINE
8
Black
10
137.033
20
-115.888
11
137.541
21
-115.888
0
LINE
8
Black
10
137.541
20
-115.888
11
137.541
21
-117.031
0
LINE
8
Black
10
134.943
20
-116.209
11
135.763
21
-116.209
0
LINE
8
Black
10
135.763
20
-116.209
11
135.763
21
-115.888
0
LINE
8
Black
10
135.763
20
-115.888
11
136.271
21
-115.888
0
LINE
8
Black
10
136.271
20
-115.888
11
136.271
21
-117.031
0
LINE
8
Black
10
136.271
20
-117.031
11
135.763
21
-117.031
0
LINE
8
Black
10
135.763
20
-117.031
11
135.763
21
-116.709
0
LINE
8
Black
10
135.763
20
-116.709
11
134.943
21
-116.709
0
LINE
8
Black
10
134.943
20
-116.709
11
134.943
21
-116.762
0
LINE
8
Black
10
134.943
20
-116.762
11
134.043
21
-116.762
0
LINE
8
Black
10
134.043
20
-116.762
11
134.043
21
-115.562
0
LINE
8
Black
10
134.043
20
-115.562
11
134.943
21
-115.562
0
LINE
8
Black
10
134.943
20
-115.562
11
134.943
21
-116.209
0
LINE
8
Black
10
136.271
20
-110.681
11
135.853
21
-110.681
0
LINE
8
Black
10
135.853
20
-110.681
11
135.853
21
-110.706
0
LINE
8
Black
10
135.853
20
-110.706
11
135.77
21
-110.935
0
LINE
8
Black
10
135.77
20
-110.935
11
135.613
21
-111.122
0
LINE
8
Black
10
135.613
20
-111.122
11
135.401
21
-111.244
0
LINE
8
Black
10
135.401
20
-111.244
11
135.161
21
-111.287
0
LINE
8
Black
10
135.161
20
-111.287
11
134.984
21
-111.256
0
LINE
8
Black
10
134.984
20
-111.256
11
134.843
21
-111.397
0
LINE
8
Black
10
134.843
20
-111.397
11
134.843
21
-113.362
0
LINE
8
Black
10
134.843
20
-113.362
11
134.943
21
-113.362
0
LINE
8
Black
10
134.943
20
-113.362
11
134.943
21
-114.562
0
LINE
8
Black
10
134.943
20
-114.562
11
134.043
21
-114.562
0
LINE
8
Black
10
134.043
20
-114.562
11
134.043
21
-113.362
0
LINE
8
Black
10
134.043
20
-113.362
11
134.143
21
-113.362
0
LINE
8
Black
10
134.143
20
-113.362
11
134.143
21
-111.252
0
LINE
8
Black
10
134.143
20
-111.252
11
134.146
21
-111.237
0
LINE
8
Black
10
134.146
20
-111.237
11
134.144
21
-111.221
0
LINE
8
Black
10
134.144
20
-111.221
11
134.156
21
-111.177
0
LINE
8
Black
10
134.156
20
-111.177
11
134.164
21
-111.132
0
LINE
8
Black
10
134.164
20
-111.132
11
134.172
21
-111.119
0
LINE
8
Black
10
134.172
20
-111.119
11
134.176
21
-111.104
0
LINE
8
Black
10
134.176
20
-111.104
11
134.202
21
-111.067
0
LINE
8
Black
10
134.202
20
-111.067
11
134.225
21
-111.027
0
LINE
8
Black
10
134.225
20
-111.027
11
134.237
21
-111.017
0
LINE
8
Black
10
134.237
20
-111.017
11
134.246
21
-111.005
0
LINE
8
Black
10
134.246
20
-111.005
11
134.489
21
-110.761
0
LINE
8
Black
10
134.489
20
-110.761
11
134.469
21
-110.706
0
LINE
8
Black
10
134.469
20
-110.706
11
134.469
21
-110.462
0
LINE
8
Black
10
134.469
20
-110.462
11
134.552
21
-110.233
0
LINE
8
Black
10
134.552
20
-110.233
11
134.709
21
-110.046
0
LINE
8
Black
10
134.709
20
-110.046
11
134.921
21
-109.924
0
LINE
8
Black
10
134.921
20
-109.924
11
135.161
21
-109.881
0
LINE
8
Black
10
135.161
20
-109.881
11
135.401
21
-109.924
0
LINE
8
Black
10
135.401
20
-109.924
11
135.551
21
-110.01
0
LINE
8
Black
10
135.551
20
-110.01
11
135.712
21
-109.933
0
LINE
8
Black
10
135.712
20
-109.933
11
135.744
21
-109.907
0
LINE
8
Black
10
135.744
20
-109.907
11
135.763
21
-109.9
0
LINE
8
Black
10
135.763
20
-109.9
11
135.763
21
-109.538
0
LINE
8
Black
10
135.763
20
-109.538
11
136.271
21
-109.538
0
LINE
8
Black
10
136.271
20
-109.538
11
136.271
21
-110.681
0
LINE
8
Black
10
140.343
20
-107.813
11
139.843
21
-107.813
0
LINE
8
Black
10
139.843
20
-107.813
11
139.843
21
-107.93
0
LINE
8
Black
10
139.843
20
-107.93
11
139.841
21
-107.941
0
LINE
8
Black
10
139.841
20
-107.941
11
139.842
21
-107.952
0
LINE
8
Black
10
139.842
20
-107.952
11
139.834
21
-107.983
0
LINE
8
Black
10
139.834
20
-107.983
11
139.828
21
-108.016
0
LINE
8
Black
10
139.828
20
-108.016
11
139.822
21
-108.025
0
LINE
8
Black
10
139.822
20
-108.025
11
139.82
21
-108.036
0
LINE
8
Black
10
139.82
20
-108.036
11
139.801
21
-108.062
0
LINE
8
Black
10
139.801
20
-108.062
11
139.785
21
-108.091
0
LINE
8
Black
10
139.785
20
-108.091
11
139.776
21
-108.098
0
LINE
8
Black
10
139.776
20
-108.098
11
139.77
21
-108.107
0
LINE
8
Black
10
139.77
20
-108.107
11
138.807
21
-109.07
0
LINE
8
Black
10
138.807
20
-109.07
11
138.807
21
-109.538
0
LINE
8
Black
10
138.807
20
-109.538
11
138.811
21
-109.538
0
LINE
8
Black
10
138.811
20
-109.538
11
138.811
21
-110.681
0
LINE
8
Black
10
138.811
20
-110.681
11
138.807
21
-110.681
0
LINE
8
Black
10
138.807
20
-110.681
11
138.807
21
-111.529
0
LINE
8
Black
10
138.807
20
-111.529
11
140.736
21
-113.458
0
LINE
8
Black
10
140.736
20
-113.458
11
141.536
21
-113.458
0
LINE
8
Black
10
141.536
20
-113.458
11
141.536
21
-113.108
0
LINE
8
Black
10
141.536
20
-113.108
11
142.436
21
-113.108
0
LINE
8
Black
10
142.436
20
-113.108
11
142.436
21
-114.308
0
LINE
8
Black
10
142.436
20
-114.308
11
141.536
21
-114.308
0
LINE
8
Black
10
141.536
20
-114.308
11
141.536
21
-113.958
0
LINE
8
Black
10
141.536
20
-113.958
11
140.632
21
-113.958
0
LINE
8
Black
10
140.632
20
-113.958
11
140.621
21
-113.956
0
LINE
8
Black
10
140.621
20
-113.956
11
140.61
21
-113.957
0
LINE
8
Black
10
140.61
20
-113.957
11
140.579
21
-113.949
0
LINE
8
Black
10
140.579
20
-113.949
11
140.546
21
-113.943
0
LINE
8
Black
10
140.546
20
-113.943
11
140.537
21
-113.937
0
LINE
8
Black
10
140.537
20
-113.937
11
140.526
21
-113.935
0
LINE
8
Black
10
140.526
20
-113.935
11
140.5
21
-113.916
0
LINE
8
Black
10
140.5
20
-113.916
11
140.471
21
-113.9
0
LINE
8
Black
10
140.471
20
-113.9
11
140.464
21
-113.891
0
LINE
8
Black
10
140.464
20
-113.891
11
140.455
21
-113.885
0
LINE
8
Black
10
140.455
20
-113.885
11
138.38
21
-111.81
0
LINE
8
Black
10
138.38
20
-111.81
11
138.374
21
-111.801
0
LINE
8
Black
10
138.374
20
-111.801
11
138.365
21
-111.794
0
LINE
8
Black
10
138.365
20
-111.794
11
138.349
21
-111.765
0
LINE
8
Black
10
138.349
20
-111.765
11
138.33
21
-111.739
0
LINE
8
Black
10
138.33
20
-111.739
11
138.328
21
-111.728
0
LINE
8
Black
10
138.328
20
-111.728
11
138.322
21
-111.719
0
LINE
8
Black
10
138.322
20
-111.719
11
138.316
21
-111.686
0
LINE
8
Black
10
138.316
20
-111.686
11
138.308
21
-111.655
0
LINE
8
Black
10
138.308
20
-111.655
11
138.309
21
-111.644
0
LINE
8
Black
10
138.309
20
-111.644
11
138.307
21
-111.633
0
LINE
8
Black
10
138.307
20
-111.633
11
138.307
21
-110.681
0
LINE
8
Black
10
138.307
20
-110.681
11
138.303
21
-110.681
0
LINE
8
Black
10
138.303
20
-110.681
11
138.303
21
-109.538
0
LINE
8
Black
10
138.303
20
-109.538
11
138.307
21
-109.538
0
LINE
8
Black
10
138.307
20
-109.538
11
138.307
21
-108.966
0
LINE
8
Black
10
138.307
20
-108.966
11
138.309
21
-108.955
0
LINE
8
Black
10
138.309
20
-108.955
11
138.308
21
-108.944
0
LINE
8
Black
10
138.308
20
-108.944
11
138.316
21
-108.913
0
LINE
8
Black
10
138.316
20
-108.913
11
138.322
21
-108.88
0
LINE
8
Black
10
138.322
20
-108.88
11
138.328
21
-108.871
0
LINE
8
Black
10
138.328
20
-108.871
11
138.33
21
-108.86
0
LINE
8
Black
10
138.33
20
-108.86
11
138.349
21
-108.834
0
LINE
8
Black
10
138.349
20
-108.834
11
138.365
21
-108.805
0
LINE
8
Black
10
138.365
20
-108.805
11
138.374
21
-108.798
0
LINE
8
Black
10
138.374
20
-108.798
11
138.38
21
-108.789
0
LINE
8
Black
10
138.38
20
-108.789
11
139.343
21
-107.826
0
LINE
8
Black
10
139.343
20
-107.826
11
139.343
21
-107.813
0
LINE
8
Black
10
139.343
20
-107.813
11
138.843
21
-107.813
0
LINE
8
Black
10
138.843
20
-107.813
11
138.843
21
-106.563
0
LINE
8
Black
10
138.843
20
-106.563
11
140.343
21
-106.563
0
LINE
8
Black
10
140.343
20
-106.563
11
140.343
21
-107.813
0
LINE
8
Black
10
142.843
20
-107.813
11
142.343
21
-107.813
0
LINE
8
Black
10
142.343
20
-107.813
11
142.343
21
-109.113
0
LINE
8
Black
10
142.343
20
-109.113
11
142.341
21
-109.124
0
LINE
8
Black
10
142.341
20
-109.124
11
142.342
21
-109.135
0
LINE
8
Black
10
142.342
20
-109.135
11
142.334
21
-109.166
0
LINE
8
Black
10
142.334
20
-109.166
11
142.328
21
-109.199
0
LINE
8
Black
10
142.328
20
-109.199
11
142.322
21
-109.208
0
LINE
8
Black
10
142.322
20
-109.208
11
142.32
21
-109.219
0
LINE
8
Black
10
142.32
20
-109.219
11
142.301
21
-109.245
0
LINE
8
Black
10
142.301
20
-109.245
11
142.285
21
-109.274
0
LINE
8
Black
10
142.285
20
-109.274
11
142.276
21
-109.281
0
LINE
8
Black
10
142.276
20
-109.281
11
142.27
21
-109.29
0
LINE
8
Black
10
142.27
20
-109.29
11
141.274
21
-110.286
0
LINE
8
Black
10
141.274
20
-110.286
11
141.265
21
-110.292
0
LINE
8
Black
10
141.265
20
-110.292
11
141.258
21
-110.301
0
LINE
8
Black
10
141.258
20
-110.301
11
141.229
21
-110.317
0
LINE
8
Black
10
141.229
20
-110.317
11
141.203
21
-110.336
0
LINE
8
Black
10
141.203
20
-110.336
11
141.192
21
-110.338
0
LINE
8
Black
10
141.192
20
-110.338
11
141.183
21
-110.344
0
LINE
8
Black
10
141.183
20
-110.344
11
141.15
21
-110.35
0
LINE
8
Black
10
141.15
20
-110.35
11
141.119
21
-110.358
0
LINE
8
Black
10
141.119
20
-110.358
11
141.108
21
-110.357
0
LINE
8
Black
10
141.108
20
-110.357
11
141.097
21
-110.359
0
LINE
8
Black
10
141.097
20
-110.359
11
140.081
21
-110.359
0
LINE
8
Black
10
140.081
20
-110.359
11
140.081
21
-110.681
0
LINE
8
Black
10
140.081
20
-110.681
11
139.573
21
-110.681
0
LINE
8
Black
10
139.573
20
-110.681
11
139.573
21
-109.538
0
LINE
8
Black
10
139.573
20
-109.538
11
140.081
21
-109.538
0
LINE
8
Black
10
140.081
20
-109.538
11
140.081
21
-109.859
0
LINE
8
Black
10
140.081
20
-109.859
11
140.993
21
-109.859
0
LINE
8
Black
10
140.993
20
-109.859
11
141.843
21
-109.009
0
LINE
8
Black
10
141.843
20
-109.009
11
141.843
21
-107.813
0
LINE
8
Black
10
141.843
20
-107.813
11
141.343
21
-107.813
0
LINE
8
Black
10
141.343
20
-107.813
11
141.343
21
-106.563
0
LINE
8
Black
10
141.343
20
-106.563
11
142.843
21
-106.563
0
LINE
8
Black
10
142.843
20
-106.563
11
142.843
21
-107.813
0
LINE
8
Black
10
137.717
20
-107.892
11
137.367
21
-107.892
0
LINE
8
Black
10
137.367
20
-107.892
11
137.367
21
-108.311
0
LINE
8
Black
10
137.367
20
-108.311
11
137.464
21
-108.408
0
LINE
8
Black
10
137.464
20
-108.408
11
137.47
21
-108.417
0
LINE
8
Black
10
137.47
20
-108.417
11
137.479
21
-108.424
0
LINE
8
Black
10
137.479
20
-108.424
11
137.495
21
-108.453
0
LINE
8
Black
10
137.495
20
-108.453
11
137.514
21
-108.479
0
LINE
8
Black
10
137.514
20
-108.479
11
137.516
21
-108.49
0
LINE
8
Black
10
137.516
20
-108.49
11
137.522
21
-108.499
0
LINE
8
Black
10
137.522
20
-108.499
11
137.528
21
-108.532
0
LINE
8
Black
10
137.528
20
-108.532
11
137.536
21
-108.563
0
LINE
8
Black
10
137.536
20
-108.563
11
137.535
21
-108.574
0
LINE
8
Black
10
137.535
20
-108.574
11
137.537
21
-108.585
0
LINE
8
Black
10
137.537
20
-108.585
11
137.537
21
-109.538
0
LINE
8
Black
10
137.537
20
-109.538
11
137.541
21
-109.538
0
LINE
8
Black
10
137.541
20
-109.538
11
137.541
21
-110.681
0
LINE
8
Black
10
137.541
20
-110.681
11
137.033
21
-110.681
0
LINE
8
Black
10
137.033
20
-110.681
11
137.033
21
-109.538
0
LINE
8
Black
10
137.033
20
-109.538
11
137.037
21
-109.538
0
LINE
8
Black
10
137.037
20
-109.538
11
137.037
21
-108.689
0
LINE
8
Black
10
137.037
20
-108.689
11
136.94
21
-108.592
0
LINE
8
Black
10
136.94
20
-108.592
11
136.934
21
-108.583
0
LINE
8
Black
10
136.934
20
-108.583
11
136.925
21
-108.576
0
LINE
8
Black
10
136.925
20
-108.576
11
136.909
21
-108.547
0
LINE
8
Black
10
136.909
20
-108.547
11
136.89
21
-108.521
0
LINE
8
Black
10
136.89
20
-108.521
11
136.888
21
-108.51
0
LINE
8
Black
10
136.888
20
-108.51
11
136.882
21
-108.501
0
LINE
8
Black
10
136.882
20
-108.501
11
136.876
21
-108.468
0
LINE
8
Black
10
136.876
20
-108.468
11
136.868
21
-108.437
0
LINE
8
Black
10
136.868
20
-108.437
11
136.869
21
-108.426
0
LINE
8
Black
10
136.869
20
-108.426
11
136.867
21
-108.415
0
LINE
8
Black
10
136.867
20
-108.415
11
136.867
21
-107.892
0
LINE
8
Black
10
136.867
20
-107.892
11
136.517
21
-107.892
0
LINE
8
Black
10
136.517
20
-107.892
11
136.517
21
-106.992
0
LINE
8
Black
10
136.517
20
-106.992
11
137.717
21
-106.992
0
LINE
8
Black
10
137.717
20
-106.992
11
137.717
21
-107.892
0
LINE
8
Black
10
133.467
20
-107.085
11
134.317
21
-107.085
0
LINE
8
Black
10
134.317
20
-107.085
11
134.317
21
-106.992
0
LINE
8
Black
10
134.317
20
-106.992
11
135.517
21
-106.992
0
LINE
8
Black
10
135.517
20
-106.992
11
135.517
21
-107.892
0
LINE
8
Black
10
135.517
20
-107.892
11
134.317
21
-107.892
0
LINE
8
Black
10
134.317
20
-107.892
11
134.317
21
-107.616
0
LINE
8
Black
10
134.317
20
-107.616
11
134.304
21
-107.599
0
LINE
8
Black
10
134.304
20
-107.599
11
134.292
21
-107.585
0
LINE
8
Black
10
134.292
20
-107.585
11
133.467
21
-107.585
0
LINE
8
Black
10
133.467
20
-107.585
11
133.467
21
-108.085
0
LINE
8
Black
10
133.467
20
-108.085
11
132.217
21
-108.085
0
LINE
8
Black
10
132.217
20
-108.085
11
132.217
21
-106.585
0
LINE
8
Black
10
132.217
20
-106.585
11
133.467
21
-106.585
0
LINE
8
Black
10
133.467
20
-106.585
11
133.467
21
-107.085
0
CIRCLE
8
Black
10
137.668
20
-125.476
40
0.4
0
CIRCLE
8
Black
10
135.161
20
-110.584
40
0.4
0
CIRCLE
8
Black
10
140.97
20
-117.856
40
0.4
  0
ENDSEC
  0
EOF
