  0
SECTION
  2
HEADER
  9
$ANGBASE
  50
0.0
  9
$ANGDIR
  70
  1
  9
$MEASUREMENT
  70
0
  0
ENDSEC
  0
SECTION
  2
TABLES
  0
TABLE
  2
LTYPE
  70
1
  0
LTYPE
  2
CONTINUOUS
  70
0
  3
Solid line
  72
65
  73
0
  40
0.0
  0
ENDTAB
  0
TABLE
  2
STYLE
  70
4
  0
STYLE
  2
KICAD
  70
0
  40
0
  41
1
  42
1
  50
0
  71
0
  3
isocp.shx
  0
STYLE
  2
KICADB
  70
0
  40
0
  41
1
  42
1
  50
0
  71
0
  3
isocp.shx
  0
STYLE
  2
KICADI
  70
0
  40
0
  41
1
  42
1
  50
15
  71
0
  3
isocp.shx
  0
STYLE
  2
KICADBI
  70
0
  40
0
  41
1
  42
1
  50
15
  71
0
  3
isocp.shx
  0
ENDTAB
  0
TABLE
  2
LAYER
  70
30
  0
LAYER
  2
BLACK
  70
0
  62
7
  6
CONTINUOUS
  0
LAYER
  2
GRAY1
  70
0
  62
251
  6
CONTINUOUS
  0
LAYER
  2
GRAY2
  70
0
  62
8
  6
CONTINUOUS
  0
LAYER
  2
GRAY3
  70
0
  62
9
  6
CONTINUOUS
  0
LAYER
  2
WHITE
  70
0
  62
7
  6
CONTINUOUS
  0
LAYER
  2
LYELLOW
  70
0
  62
51
  6
CONTINUOUS
  0
LAYER
  2
BLUE1
  70
0
  62
178
  6
CONTINUOUS
  0
LAYER
  2
GREEN1
  70
0
  62
98
  6
CONTINUOUS
  0
LAYER
  2
CYAN1
  70
0
  62
138
  6
CONTINUOUS
  0
LAYER
  2
RED1
  70
0
  62
18
  6
CONTINUOUS
  0
LAYER
  2
MAGENTA1
  70
0
  62
228
  6
CONTINUOUS
  0
LAYER
  2
BROWN1
  70
0
  62
58
  6
CONTINUOUS
  0
LAYER
  2
BLUE2
  70
0
  62
5
  6
CONTINUOUS
  0
LAYER
  2
GREEN2
  70
0
  62
3
  6
CONTINUOUS
  0
LAYER
  2
CYAN2
  70
0
  62
4
  6
CONTINUOUS
  0
LAYER
  2
RED2
  70
0
  62
1
  6
CONTINUOUS
  0
LAYER
  2
MAGENTA2
  70
0
  62
6
  6
CONTINUOUS
  0
LAYER
  2
BROWN2
  70
0
  62
54
  6
CONTINUOUS
  0
LAYER
  2
BLUE3
  70
0
  62
171
  6
CONTINUOUS
  0
LAYER
  2
GREEN3
  70
0
  62
91
  6
CONTINUOUS
  0
LAYER
  2
CYAN3
  70
0
  62
131
  6
CONTINUOUS
  0
LAYER
  2
RED3
  70
0
  62
11
  6
CONTINUOUS
  0
LAYER
  2
MAGENTA3
  70
0
  62
221
  6
CONTINUOUS
  0
LAYER
  2
YELLOW3
  70
0
  62
2
  6
CONTINUOUS
  0
LAYER
  2
BLUE4
  70
0
  62
5
  6
CONTINUOUS
  0
LAYER
  2
GREEN4
  70
0
  62
3
  6
CONTINUOUS
  0
LAYER
  2
CYAN4
  70
0
  62
4
  6
CONTINUOUS
  0
LAYER
  2
RED4
  70
0
  62
1
  6
CONTINUOUS
  0
LAYER
  2
MAGENTA4
  70
0
  62
6
  6
CONTINUOUS
  0
LAYER
  2
YELLOW4
  70
0
  62
2
  6
CONTINUOUS
  0
ENDTAB
  0
ENDSEC
  0
SECTION
  2
ENTITIES
0
LINE
8
Black
10
143.262
20
-106.098
11
143.269
21
-106.098
0
LINE
8
Black
10
143.269
20
-106.098
11
143.275
21
-106.1
0
LINE
8
Black
10
143.275
20
-106.1
11
143.282
21
-106.102
0
LINE
8
Black
10
143.282
20
-106.102
11
143.287
21
-106.105
0
LINE
8
Black
10
143.287
20
-106.105
11
143.294
21
-106.107
0
LINE
8
Black
10
143.294
20
-106.107
11
143.299
21
-106.111
0
LINE
8
Black
10
143.299
20
-106.111
11
143.304
21
-106.115
0
LINE
8
Black
10
143.304
20
-106.115
11
143.308
21
-106.12
0
LINE
8
Black
10
143.308
20
-106.12
11
143.313
21
-106.124
0
LINE
8
Black
10
143.313
20
-106.124
11
143.317
21
-106.129
0
LINE
8
Black
10
143.317
20
-106.129
11
143.321
21
-106.135
0
LINE
8
Black
10
143.321
20
-106.135
11
143.323
21
-106.141
0
LINE
8
Black
10
143.323
20
-106.141
11
143.326
21
-106.146
0
LINE
8
Black
10
143.326
20
-106.146
11
143.328
21
-106.153
0
LINE
8
Black
10
143.328
20
-106.153
11
143.33
21
-106.159
0
LINE
8
Black
10
143.33
20
-106.159
11
143.33
21
-106.166
0
LINE
8
Black
10
143.33
20
-106.166
11
143.331
21
-106.172
0
LINE
8
Black
10
143.331
20
-106.172
11
143.331
21
-127.127
0
LINE
8
Black
10
143.331
20
-127.127
11
143.33
21
-127.133
0
LINE
8
Black
10
143.33
20
-127.133
11
143.33
21
-127.14
0
LINE
8
Black
10
143.33
20
-127.14
11
143.328
21
-127.146
0
LINE
8
Black
10
143.328
20
-127.146
11
143.326
21
-127.153
0
LINE
8
Black
10
143.326
20
-127.153
11
143.323
21
-127.158
0
LINE
8
Black
10
143.323
20
-127.158
11
143.321
21
-127.165
0
LINE
8
Black
10
143.321
20
-127.165
11
143.317
21
-127.17
0
LINE
8
Black
10
143.317
20
-127.17
11
143.313
21
-127.175
0
LINE
8
Black
10
143.313
20
-127.175
11
143.308
21
-127.179
0
LINE
8
Black
10
143.308
20
-127.179
11
143.304
21
-127.184
0
LINE
8
Black
10
143.304
20
-127.184
11
143.299
21
-127.188
0
LINE
8
Black
10
143.299
20
-127.188
11
143.294
21
-127.192
0
LINE
8
Black
10
143.294
20
-127.192
11
143.287
21
-127.194
0
LINE
8
Black
10
143.287
20
-127.194
11
143.282
21
-127.197
0
LINE
8
Black
10
143.282
20
-127.197
11
143.275
21
-127.199
0
LINE
8
Black
10
143.275
20
-127.199
11
143.269
21
-127.201
0
LINE
8
Black
10
143.269
20
-127.201
11
143.262
21
-127.201
0
LINE
8
Black
10
143.262
20
-127.201
11
143.256
21
-127.202
0
LINE
8
Black
10
143.256
20
-127.202
11
132.08
21
-127.202
0
LINE
8
Black
10
132.08
20
-127.202
11
132.074
21
-127.201
0
LINE
8
Black
10
132.074
20
-127.201
11
132.067
21
-127.201
0
LINE
8
Black
10
132.067
20
-127.201
11
132.061
21
-127.199
0
LINE
8
Black
10
132.061
20
-127.199
11
132.054
21
-127.197
0
LINE
8
Black
10
132.054
20
-127.197
11
132.049
21
-127.194
0
LINE
8
Black
10
132.049
20
-127.194
11
132.043
21
-127.192
0
LINE
8
Black
10
132.043
20
-127.192
11
132.037
21
-127.188
0
LINE
8
Black
10
132.037
20
-127.188
11
132.032
21
-127.184
0
LINE
8
Black
10
132.032
20
-127.184
11
132.028
21
-127.179
0
LINE
8
Black
10
132.028
20
-127.179
11
132.023
21
-127.175
0
LINE
8
Black
10
132.023
20
-127.175
11
132.019
21
-127.17
0
LINE
8
Black
10
132.019
20
-127.17
11
132.015
21
-127.165
0
LINE
8
Black
10
132.015
20
-127.165
11
132.013
21
-127.158
0
LINE
8
Black
10
132.013
20
-127.158
11
132.01
21
-127.153
0
LINE
8
Black
10
132.01
20
-127.153
11
132.008
21
-127.146
0
LINE
8
Black
10
132.008
20
-127.146
11
132.006
21
-127.14
0
LINE
8
Black
10
132.006
20
-127.14
11
132.006
21
-127.133
0
LINE
8
Black
10
132.006
20
-127.133
11
132.005
21
-127.127
0
LINE
8
Black
10
132.005
20
-127.127
11
132.005
21
-106.172
0
LINE
8
Black
10
132.005
20
-106.172
11
132.006
21
-106.166
0
LINE
8
Black
10
132.006
20
-106.166
11
132.006
21
-106.159
0
LINE
8
Black
10
132.006
20
-106.159
11
132.008
21
-106.153
0
LINE
8
Black
10
132.008
20
-106.153
11
132.01
21
-106.146
0
LINE
8
Black
10
132.01
20
-106.146
11
132.013
21
-106.141
0
LINE
8
Black
10
132.013
20
-106.141
11
132.015
21
-106.135
0
LINE
8
Black
10
132.015
20
-106.135
11
132.019
21
-106.129
0
LINE
8
Black
10
132.019
20
-106.129
11
132.023
21
-106.124
0
LINE
8
Black
10
132.023
20
-106.124
11
132.028
21
-106.12
0
LINE
8
Black
10
132.028
20
-106.12
11
132.032
21
-106.115
0
LINE
8
Black
10
132.032
20
-106.115
11
132.037
21
-106.111
0
LINE
8
Black
10
132.037
20
-106.111
11
132.043
21
-106.107
0
LINE
8
Black
10
132.043
20
-106.107
11
132.049
21
-106.105
0
LINE
8
Black
10
132.049
20
-106.105
11
132.054
21
-106.102
0
LINE
8
Black
10
132.054
20
-106.102
11
132.061
21
-106.1
0
LINE
8
Black
10
132.061
20
-106.1
11
132.067
21
-106.098
0
LINE
8
Black
10
132.067
20
-106.098
11
132.074
21
-106.098
0
LINE
8
Black
10
132.074
20
-106.098
11
132.08
21
-106.097
0
LINE
8
Black
10
132.08
20
-106.097
11
143.256
21
-106.097
0
LINE
8
Black
10
143.256
20
-106.097
11
143.262
21
-106.098
0
LINE
8
Black
10
132.155
20
-106.247
11
132.155
21
-127.052
0
LINE
8
Black
10
132.155
20
-127.052
11
143.181
21
-127.052
0
LINE
8
Black
10
143.181
20
-127.052
11
143.181
21
-106.247
0
LINE
8
Black
10
143.181
20
-106.247
11
132.155
21
-106.247
0
LINE
8
Black
10
142.557
20
-106.757
11
142.568
21
-106.757
0
LINE
8
Black
10
142.568
20
-106.757
11
142.578
21
-106.761
0
LINE
8
Black
10
142.578
20
-106.761
11
142.589
21
-106.763
0
LINE
8
Black
10
142.589
20
-106.763
11
142.599
21
-106.768
0
LINE
8
Black
10
142.599
20
-106.768
11
142.61
21
-106.772
0
LINE
8
Black
10
142.61
20
-106.772
11
142.618
21
-106.779
0
LINE
8
Black
10
142.618
20
-106.779
11
142.628
21
-106.785
0
LINE
8
Black
10
142.628
20
-106.785
11
142.635
21
-106.793
0
LINE
8
Black
10
142.635
20
-106.793
11
142.643
21
-106.8
0
LINE
8
Black
10
142.643
20
-106.8
11
142.649
21
-106.81
0
LINE
8
Black
10
142.649
20
-106.81
11
142.656
21
-106.819
0
LINE
8
Black
10
142.656
20
-106.819
11
142.66
21
-106.829
0
LINE
8
Black
10
142.66
20
-106.829
11
142.665
21
-106.839
0
LINE
8
Black
10
142.665
20
-106.839
11
142.667
21
-106.85
0
LINE
8
Black
10
142.667
20
-106.85
11
142.671
21
-106.86
0
LINE
8
Black
10
142.671
20
-106.86
11
142.671
21
-106.871
0
LINE
8
Black
10
142.671
20
-106.871
11
142.673
21
-106.882
0
LINE
8
Black
10
142.673
20
-106.882
11
142.673
21
-125.147
0
LINE
8
Black
10
142.673
20
-125.147
11
142.671
21
-125.158
0
LINE
8
Black
10
142.671
20
-125.158
11
142.671
21
-125.169
0
LINE
8
Black
10
142.671
20
-125.169
11
142.667
21
-125.179
0
LINE
8
Black
10
142.667
20
-125.179
11
142.665
21
-125.19
0
LINE
8
Black
10
142.665
20
-125.19
11
142.66
21
-125.2
0
LINE
8
Black
10
142.66
20
-125.2
11
142.656
21
-125.211
0
LINE
8
Black
10
142.656
20
-125.211
11
142.649
21
-125.219
0
LINE
8
Black
10
142.649
20
-125.219
11
142.643
21
-125.229
0
LINE
8
Black
10
142.643
20
-125.229
11
142.635
21
-125.236
0
LINE
8
Black
10
142.635
20
-125.236
11
142.628
21
-125.244
0
LINE
8
Black
10
142.628
20
-125.244
11
142.618
21
-125.25
0
LINE
8
Black
10
142.618
20
-125.25
11
142.61
21
-125.257
0
LINE
8
Black
10
142.61
20
-125.257
11
142.599
21
-125.261
0
LINE
8
Black
10
142.599
20
-125.261
11
142.589
21
-125.266
0
LINE
8
Black
10
142.589
20
-125.266
11
142.578
21
-125.268
0
LINE
8
Black
10
142.578
20
-125.268
11
142.568
21
-125.272
0
LINE
8
Black
10
142.568
20
-125.272
11
142.557
21
-125.272
0
LINE
8
Black
10
142.557
20
-125.272
11
142.546
21
-125.274
0
LINE
8
Black
10
142.546
20
-125.274
11
140.462
21
-125.274
0
LINE
8
Black
10
140.462
20
-125.274
11
140.451
21
-125.272
0
LINE
8
Black
10
140.451
20
-125.272
11
140.44
21
-125.272
0
LINE
8
Black
10
140.44
20
-125.272
11
140.43
21
-125.268
0
LINE
8
Black
10
140.43
20
-125.268
11
140.419
21
-125.266
0
LINE
8
Black
10
140.419
20
-125.266
11
140.409
21
-125.261
0
LINE
8
Black
10
140.409
20
-125.261
11
140.399
21
-125.257
0
LINE
8
Black
10
140.399
20
-125.257
11
140.39
21
-125.25
0
LINE
8
Black
10
140.39
20
-125.25
11
140.38
21
-125.244
0
LINE
8
Black
10
140.38
20
-125.244
11
140.373
21
-125.236
0
LINE
8
Black
10
140.373
20
-125.236
11
140.365
21
-125.229
0
LINE
8
Black
10
140.365
20
-125.229
11
140.359
21
-125.219
0
LINE
8
Black
10
140.359
20
-125.219
11
140.352
21
-125.211
0
LINE
8
Black
10
140.352
20
-125.211
11
140.348
21
-125.2
0
LINE
8
Black
10
140.348
20
-125.2
11
140.343
21
-125.19
0
LINE
8
Black
10
140.343
20
-125.19
11
140.341
21
-125.179
0
LINE
8
Black
10
140.341
20
-125.179
11
140.337
21
-125.169
0
LINE
8
Black
10
140.337
20
-125.169
11
140.337
21
-125.158
0
LINE
8
Black
10
140.337
20
-125.158
11
140.335
21
-125.147
0
LINE
8
Black
10
140.335
20
-125.147
11
140.335
21
-106.882
0
LINE
8
Black
10
140.335
20
-106.882
11
140.337
21
-106.871
0
LINE
8
Black
10
140.337
20
-106.871
11
140.337
21
-106.86
0
LINE
8
Black
10
140.337
20
-106.86
11
140.341
21
-106.85
0
LINE
8
Black
10
140.341
20
-106.85
11
140.343
21
-106.839
0
LINE
8
Black
10
140.343
20
-106.839
11
140.348
21
-106.829
0
LINE
8
Black
10
140.348
20
-106.829
11
140.352
21
-106.819
0
LINE
8
Black
10
140.352
20
-106.819
11
140.359
21
-106.81
0
LINE
8
Black
10
140.359
20
-106.81
11
140.365
21
-106.8
0
LINE
8
Black
10
140.365
20
-106.8
11
140.373
21
-106.793
0
LINE
8
Black
10
140.373
20
-106.793
11
140.38
21
-106.785
0
LINE
8
Black
10
140.38
20
-106.785
11
140.39
21
-106.779
0
LINE
8
Black
10
140.39
20
-106.779
11
140.399
21
-106.772
0
LINE
8
Black
10
140.399
20
-106.772
11
140.409
21
-106.768
0
LINE
8
Black
10
140.409
20
-106.768
11
140.419
21
-106.763
0
LINE
8
Black
10
140.419
20
-106.763
11
140.43
21
-106.761
0
LINE
8
Black
10
140.43
20
-106.761
11
140.44
21
-106.757
0
LINE
8
Black
10
140.44
20
-106.757
11
140.451
21
-106.757
0
LINE
8
Black
10
140.451
20
-106.757
11
140.462
21
-106.755
0
LINE
8
Black
10
140.462
20
-106.755
11
142.546
21
-106.755
0
LINE
8
Black
10
142.546
20
-106.755
11
142.557
21
-106.757
0
LINE
8
Black
10
139.457
20
-106.757
11
139.468
21
-106.757
0
LINE
8
Black
10
139.468
20
-106.757
11
139.478
21
-106.761
0
LINE
8
Black
10
139.478
20
-106.761
11
139.489
21
-106.763
0
LINE
8
Black
10
139.489
20
-106.763
11
139.499
21
-106.768
0
LINE
8
Black
10
139.499
20
-106.768
11
139.51
21
-106.772
0
LINE
8
Black
10
139.51
20
-106.772
11
139.518
21
-106.779
0
LINE
8
Black
10
139.518
20
-106.779
11
139.528
21
-106.785
0
LINE
8
Black
10
139.528
20
-106.785
11
139.535
21
-106.793
0
LINE
8
Black
10
139.535
20
-106.793
11
139.543
21
-106.8
0
LINE
8
Black
10
139.543
20
-106.8
11
139.549
21
-106.81
0
LINE
8
Black
10
139.549
20
-106.81
11
139.556
21
-106.819
0
LINE
8
Black
10
139.556
20
-106.819
11
139.56
21
-106.829
0
LINE
8
Black
10
139.56
20
-106.829
11
139.565
21
-106.839
0
LINE
8
Black
10
139.565
20
-106.839
11
139.567
21
-106.85
0
LINE
8
Black
10
139.567
20
-106.85
11
139.571
21
-106.86
0
LINE
8
Black
10
139.571
20
-106.86
11
139.571
21
-106.871
0
LINE
8
Black
10
139.571
20
-106.871
11
139.573
21
-106.882
0
LINE
8
Black
10
139.573
20
-106.882
11
139.573
21
-112.268
0
LINE
8
Black
10
139.573
20
-112.268
11
139.573
21
-112.268
0
LINE
8
Black
10
139.573
20
-112.268
11
139.7
21
-121.03
0
LINE
8
Black
10
139.7
20
-121.03
11
139.7
21
-121.031
0
LINE
8
Black
10
139.7
20
-121.031
11
139.7
21
-121.032
0
LINE
8
Black
10
139.7
20
-121.032
11
139.7
21
-125.147
0
LINE
8
Black
10
139.7
20
-125.147
11
139.698
21
-125.158
0
LINE
8
Black
10
139.698
20
-125.158
11
139.698
21
-125.169
0
LINE
8
Black
10
139.698
20
-125.169
11
139.694
21
-125.179
0
LINE
8
Black
10
139.694
20
-125.179
11
139.692
21
-125.19
0
LINE
8
Black
10
139.692
20
-125.19
11
139.687
21
-125.2
0
LINE
8
Black
10
139.687
20
-125.2
11
139.683
21
-125.211
0
LINE
8
Black
10
139.683
20
-125.211
11
139.676
21
-125.219
0
LINE
8
Black
10
139.676
20
-125.219
11
139.67
21
-125.229
0
LINE
8
Black
10
139.67
20
-125.229
11
139.662
21
-125.236
0
LINE
8
Black
10
139.662
20
-125.236
11
139.655
21
-125.244
0
LINE
8
Black
10
139.655
20
-125.244
11
139.645
21
-125.25
0
LINE
8
Black
10
139.645
20
-125.25
11
139.637
21
-125.257
0
LINE
8
Black
10
139.637
20
-125.257
11
139.626
21
-125.261
0
LINE
8
Black
10
139.626
20
-125.261
11
139.616
21
-125.266
0
LINE
8
Black
10
139.616
20
-125.266
11
139.605
21
-125.268
0
LINE
8
Black
10
139.605
20
-125.268
11
139.595
21
-125.272
0
LINE
8
Black
10
139.595
20
-125.272
11
139.584
21
-125.272
0
LINE
8
Black
10
139.584
20
-125.272
11
139.573
21
-125.274
0
LINE
8
Black
10
139.573
20
-125.274
11
132.79
21
-125.274
0
LINE
8
Black
10
132.79
20
-125.274
11
132.779
21
-125.272
0
LINE
8
Black
10
132.779
20
-125.272
11
132.768
21
-125.272
0
LINE
8
Black
10
132.768
20
-125.272
11
132.758
21
-125.268
0
LINE
8
Black
10
132.758
20
-125.268
11
132.747
21
-125.266
0
LINE
8
Black
10
132.747
20
-125.266
11
132.737
21
-125.261
0
LINE
8
Black
10
132.737
20
-125.261
11
132.727
21
-125.257
0
LINE
8
Black
10
132.727
20
-125.257
11
132.718
21
-125.25
0
LINE
8
Black
10
132.718
20
-125.25
11
132.708
21
-125.244
0
LINE
8
Black
10
132.708
20
-125.244
11
132.701
21
-125.236
0
LINE
8
Black
10
132.701
20
-125.236
11
132.693
21
-125.229
0
LINE
8
Black
10
132.693
20
-125.229
11
132.687
21
-125.219
0
LINE
8
Black
10
132.687
20
-125.219
11
132.68
21
-125.211
0
LINE
8
Black
10
132.68
20
-125.211
11
132.676
21
-125.2
0
LINE
8
Black
10
132.676
20
-125.2
11
132.671
21
-125.19
0
LINE
8
Black
10
132.671
20
-125.19
11
132.669
21
-125.179
0
LINE
8
Black
10
132.669
20
-125.179
11
132.665
21
-125.169
0
LINE
8
Black
10
132.665
20
-125.169
11
132.665
21
-125.158
0
LINE
8
Black
10
132.665
20
-125.158
11
132.663
21
-125.147
0
LINE
8
Black
10
132.663
20
-125.147
11
132.663
21
-106.882
0
LINE
8
Black
10
132.663
20
-106.882
11
132.665
21
-106.871
0
LINE
8
Black
10
132.665
20
-106.871
11
132.665
21
-106.86
0
LINE
8
Black
10
132.665
20
-106.86
11
132.669
21
-106.85
0
LINE
8
Black
10
132.669
20
-106.85
11
132.671
21
-106.839
0
LINE
8
Black
10
132.671
20
-106.839
11
132.676
21
-106.829
0
LINE
8
Black
10
132.676
20
-106.829
11
132.68
21
-106.819
0
LINE
8
Black
10
132.68
20
-106.819
11
132.687
21
-106.81
0
LINE
8
Black
10
132.687
20
-106.81
11
132.693
21
-106.8
0
LINE
8
Black
10
132.693
20
-106.8
11
132.701
21
-106.793
0
LINE
8
Black
10
132.701
20
-106.793
11
132.708
21
-106.785
0
LINE
8
Black
10
132.708
20
-106.785
11
132.718
21
-106.779
0
LINE
8
Black
10
132.718
20
-106.779
11
132.727
21
-106.772
0
LINE
8
Black
10
132.727
20
-106.772
11
132.737
21
-106.768
0
LINE
8
Black
10
132.737
20
-106.768
11
132.747
21
-106.763
0
LINE
8
Black
10
132.747
20
-106.763
11
132.758
21
-106.761
0
LINE
8
Black
10
132.758
20
-106.761
11
132.768
21
-106.757
0
LINE
8
Black
10
132.768
20
-106.757
11
132.779
21
-106.757
0
LINE
8
Black
10
132.779
20
-106.757
11
132.79
21
-106.755
0
LINE
8
Black
10
132.79
20
-106.755
11
139.446
21
-106.755
0
LINE
8
Black
10
139.446
20
-106.755
11
139.457
21
-106.757
0
CIRCLE
8
Black
10
138.049
20
-123.571
40
0.4
0
CIRCLE
8
Black
10
135.161
20
-110.584
40
0.4
0
CIRCLE
8
Black
10
140.97
20
-118.364
40
0.4
  0
ENDSEC
  0
EOF
