  0
SECTION
  2
HEADER
  9
$ANGBASE
  50
0.0
  9
$ANGDIR
  70
  1
  9
$MEASUREMENT
  70
0
  0
ENDSEC
  0
SECTION
  2
TABLES
  0
TABLE
  2
LTYPE
  70
1
  0
LTYPE
  2
CONTINUOUS
  70
0
  3
Solid line
  72
65
  73
0
  40
0.0
  0
ENDTAB
  0
TABLE
  2
STYLE
  70
4
  0
STYLE
  2
KICAD
  70
0
  40
0
  41
1
  42
1
  50
0
  71
0
  3
isocp.shx
  0
STYLE
  2
KICADB
  70
0
  40
0
  41
1
  42
1
  50
0
  71
0
  3
isocp.shx
  0
STYLE
  2
KICADI
  70
0
  40
0
  41
1
  42
1
  50
15
  71
0
  3
isocp.shx
  0
STYLE
  2
KICADBI
  70
0
  40
0
  41
1
  42
1
  50
15
  71
0
  3
isocp.shx
  0
ENDTAB
  0
TABLE
  2
LAYER
  70
30
  0
LAYER
  2
BLACK
  70
0
  62
7
  6
CONTINUOUS
  0
LAYER
  2
GRAY1
  70
0
  62
251
  6
CONTINUOUS
  0
LAYER
  2
GRAY2
  70
0
  62
8
  6
CONTINUOUS
  0
LAYER
  2
GRAY3
  70
0
  62
9
  6
CONTINUOUS
  0
LAYER
  2
WHITE
  70
0
  62
7
  6
CONTINUOUS
  0
LAYER
  2
LYELLOW
  70
0
  62
51
  6
CONTINUOUS
  0
LAYER
  2
BLUE1
  70
0
  62
178
  6
CONTINUOUS
  0
LAYER
  2
GREEN1
  70
0
  62
98
  6
CONTINUOUS
  0
LAYER
  2
CYAN1
  70
0
  62
138
  6
CONTINUOUS
  0
LAYER
  2
RED1
  70
0
  62
18
  6
CONTINUOUS
  0
LAYER
  2
MAGENTA1
  70
0
  62
228
  6
CONTINUOUS
  0
LAYER
  2
BROWN1
  70
0
  62
58
  6
CONTINUOUS
  0
LAYER
  2
BLUE2
  70
0
  62
5
  6
CONTINUOUS
  0
LAYER
  2
GREEN2
  70
0
  62
3
  6
CONTINUOUS
  0
LAYER
  2
CYAN2
  70
0
  62
4
  6
CONTINUOUS
  0
LAYER
  2
RED2
  70
0
  62
1
  6
CONTINUOUS
  0
LAYER
  2
MAGENTA2
  70
0
  62
6
  6
CONTINUOUS
  0
LAYER
  2
BROWN2
  70
0
  62
54
  6
CONTINUOUS
  0
LAYER
  2
BLUE3
  70
0
  62
171
  6
CONTINUOUS
  0
LAYER
  2
GREEN3
  70
0
  62
91
  6
CONTINUOUS
  0
LAYER
  2
CYAN3
  70
0
  62
131
  6
CONTINUOUS
  0
LAYER
  2
RED3
  70
0
  62
11
  6
CONTINUOUS
  0
LAYER
  2
MAGENTA3
  70
0
  62
221
  6
CONTINUOUS
  0
LAYER
  2
YELLOW3
  70
0
  62
2
  6
CONTINUOUS
  0
LAYER
  2
BLUE4
  70
0
  62
5
  6
CONTINUOUS
  0
LAYER
  2
GREEN4
  70
0
  62
3
  6
CONTINUOUS
  0
LAYER
  2
CYAN4
  70
0
  62
4
  6
CONTINUOUS
  0
LAYER
  2
RED4
  70
0
  62
1
  6
CONTINUOUS
  0
LAYER
  2
MAGENTA4
  70
0
  62
6
  6
CONTINUOUS
  0
LAYER
  2
YELLOW4
  70
0
  62
2
  6
CONTINUOUS
  0
ENDTAB
  0
ENDSEC
  0
SECTION
  2
ENTITIES
0
LINE
8
Black
10
143.262
20
-106.098
11
143.269
21
-106.098
0
LINE
8
Black
10
143.269
20
-106.098
11
143.275
21
-106.1
0
LINE
8
Black
10
143.275
20
-106.1
11
143.282
21
-106.102
0
LINE
8
Black
10
143.282
20
-106.102
11
143.287
21
-106.105
0
LINE
8
Black
10
143.287
20
-106.105
11
143.294
21
-106.107
0
LINE
8
Black
10
143.294
20
-106.107
11
143.299
21
-106.111
0
LINE
8
Black
10
143.299
20
-106.111
11
143.304
21
-106.115
0
LINE
8
Black
10
143.304
20
-106.115
11
143.308
21
-106.12
0
LINE
8
Black
10
143.308
20
-106.12
11
143.313
21
-106.124
0
LINE
8
Black
10
143.313
20
-106.124
11
143.317
21
-106.129
0
LINE
8
Black
10
143.317
20
-106.129
11
143.321
21
-106.135
0
LINE
8
Black
10
143.321
20
-106.135
11
143.323
21
-106.141
0
LINE
8
Black
10
143.323
20
-106.141
11
143.326
21
-106.146
0
LINE
8
Black
10
143.326
20
-106.146
11
143.328
21
-106.153
0
LINE
8
Black
10
143.328
20
-106.153
11
143.33
21
-106.159
0
LINE
8
Black
10
143.33
20
-106.159
11
143.33
21
-106.166
0
LINE
8
Black
10
143.33
20
-106.166
11
143.331
21
-106.172
0
LINE
8
Black
10
143.331
20
-106.172
11
143.331
21
-125.857
0
LINE
8
Black
10
143.331
20
-125.857
11
143.33
21
-125.863
0
LINE
8
Black
10
143.33
20
-125.863
11
143.33
21
-125.87
0
LINE
8
Black
10
143.33
20
-125.87
11
143.328
21
-125.876
0
LINE
8
Black
10
143.328
20
-125.876
11
143.326
21
-125.883
0
LINE
8
Black
10
143.326
20
-125.883
11
143.323
21
-125.888
0
LINE
8
Black
10
143.323
20
-125.888
11
143.321
21
-125.895
0
LINE
8
Black
10
143.321
20
-125.895
11
143.317
21
-125.9
0
LINE
8
Black
10
143.317
20
-125.9
11
143.313
21
-125.905
0
LINE
8
Black
10
143.313
20
-125.905
11
143.308
21
-125.909
0
LINE
8
Black
10
143.308
20
-125.909
11
143.304
21
-125.914
0
LINE
8
Black
10
143.304
20
-125.914
11
143.299
21
-125.918
0
LINE
8
Black
10
143.299
20
-125.918
11
143.294
21
-125.922
0
LINE
8
Black
10
143.294
20
-125.922
11
143.287
21
-125.924
0
LINE
8
Black
10
143.287
20
-125.924
11
143.282
21
-125.927
0
LINE
8
Black
10
143.282
20
-125.927
11
143.275
21
-125.929
0
LINE
8
Black
10
143.275
20
-125.929
11
143.269
21
-125.931
0
LINE
8
Black
10
143.269
20
-125.931
11
143.262
21
-125.931
0
LINE
8
Black
10
143.262
20
-125.931
11
143.256
21
-125.932
0
LINE
8
Black
10
143.256
20
-125.932
11
132.08
21
-125.932
0
LINE
8
Black
10
132.08
20
-125.932
11
132.074
21
-125.931
0
LINE
8
Black
10
132.074
20
-125.931
11
132.067
21
-125.931
0
LINE
8
Black
10
132.067
20
-125.931
11
132.061
21
-125.929
0
LINE
8
Black
10
132.061
20
-125.929
11
132.054
21
-125.927
0
LINE
8
Black
10
132.054
20
-125.927
11
132.049
21
-125.924
0
LINE
8
Black
10
132.049
20
-125.924
11
132.043
21
-125.922
0
LINE
8
Black
10
132.043
20
-125.922
11
132.037
21
-125.918
0
LINE
8
Black
10
132.037
20
-125.918
11
132.032
21
-125.914
0
LINE
8
Black
10
132.032
20
-125.914
11
132.028
21
-125.909
0
LINE
8
Black
10
132.028
20
-125.909
11
132.023
21
-125.905
0
LINE
8
Black
10
132.023
20
-125.905
11
132.019
21
-125.9
0
LINE
8
Black
10
132.019
20
-125.9
11
132.015
21
-125.895
0
LINE
8
Black
10
132.015
20
-125.895
11
132.013
21
-125.888
0
LINE
8
Black
10
132.013
20
-125.888
11
132.01
21
-125.883
0
LINE
8
Black
10
132.01
20
-125.883
11
132.008
21
-125.876
0
LINE
8
Black
10
132.008
20
-125.876
11
132.006
21
-125.87
0
LINE
8
Black
10
132.006
20
-125.87
11
132.006
21
-125.863
0
LINE
8
Black
10
132.006
20
-125.863
11
132.005
21
-125.857
0
LINE
8
Black
10
132.005
20
-125.857
11
132.005
21
-106.172
0
LINE
8
Black
10
132.005
20
-106.172
11
132.006
21
-106.166
0
LINE
8
Black
10
132.006
20
-106.166
11
132.006
21
-106.159
0
LINE
8
Black
10
132.006
20
-106.159
11
132.008
21
-106.153
0
LINE
8
Black
10
132.008
20
-106.153
11
132.01
21
-106.146
0
LINE
8
Black
10
132.01
20
-106.146
11
132.013
21
-106.141
0
LINE
8
Black
10
132.013
20
-106.141
11
132.015
21
-106.135
0
LINE
8
Black
10
132.015
20
-106.135
11
132.019
21
-106.129
0
LINE
8
Black
10
132.019
20
-106.129
11
132.023
21
-106.124
0
LINE
8
Black
10
132.023
20
-106.124
11
132.028
21
-106.12
0
LINE
8
Black
10
132.028
20
-106.12
11
132.032
21
-106.115
0
LINE
8
Black
10
132.032
20
-106.115
11
132.037
21
-106.111
0
LINE
8
Black
10
132.037
20
-106.111
11
132.043
21
-106.107
0
LINE
8
Black
10
132.043
20
-106.107
11
132.049
21
-106.105
0
LINE
8
Black
10
132.049
20
-106.105
11
132.054
21
-106.102
0
LINE
8
Black
10
132.054
20
-106.102
11
132.061
21
-106.1
0
LINE
8
Black
10
132.061
20
-106.1
11
132.067
21
-106.098
0
LINE
8
Black
10
132.067
20
-106.098
11
132.074
21
-106.098
0
LINE
8
Black
10
132.074
20
-106.098
11
132.08
21
-106.097
0
LINE
8
Black
10
132.08
20
-106.097
11
143.256
21
-106.097
0
LINE
8
Black
10
143.256
20
-106.097
11
143.262
21
-106.098
0
LINE
8
Black
10
132.155
20
-106.247
11
132.155
21
-125.782
0
LINE
8
Black
10
132.155
20
-125.782
11
143.181
21
-125.782
0
LINE
8
Black
10
143.181
20
-125.782
11
143.181
21
-106.247
0
LINE
8
Black
10
143.181
20
-106.247
11
132.155
21
-106.247
  0
ENDSEC
  0
EOF
